%TF.GenerationSoftware,KiCad,Pcbnew,9.0.1*%
%TF.CreationDate,2025-04-29T03:14:40+06:00*%
%TF.ProjectId,stm32f401,73746d33-3266-4343-9031-2e6b69636164,rev?*%
%TF.SameCoordinates,Original*%
%TF.FileFunction,Drillmap*%
%TF.FilePolarity,Positive*%
%FSLAX45Y45*%
G04 Gerber Fmt 4.5, Leading zero omitted, Abs format (unit mm)*
G04 Created by KiCad (PCBNEW 9.0.1) date 2025-04-29 03:14:40*
%MOMM*%
%LPD*%
G01*
G04 APERTURE LIST*
%ADD10C,0.050000*%
%ADD11C,0.200000*%
%ADD12C,0.100000*%
G04 APERTURE END LIST*
D10*
X4200000Y-5000000D02*
X7424000Y-4998000D01*
X7624578Y-8297040D02*
X7623579Y-5198420D01*
X4200000Y-8496000D02*
X7424579Y-8497040D01*
X4000000Y-8296000D02*
X4000000Y-5200000D01*
X4200000Y-8496000D02*
G75*
G02*
X4000000Y-8296000I0J200000D01*
G01*
X7624579Y-8297040D02*
G75*
G02*
X7424579Y-8497040I-200000J0D01*
G01*
X7423579Y-4998421D02*
G75*
G02*
X7623579Y-5198421I0J-200000D01*
G01*
X4000000Y-5200000D02*
G75*
G02*
X4200000Y-5000000I200000J0D01*
G01*
D11*
D12*
X6964000Y-6415500D02*
X7029000Y-6480500D01*
X7029000Y-6415500D02*
X6964000Y-6480500D01*
X6964000Y-6993500D02*
X7029000Y-7058500D01*
X7029000Y-6993500D02*
X6964000Y-7058500D01*
D11*
X4258277Y-8811024D02*
X4258277Y-8611024D01*
X4258277Y-8611024D02*
X4305896Y-8611024D01*
X4305896Y-8611024D02*
X4334467Y-8620548D01*
X4334467Y-8620548D02*
X4353515Y-8639595D01*
X4353515Y-8639595D02*
X4363039Y-8658643D01*
X4363039Y-8658643D02*
X4372563Y-8696738D01*
X4372563Y-8696738D02*
X4372563Y-8725310D01*
X4372563Y-8725310D02*
X4363039Y-8763405D01*
X4363039Y-8763405D02*
X4353515Y-8782453D01*
X4353515Y-8782453D02*
X4334467Y-8801500D01*
X4334467Y-8801500D02*
X4305896Y-8811024D01*
X4305896Y-8811024D02*
X4258277Y-8811024D01*
X4458277Y-8811024D02*
X4458277Y-8677691D01*
X4458277Y-8715786D02*
X4467801Y-8696738D01*
X4467801Y-8696738D02*
X4477324Y-8687214D01*
X4477324Y-8687214D02*
X4496372Y-8677691D01*
X4496372Y-8677691D02*
X4515420Y-8677691D01*
X4582086Y-8811024D02*
X4582086Y-8677691D01*
X4582086Y-8611024D02*
X4572563Y-8620548D01*
X4572563Y-8620548D02*
X4582086Y-8630072D01*
X4582086Y-8630072D02*
X4591610Y-8620548D01*
X4591610Y-8620548D02*
X4582086Y-8611024D01*
X4582086Y-8611024D02*
X4582086Y-8630072D01*
X4705896Y-8811024D02*
X4686848Y-8801500D01*
X4686848Y-8801500D02*
X4677324Y-8782453D01*
X4677324Y-8782453D02*
X4677324Y-8611024D01*
X4810658Y-8811024D02*
X4791610Y-8801500D01*
X4791610Y-8801500D02*
X4782086Y-8782453D01*
X4782086Y-8782453D02*
X4782086Y-8611024D01*
X5039229Y-8811024D02*
X5039229Y-8611024D01*
X5039229Y-8611024D02*
X5105896Y-8753881D01*
X5105896Y-8753881D02*
X5172563Y-8611024D01*
X5172563Y-8611024D02*
X5172563Y-8811024D01*
X5353515Y-8811024D02*
X5353515Y-8706262D01*
X5353515Y-8706262D02*
X5343991Y-8687214D01*
X5343991Y-8687214D02*
X5324944Y-8677691D01*
X5324944Y-8677691D02*
X5286848Y-8677691D01*
X5286848Y-8677691D02*
X5267801Y-8687214D01*
X5353515Y-8801500D02*
X5334467Y-8811024D01*
X5334467Y-8811024D02*
X5286848Y-8811024D01*
X5286848Y-8811024D02*
X5267801Y-8801500D01*
X5267801Y-8801500D02*
X5258277Y-8782453D01*
X5258277Y-8782453D02*
X5258277Y-8763405D01*
X5258277Y-8763405D02*
X5267801Y-8744357D01*
X5267801Y-8744357D02*
X5286848Y-8734834D01*
X5286848Y-8734834D02*
X5334467Y-8734834D01*
X5334467Y-8734834D02*
X5353515Y-8725310D01*
X5448753Y-8677691D02*
X5448753Y-8877691D01*
X5448753Y-8687214D02*
X5467801Y-8677691D01*
X5467801Y-8677691D02*
X5505896Y-8677691D01*
X5505896Y-8677691D02*
X5524944Y-8687214D01*
X5524944Y-8687214D02*
X5534467Y-8696738D01*
X5534467Y-8696738D02*
X5543991Y-8715786D01*
X5543991Y-8715786D02*
X5543991Y-8772929D01*
X5543991Y-8772929D02*
X5534467Y-8791976D01*
X5534467Y-8791976D02*
X5524944Y-8801500D01*
X5524944Y-8801500D02*
X5505896Y-8811024D01*
X5505896Y-8811024D02*
X5467801Y-8811024D01*
X5467801Y-8811024D02*
X5448753Y-8801500D01*
X5629705Y-8791976D02*
X5639229Y-8801500D01*
X5639229Y-8801500D02*
X5629705Y-8811024D01*
X5629705Y-8811024D02*
X5620182Y-8801500D01*
X5620182Y-8801500D02*
X5629705Y-8791976D01*
X5629705Y-8791976D02*
X5629705Y-8811024D01*
X5629705Y-8687214D02*
X5639229Y-8696738D01*
X5639229Y-8696738D02*
X5629705Y-8706262D01*
X5629705Y-8706262D02*
X5620182Y-8696738D01*
X5620182Y-8696738D02*
X5629705Y-8687214D01*
X5629705Y-8687214D02*
X5629705Y-8706262D01*
D12*
X3932500Y-9107040D02*
X3997500Y-9172040D01*
X3997500Y-9107040D02*
X3932500Y-9172040D01*
D11*
X4296372Y-9031024D02*
X4315420Y-9031024D01*
X4315420Y-9031024D02*
X4334467Y-9040548D01*
X4334467Y-9040548D02*
X4343991Y-9050072D01*
X4343991Y-9050072D02*
X4353515Y-9069119D01*
X4353515Y-9069119D02*
X4363039Y-9107214D01*
X4363039Y-9107214D02*
X4363039Y-9154834D01*
X4363039Y-9154834D02*
X4353515Y-9192929D01*
X4353515Y-9192929D02*
X4343991Y-9211976D01*
X4343991Y-9211976D02*
X4334467Y-9221500D01*
X4334467Y-9221500D02*
X4315420Y-9231024D01*
X4315420Y-9231024D02*
X4296372Y-9231024D01*
X4296372Y-9231024D02*
X4277324Y-9221500D01*
X4277324Y-9221500D02*
X4267801Y-9211976D01*
X4267801Y-9211976D02*
X4258277Y-9192929D01*
X4258277Y-9192929D02*
X4248753Y-9154834D01*
X4248753Y-9154834D02*
X4248753Y-9107214D01*
X4248753Y-9107214D02*
X4258277Y-9069119D01*
X4258277Y-9069119D02*
X4267801Y-9050072D01*
X4267801Y-9050072D02*
X4277324Y-9040548D01*
X4277324Y-9040548D02*
X4296372Y-9031024D01*
X4448753Y-9211976D02*
X4458277Y-9221500D01*
X4458277Y-9221500D02*
X4448753Y-9231024D01*
X4448753Y-9231024D02*
X4439229Y-9221500D01*
X4439229Y-9221500D02*
X4448753Y-9211976D01*
X4448753Y-9211976D02*
X4448753Y-9231024D01*
X4629705Y-9031024D02*
X4591610Y-9031024D01*
X4591610Y-9031024D02*
X4572563Y-9040548D01*
X4572563Y-9040548D02*
X4563039Y-9050072D01*
X4563039Y-9050072D02*
X4543991Y-9078643D01*
X4543991Y-9078643D02*
X4534467Y-9116738D01*
X4534467Y-9116738D02*
X4534467Y-9192929D01*
X4534467Y-9192929D02*
X4543991Y-9211976D01*
X4543991Y-9211976D02*
X4553515Y-9221500D01*
X4553515Y-9221500D02*
X4572563Y-9231024D01*
X4572563Y-9231024D02*
X4610658Y-9231024D01*
X4610658Y-9231024D02*
X4629705Y-9221500D01*
X4629705Y-9221500D02*
X4639229Y-9211976D01*
X4639229Y-9211976D02*
X4648753Y-9192929D01*
X4648753Y-9192929D02*
X4648753Y-9145310D01*
X4648753Y-9145310D02*
X4639229Y-9126262D01*
X4639229Y-9126262D02*
X4629705Y-9116738D01*
X4629705Y-9116738D02*
X4610658Y-9107214D01*
X4610658Y-9107214D02*
X4572563Y-9107214D01*
X4572563Y-9107214D02*
X4553515Y-9116738D01*
X4553515Y-9116738D02*
X4543991Y-9126262D01*
X4543991Y-9126262D02*
X4534467Y-9145310D01*
X4829705Y-9031024D02*
X4734467Y-9031024D01*
X4734467Y-9031024D02*
X4724944Y-9126262D01*
X4724944Y-9126262D02*
X4734467Y-9116738D01*
X4734467Y-9116738D02*
X4753515Y-9107214D01*
X4753515Y-9107214D02*
X4801134Y-9107214D01*
X4801134Y-9107214D02*
X4820182Y-9116738D01*
X4820182Y-9116738D02*
X4829705Y-9126262D01*
X4829705Y-9126262D02*
X4839229Y-9145310D01*
X4839229Y-9145310D02*
X4839229Y-9192929D01*
X4839229Y-9192929D02*
X4829705Y-9211976D01*
X4829705Y-9211976D02*
X4820182Y-9221500D01*
X4820182Y-9221500D02*
X4801134Y-9231024D01*
X4801134Y-9231024D02*
X4753515Y-9231024D01*
X4753515Y-9231024D02*
X4734467Y-9221500D01*
X4734467Y-9221500D02*
X4724944Y-9211976D01*
X4963039Y-9031024D02*
X4982086Y-9031024D01*
X4982086Y-9031024D02*
X5001134Y-9040548D01*
X5001134Y-9040548D02*
X5010658Y-9050072D01*
X5010658Y-9050072D02*
X5020182Y-9069119D01*
X5020182Y-9069119D02*
X5029705Y-9107214D01*
X5029705Y-9107214D02*
X5029705Y-9154834D01*
X5029705Y-9154834D02*
X5020182Y-9192929D01*
X5020182Y-9192929D02*
X5010658Y-9211976D01*
X5010658Y-9211976D02*
X5001134Y-9221500D01*
X5001134Y-9221500D02*
X4982086Y-9231024D01*
X4982086Y-9231024D02*
X4963039Y-9231024D01*
X4963039Y-9231024D02*
X4943991Y-9221500D01*
X4943991Y-9221500D02*
X4934467Y-9211976D01*
X4934467Y-9211976D02*
X4924944Y-9192929D01*
X4924944Y-9192929D02*
X4915420Y-9154834D01*
X4915420Y-9154834D02*
X4915420Y-9107214D01*
X4915420Y-9107214D02*
X4924944Y-9069119D01*
X4924944Y-9069119D02*
X4934467Y-9050072D01*
X4934467Y-9050072D02*
X4943991Y-9040548D01*
X4943991Y-9040548D02*
X4963039Y-9031024D01*
X5115420Y-9231024D02*
X5115420Y-9097691D01*
X5115420Y-9116738D02*
X5124944Y-9107214D01*
X5124944Y-9107214D02*
X5143991Y-9097691D01*
X5143991Y-9097691D02*
X5172563Y-9097691D01*
X5172563Y-9097691D02*
X5191610Y-9107214D01*
X5191610Y-9107214D02*
X5201134Y-9126262D01*
X5201134Y-9126262D02*
X5201134Y-9231024D01*
X5201134Y-9126262D02*
X5210658Y-9107214D01*
X5210658Y-9107214D02*
X5229705Y-9097691D01*
X5229705Y-9097691D02*
X5258277Y-9097691D01*
X5258277Y-9097691D02*
X5277325Y-9107214D01*
X5277325Y-9107214D02*
X5286848Y-9126262D01*
X5286848Y-9126262D02*
X5286848Y-9231024D01*
X5382086Y-9231024D02*
X5382086Y-9097691D01*
X5382086Y-9116738D02*
X5391610Y-9107214D01*
X5391610Y-9107214D02*
X5410658Y-9097691D01*
X5410658Y-9097691D02*
X5439229Y-9097691D01*
X5439229Y-9097691D02*
X5458277Y-9107214D01*
X5458277Y-9107214D02*
X5467801Y-9126262D01*
X5467801Y-9126262D02*
X5467801Y-9231024D01*
X5467801Y-9126262D02*
X5477325Y-9107214D01*
X5477325Y-9107214D02*
X5496372Y-9097691D01*
X5496372Y-9097691D02*
X5524944Y-9097691D01*
X5524944Y-9097691D02*
X5543991Y-9107214D01*
X5543991Y-9107214D02*
X5553515Y-9126262D01*
X5553515Y-9126262D02*
X5553515Y-9231024D01*
X5943991Y-9021500D02*
X5772563Y-9278643D01*
X6201134Y-9031024D02*
X6220182Y-9031024D01*
X6220182Y-9031024D02*
X6239229Y-9040548D01*
X6239229Y-9040548D02*
X6248753Y-9050072D01*
X6248753Y-9050072D02*
X6258277Y-9069119D01*
X6258277Y-9069119D02*
X6267801Y-9107214D01*
X6267801Y-9107214D02*
X6267801Y-9154834D01*
X6267801Y-9154834D02*
X6258277Y-9192929D01*
X6258277Y-9192929D02*
X6248753Y-9211976D01*
X6248753Y-9211976D02*
X6239229Y-9221500D01*
X6239229Y-9221500D02*
X6220182Y-9231024D01*
X6220182Y-9231024D02*
X6201134Y-9231024D01*
X6201134Y-9231024D02*
X6182086Y-9221500D01*
X6182086Y-9221500D02*
X6172563Y-9211976D01*
X6172563Y-9211976D02*
X6163039Y-9192929D01*
X6163039Y-9192929D02*
X6153515Y-9154834D01*
X6153515Y-9154834D02*
X6153515Y-9107214D01*
X6153515Y-9107214D02*
X6163039Y-9069119D01*
X6163039Y-9069119D02*
X6172563Y-9050072D01*
X6172563Y-9050072D02*
X6182086Y-9040548D01*
X6182086Y-9040548D02*
X6201134Y-9031024D01*
X6353515Y-9211976D02*
X6363039Y-9221500D01*
X6363039Y-9221500D02*
X6353515Y-9231024D01*
X6353515Y-9231024D02*
X6343991Y-9221500D01*
X6343991Y-9221500D02*
X6353515Y-9211976D01*
X6353515Y-9211976D02*
X6353515Y-9231024D01*
X6486848Y-9031024D02*
X6505896Y-9031024D01*
X6505896Y-9031024D02*
X6524944Y-9040548D01*
X6524944Y-9040548D02*
X6534467Y-9050072D01*
X6534467Y-9050072D02*
X6543991Y-9069119D01*
X6543991Y-9069119D02*
X6553515Y-9107214D01*
X6553515Y-9107214D02*
X6553515Y-9154834D01*
X6553515Y-9154834D02*
X6543991Y-9192929D01*
X6543991Y-9192929D02*
X6534467Y-9211976D01*
X6534467Y-9211976D02*
X6524944Y-9221500D01*
X6524944Y-9221500D02*
X6505896Y-9231024D01*
X6505896Y-9231024D02*
X6486848Y-9231024D01*
X6486848Y-9231024D02*
X6467801Y-9221500D01*
X6467801Y-9221500D02*
X6458277Y-9211976D01*
X6458277Y-9211976D02*
X6448753Y-9192929D01*
X6448753Y-9192929D02*
X6439229Y-9154834D01*
X6439229Y-9154834D02*
X6439229Y-9107214D01*
X6439229Y-9107214D02*
X6448753Y-9069119D01*
X6448753Y-9069119D02*
X6458277Y-9050072D01*
X6458277Y-9050072D02*
X6467801Y-9040548D01*
X6467801Y-9040548D02*
X6486848Y-9031024D01*
X6629706Y-9050072D02*
X6639229Y-9040548D01*
X6639229Y-9040548D02*
X6658277Y-9031024D01*
X6658277Y-9031024D02*
X6705896Y-9031024D01*
X6705896Y-9031024D02*
X6724944Y-9040548D01*
X6724944Y-9040548D02*
X6734467Y-9050072D01*
X6734467Y-9050072D02*
X6743991Y-9069119D01*
X6743991Y-9069119D02*
X6743991Y-9088167D01*
X6743991Y-9088167D02*
X6734467Y-9116738D01*
X6734467Y-9116738D02*
X6620182Y-9231024D01*
X6620182Y-9231024D02*
X6743991Y-9231024D01*
X6924944Y-9031024D02*
X6829706Y-9031024D01*
X6829706Y-9031024D02*
X6820182Y-9126262D01*
X6820182Y-9126262D02*
X6829706Y-9116738D01*
X6829706Y-9116738D02*
X6848753Y-9107214D01*
X6848753Y-9107214D02*
X6896372Y-9107214D01*
X6896372Y-9107214D02*
X6915420Y-9116738D01*
X6915420Y-9116738D02*
X6924944Y-9126262D01*
X6924944Y-9126262D02*
X6934467Y-9145310D01*
X6934467Y-9145310D02*
X6934467Y-9192929D01*
X6934467Y-9192929D02*
X6924944Y-9211976D01*
X6924944Y-9211976D02*
X6915420Y-9221500D01*
X6915420Y-9221500D02*
X6896372Y-9231024D01*
X6896372Y-9231024D02*
X6848753Y-9231024D01*
X6848753Y-9231024D02*
X6829706Y-9221500D01*
X6829706Y-9221500D02*
X6820182Y-9211976D01*
X7105896Y-9031024D02*
X7067801Y-9031024D01*
X7067801Y-9031024D02*
X7048753Y-9040548D01*
X7048753Y-9040548D02*
X7039229Y-9050072D01*
X7039229Y-9050072D02*
X7020182Y-9078643D01*
X7020182Y-9078643D02*
X7010658Y-9116738D01*
X7010658Y-9116738D02*
X7010658Y-9192929D01*
X7010658Y-9192929D02*
X7020182Y-9211976D01*
X7020182Y-9211976D02*
X7029706Y-9221500D01*
X7029706Y-9221500D02*
X7048753Y-9231024D01*
X7048753Y-9231024D02*
X7086848Y-9231024D01*
X7086848Y-9231024D02*
X7105896Y-9221500D01*
X7105896Y-9221500D02*
X7115420Y-9211976D01*
X7115420Y-9211976D02*
X7124944Y-9192929D01*
X7124944Y-9192929D02*
X7124944Y-9145310D01*
X7124944Y-9145310D02*
X7115420Y-9126262D01*
X7115420Y-9126262D02*
X7105896Y-9116738D01*
X7105896Y-9116738D02*
X7086848Y-9107214D01*
X7086848Y-9107214D02*
X7048753Y-9107214D01*
X7048753Y-9107214D02*
X7029706Y-9116738D01*
X7029706Y-9116738D02*
X7020182Y-9126262D01*
X7020182Y-9126262D02*
X7010658Y-9145310D01*
X7201134Y-9031024D02*
X7201134Y-9069119D01*
X7277325Y-9031024D02*
X7277325Y-9069119D01*
X7572563Y-9307214D02*
X7563039Y-9297691D01*
X7563039Y-9297691D02*
X7543991Y-9269119D01*
X7543991Y-9269119D02*
X7534468Y-9250072D01*
X7534468Y-9250072D02*
X7524944Y-9221500D01*
X7524944Y-9221500D02*
X7515420Y-9173881D01*
X7515420Y-9173881D02*
X7515420Y-9135786D01*
X7515420Y-9135786D02*
X7524944Y-9088167D01*
X7524944Y-9088167D02*
X7534468Y-9059595D01*
X7534468Y-9059595D02*
X7543991Y-9040548D01*
X7543991Y-9040548D02*
X7563039Y-9011976D01*
X7563039Y-9011976D02*
X7572563Y-9002453D01*
X7639229Y-9050072D02*
X7648753Y-9040548D01*
X7648753Y-9040548D02*
X7667801Y-9031024D01*
X7667801Y-9031024D02*
X7715420Y-9031024D01*
X7715420Y-9031024D02*
X7734468Y-9040548D01*
X7734468Y-9040548D02*
X7743991Y-9050072D01*
X7743991Y-9050072D02*
X7753515Y-9069119D01*
X7753515Y-9069119D02*
X7753515Y-9088167D01*
X7753515Y-9088167D02*
X7743991Y-9116738D01*
X7743991Y-9116738D02*
X7629706Y-9231024D01*
X7629706Y-9231024D02*
X7753515Y-9231024D01*
X7991610Y-9231024D02*
X7991610Y-9031024D01*
X8077325Y-9231024D02*
X8077325Y-9126262D01*
X8077325Y-9126262D02*
X8067801Y-9107214D01*
X8067801Y-9107214D02*
X8048753Y-9097691D01*
X8048753Y-9097691D02*
X8020182Y-9097691D01*
X8020182Y-9097691D02*
X8001134Y-9107214D01*
X8001134Y-9107214D02*
X7991610Y-9116738D01*
X8201134Y-9231024D02*
X8182087Y-9221500D01*
X8182087Y-9221500D02*
X8172563Y-9211976D01*
X8172563Y-9211976D02*
X8163039Y-9192929D01*
X8163039Y-9192929D02*
X8163039Y-9135786D01*
X8163039Y-9135786D02*
X8172563Y-9116738D01*
X8172563Y-9116738D02*
X8182087Y-9107214D01*
X8182087Y-9107214D02*
X8201134Y-9097691D01*
X8201134Y-9097691D02*
X8229706Y-9097691D01*
X8229706Y-9097691D02*
X8248753Y-9107214D01*
X8248753Y-9107214D02*
X8258277Y-9116738D01*
X8258277Y-9116738D02*
X8267801Y-9135786D01*
X8267801Y-9135786D02*
X8267801Y-9192929D01*
X8267801Y-9192929D02*
X8258277Y-9211976D01*
X8258277Y-9211976D02*
X8248753Y-9221500D01*
X8248753Y-9221500D02*
X8229706Y-9231024D01*
X8229706Y-9231024D02*
X8201134Y-9231024D01*
X8382087Y-9231024D02*
X8363039Y-9221500D01*
X8363039Y-9221500D02*
X8353515Y-9202453D01*
X8353515Y-9202453D02*
X8353515Y-9031024D01*
X8534468Y-9221500D02*
X8515420Y-9231024D01*
X8515420Y-9231024D02*
X8477325Y-9231024D01*
X8477325Y-9231024D02*
X8458277Y-9221500D01*
X8458277Y-9221500D02*
X8448753Y-9202453D01*
X8448753Y-9202453D02*
X8448753Y-9126262D01*
X8448753Y-9126262D02*
X8458277Y-9107214D01*
X8458277Y-9107214D02*
X8477325Y-9097691D01*
X8477325Y-9097691D02*
X8515420Y-9097691D01*
X8515420Y-9097691D02*
X8534468Y-9107214D01*
X8534468Y-9107214D02*
X8543992Y-9126262D01*
X8543992Y-9126262D02*
X8543992Y-9145310D01*
X8543992Y-9145310D02*
X8448753Y-9164357D01*
X8620182Y-9221500D02*
X8639230Y-9231024D01*
X8639230Y-9231024D02*
X8677325Y-9231024D01*
X8677325Y-9231024D02*
X8696373Y-9221500D01*
X8696373Y-9221500D02*
X8705896Y-9202453D01*
X8705896Y-9202453D02*
X8705896Y-9192929D01*
X8705896Y-9192929D02*
X8696373Y-9173881D01*
X8696373Y-9173881D02*
X8677325Y-9164357D01*
X8677325Y-9164357D02*
X8648753Y-9164357D01*
X8648753Y-9164357D02*
X8629706Y-9154834D01*
X8629706Y-9154834D02*
X8620182Y-9135786D01*
X8620182Y-9135786D02*
X8620182Y-9126262D01*
X8620182Y-9126262D02*
X8629706Y-9107214D01*
X8629706Y-9107214D02*
X8648753Y-9097691D01*
X8648753Y-9097691D02*
X8677325Y-9097691D01*
X8677325Y-9097691D02*
X8696373Y-9107214D01*
X8772563Y-9307214D02*
X8782087Y-9297691D01*
X8782087Y-9297691D02*
X8801134Y-9269119D01*
X8801134Y-9269119D02*
X8810658Y-9250072D01*
X8810658Y-9250072D02*
X8820182Y-9221500D01*
X8820182Y-9221500D02*
X8829706Y-9173881D01*
X8829706Y-9173881D02*
X8829706Y-9135786D01*
X8829706Y-9135786D02*
X8820182Y-9088167D01*
X8820182Y-9088167D02*
X8810658Y-9059595D01*
X8810658Y-9059595D02*
X8801134Y-9040548D01*
X8801134Y-9040548D02*
X8782087Y-9011976D01*
X8782087Y-9011976D02*
X8772563Y-9002453D01*
X9134468Y-9307214D02*
X9124944Y-9297691D01*
X9124944Y-9297691D02*
X9105896Y-9269119D01*
X9105896Y-9269119D02*
X9096373Y-9250072D01*
X9096373Y-9250072D02*
X9086849Y-9221500D01*
X9086849Y-9221500D02*
X9077325Y-9173881D01*
X9077325Y-9173881D02*
X9077325Y-9135786D01*
X9077325Y-9135786D02*
X9086849Y-9088167D01*
X9086849Y-9088167D02*
X9096373Y-9059595D01*
X9096373Y-9059595D02*
X9105896Y-9040548D01*
X9105896Y-9040548D02*
X9124944Y-9011976D01*
X9124944Y-9011976D02*
X9134468Y-9002453D01*
X9210658Y-9097691D02*
X9210658Y-9231024D01*
X9210658Y-9116738D02*
X9220182Y-9107214D01*
X9220182Y-9107214D02*
X9239230Y-9097691D01*
X9239230Y-9097691D02*
X9267801Y-9097691D01*
X9267801Y-9097691D02*
X9286849Y-9107214D01*
X9286849Y-9107214D02*
X9296373Y-9126262D01*
X9296373Y-9126262D02*
X9296373Y-9231024D01*
X9420182Y-9231024D02*
X9401134Y-9221500D01*
X9401134Y-9221500D02*
X9391611Y-9211976D01*
X9391611Y-9211976D02*
X9382087Y-9192929D01*
X9382087Y-9192929D02*
X9382087Y-9135786D01*
X9382087Y-9135786D02*
X9391611Y-9116738D01*
X9391611Y-9116738D02*
X9401134Y-9107214D01*
X9401134Y-9107214D02*
X9420182Y-9097691D01*
X9420182Y-9097691D02*
X9448754Y-9097691D01*
X9448754Y-9097691D02*
X9467801Y-9107214D01*
X9467801Y-9107214D02*
X9477325Y-9116738D01*
X9477325Y-9116738D02*
X9486849Y-9135786D01*
X9486849Y-9135786D02*
X9486849Y-9192929D01*
X9486849Y-9192929D02*
X9477325Y-9211976D01*
X9477325Y-9211976D02*
X9467801Y-9221500D01*
X9467801Y-9221500D02*
X9448754Y-9231024D01*
X9448754Y-9231024D02*
X9420182Y-9231024D01*
X9543992Y-9097691D02*
X9620182Y-9097691D01*
X9572563Y-9031024D02*
X9572563Y-9202453D01*
X9572563Y-9202453D02*
X9582087Y-9221500D01*
X9582087Y-9221500D02*
X9601134Y-9231024D01*
X9601134Y-9231024D02*
X9620182Y-9231024D01*
X9839230Y-9097691D02*
X9839230Y-9297691D01*
X9839230Y-9107214D02*
X9858277Y-9097691D01*
X9858277Y-9097691D02*
X9896373Y-9097691D01*
X9896373Y-9097691D02*
X9915420Y-9107214D01*
X9915420Y-9107214D02*
X9924944Y-9116738D01*
X9924944Y-9116738D02*
X9934468Y-9135786D01*
X9934468Y-9135786D02*
X9934468Y-9192929D01*
X9934468Y-9192929D02*
X9924944Y-9211976D01*
X9924944Y-9211976D02*
X9915420Y-9221500D01*
X9915420Y-9221500D02*
X9896373Y-9231024D01*
X9896373Y-9231024D02*
X9858277Y-9231024D01*
X9858277Y-9231024D02*
X9839230Y-9221500D01*
X10048754Y-9231024D02*
X10029706Y-9221500D01*
X10029706Y-9221500D02*
X10020182Y-9202453D01*
X10020182Y-9202453D02*
X10020182Y-9031024D01*
X10210658Y-9231024D02*
X10210658Y-9126262D01*
X10210658Y-9126262D02*
X10201135Y-9107214D01*
X10201135Y-9107214D02*
X10182087Y-9097691D01*
X10182087Y-9097691D02*
X10143992Y-9097691D01*
X10143992Y-9097691D02*
X10124944Y-9107214D01*
X10210658Y-9221500D02*
X10191611Y-9231024D01*
X10191611Y-9231024D02*
X10143992Y-9231024D01*
X10143992Y-9231024D02*
X10124944Y-9221500D01*
X10124944Y-9221500D02*
X10115420Y-9202453D01*
X10115420Y-9202453D02*
X10115420Y-9183405D01*
X10115420Y-9183405D02*
X10124944Y-9164357D01*
X10124944Y-9164357D02*
X10143992Y-9154834D01*
X10143992Y-9154834D02*
X10191611Y-9154834D01*
X10191611Y-9154834D02*
X10210658Y-9145310D01*
X10277325Y-9097691D02*
X10353515Y-9097691D01*
X10305896Y-9031024D02*
X10305896Y-9202453D01*
X10305896Y-9202453D02*
X10315420Y-9221500D01*
X10315420Y-9221500D02*
X10334468Y-9231024D01*
X10334468Y-9231024D02*
X10353515Y-9231024D01*
X10496373Y-9221500D02*
X10477325Y-9231024D01*
X10477325Y-9231024D02*
X10439230Y-9231024D01*
X10439230Y-9231024D02*
X10420182Y-9221500D01*
X10420182Y-9221500D02*
X10410658Y-9202453D01*
X10410658Y-9202453D02*
X10410658Y-9126262D01*
X10410658Y-9126262D02*
X10420182Y-9107214D01*
X10420182Y-9107214D02*
X10439230Y-9097691D01*
X10439230Y-9097691D02*
X10477325Y-9097691D01*
X10477325Y-9097691D02*
X10496373Y-9107214D01*
X10496373Y-9107214D02*
X10505896Y-9126262D01*
X10505896Y-9126262D02*
X10505896Y-9145310D01*
X10505896Y-9145310D02*
X10410658Y-9164357D01*
X10677325Y-9231024D02*
X10677325Y-9031024D01*
X10677325Y-9221500D02*
X10658277Y-9231024D01*
X10658277Y-9231024D02*
X10620182Y-9231024D01*
X10620182Y-9231024D02*
X10601135Y-9221500D01*
X10601135Y-9221500D02*
X10591611Y-9211976D01*
X10591611Y-9211976D02*
X10582087Y-9192929D01*
X10582087Y-9192929D02*
X10582087Y-9135786D01*
X10582087Y-9135786D02*
X10591611Y-9116738D01*
X10591611Y-9116738D02*
X10601135Y-9107214D01*
X10601135Y-9107214D02*
X10620182Y-9097691D01*
X10620182Y-9097691D02*
X10658277Y-9097691D01*
X10658277Y-9097691D02*
X10677325Y-9107214D01*
X10753516Y-9307214D02*
X10763039Y-9297691D01*
X10763039Y-9297691D02*
X10782087Y-9269119D01*
X10782087Y-9269119D02*
X10791611Y-9250072D01*
X10791611Y-9250072D02*
X10801135Y-9221500D01*
X10801135Y-9221500D02*
X10810658Y-9173881D01*
X10810658Y-9173881D02*
X10810658Y-9135786D01*
X10810658Y-9135786D02*
X10801135Y-9088167D01*
X10801135Y-9088167D02*
X10791611Y-9059595D01*
X10791611Y-9059595D02*
X10782087Y-9040548D01*
X10782087Y-9040548D02*
X10763039Y-9011976D01*
X10763039Y-9011976D02*
X10753516Y-9002453D01*
M02*
