G04 #@! TF.GenerationSoftware,KiCad,Pcbnew,9.0.1*
G04 #@! TF.CreationDate,2025-04-29T03:14:40+06:00*
G04 #@! TF.ProjectId,stm32f401,73746d33-3266-4343-9031-2e6b69636164,rev?*
G04 #@! TF.SameCoordinates,Original*
G04 #@! TF.FileFunction,Copper,L1,Top*
G04 #@! TF.FilePolarity,Positive*
%FSLAX46Y46*%
G04 Gerber Fmt 4.6, Leading zero omitted, Abs format (unit mm)*
G04 Created by KiCad (PCBNEW 9.0.1) date 2025-04-29 03:14:40*
%MOMM*%
%LPD*%
G01*
G04 APERTURE LIST*
G04 Aperture macros list*
%AMRoundRect*
0 Rectangle with rounded corners*
0 $1 Rounding radius*
0 $2 $3 $4 $5 $6 $7 $8 $9 X,Y pos of 4 corners*
0 Add a 4 corners polygon primitive as box body*
4,1,4,$2,$3,$4,$5,$6,$7,$8,$9,$2,$3,0*
0 Add four circle primitives for the rounded corners*
1,1,$1+$1,$2,$3*
1,1,$1+$1,$4,$5*
1,1,$1+$1,$6,$7*
1,1,$1+$1,$8,$9*
0 Add four rect primitives between the rounded corners*
20,1,$1+$1,$2,$3,$4,$5,0*
20,1,$1+$1,$4,$5,$6,$7,0*
20,1,$1+$1,$6,$7,$8,$9,0*
20,1,$1+$1,$8,$9,$2,$3,0*%
G04 Aperture macros list end*
G04 #@! TA.AperFunction,HeatsinkPad*
%ADD10O,1.800000X1.000000*%
G04 #@! TD*
G04 #@! TA.AperFunction,HeatsinkPad*
%ADD11O,2.100000X1.000000*%
G04 #@! TD*
G04 #@! TA.AperFunction,SMDPad,CuDef*
%ADD12RoundRect,0.150000X0.425000X-0.150000X0.425000X0.150000X-0.425000X0.150000X-0.425000X-0.150000X0*%
G04 #@! TD*
G04 #@! TA.AperFunction,SMDPad,CuDef*
%ADD13RoundRect,0.075000X0.500000X-0.075000X0.500000X0.075000X-0.500000X0.075000X-0.500000X-0.075000X0*%
G04 #@! TD*
G04 #@! TA.AperFunction,ComponentPad*
%ADD14C,0.800000*%
G04 #@! TD*
G04 #@! TA.AperFunction,ComponentPad*
%ADD15C,5.000000*%
G04 #@! TD*
G04 #@! TA.AperFunction,SMDPad,CuDef*
%ADD16RoundRect,0.135000X0.135000X0.185000X-0.135000X0.185000X-0.135000X-0.185000X0.135000X-0.185000X0*%
G04 #@! TD*
G04 #@! TA.AperFunction,SMDPad,CuDef*
%ADD17R,0.675000X0.250000*%
G04 #@! TD*
G04 #@! TA.AperFunction,SMDPad,CuDef*
%ADD18R,0.250000X0.675000*%
G04 #@! TD*
G04 #@! TA.AperFunction,SMDPad,CuDef*
%ADD19RoundRect,0.112500X0.112500X0.237500X-0.112500X0.237500X-0.112500X-0.237500X0.112500X-0.237500X0*%
G04 #@! TD*
G04 #@! TA.AperFunction,SMDPad,CuDef*
%ADD20RoundRect,0.225000X-0.225000X-0.250000X0.225000X-0.250000X0.225000X0.250000X-0.225000X0.250000X0*%
G04 #@! TD*
G04 #@! TA.AperFunction,SMDPad,CuDef*
%ADD21RoundRect,0.375000X0.625000X0.375000X-0.625000X0.375000X-0.625000X-0.375000X0.625000X-0.375000X0*%
G04 #@! TD*
G04 #@! TA.AperFunction,SMDPad,CuDef*
%ADD22RoundRect,0.500000X0.500000X1.400000X-0.500000X1.400000X-0.500000X-1.400000X0.500000X-1.400000X0*%
G04 #@! TD*
G04 #@! TA.AperFunction,SMDPad,CuDef*
%ADD23RoundRect,0.140000X-0.140000X-0.170000X0.140000X-0.170000X0.140000X0.170000X-0.140000X0.170000X0*%
G04 #@! TD*
G04 #@! TA.AperFunction,SMDPad,CuDef*
%ADD24RoundRect,0.140000X0.140000X0.170000X-0.140000X0.170000X-0.140000X-0.170000X0.140000X-0.170000X0*%
G04 #@! TD*
G04 #@! TA.AperFunction,SMDPad,CuDef*
%ADD25RoundRect,0.147500X-0.147500X-0.172500X0.147500X-0.172500X0.147500X0.172500X-0.147500X0.172500X0*%
G04 #@! TD*
G04 #@! TA.AperFunction,SMDPad,CuDef*
%ADD26RoundRect,0.135000X-0.185000X0.135000X-0.185000X-0.135000X0.185000X-0.135000X0.185000X0.135000X0*%
G04 #@! TD*
G04 #@! TA.AperFunction,SMDPad,CuDef*
%ADD27RoundRect,0.135000X-0.135000X-0.185000X0.135000X-0.185000X0.135000X0.185000X-0.135000X0.185000X0*%
G04 #@! TD*
G04 #@! TA.AperFunction,SMDPad,CuDef*
%ADD28R,0.900000X1.700000*%
G04 #@! TD*
G04 #@! TA.AperFunction,SMDPad,CuDef*
%ADD29RoundRect,0.250000X0.350000X0.650000X-0.350000X0.650000X-0.350000X-0.650000X0.350000X-0.650000X0*%
G04 #@! TD*
G04 #@! TA.AperFunction,SMDPad,CuDef*
%ADD30RoundRect,0.150000X0.150000X0.625000X-0.150000X0.625000X-0.150000X-0.625000X0.150000X-0.625000X0*%
G04 #@! TD*
G04 #@! TA.AperFunction,SMDPad,CuDef*
%ADD31RoundRect,0.190500X-0.762000X-0.444500X0.762000X-0.444500X0.762000X0.444500X-0.762000X0.444500X0*%
G04 #@! TD*
G04 #@! TA.AperFunction,SMDPad,CuDef*
%ADD32RoundRect,0.140000X-0.170000X0.140000X-0.170000X-0.140000X0.170000X-0.140000X0.170000X0.140000X0*%
G04 #@! TD*
G04 #@! TA.AperFunction,SMDPad,CuDef*
%ADD33R,1.200000X1.400000*%
G04 #@! TD*
G04 #@! TA.AperFunction,SMDPad,CuDef*
%ADD34RoundRect,0.225000X-0.250000X0.225000X-0.250000X-0.225000X0.250000X-0.225000X0.250000X0.225000X0*%
G04 #@! TD*
G04 #@! TA.AperFunction,SMDPad,CuDef*
%ADD35RoundRect,0.135000X0.185000X-0.135000X0.185000X0.135000X-0.185000X0.135000X-0.185000X-0.135000X0*%
G04 #@! TD*
G04 #@! TA.AperFunction,SMDPad,CuDef*
%ADD36RoundRect,0.147500X0.147500X0.172500X-0.147500X0.172500X-0.147500X-0.172500X0.147500X-0.172500X0*%
G04 #@! TD*
G04 #@! TA.AperFunction,SMDPad,CuDef*
%ADD37RoundRect,0.225000X0.225000X0.250000X-0.225000X0.250000X-0.225000X-0.250000X0.225000X-0.250000X0*%
G04 #@! TD*
G04 #@! TA.AperFunction,SMDPad,CuDef*
%ADD38RoundRect,0.075000X-0.700000X-0.075000X0.700000X-0.075000X0.700000X0.075000X-0.700000X0.075000X0*%
G04 #@! TD*
G04 #@! TA.AperFunction,SMDPad,CuDef*
%ADD39RoundRect,0.075000X-0.075000X-0.700000X0.075000X-0.700000X0.075000X0.700000X-0.075000X0.700000X0*%
G04 #@! TD*
G04 #@! TA.AperFunction,ViaPad*
%ADD40C,0.600000*%
G04 #@! TD*
G04 #@! TA.AperFunction,Conductor*
%ADD41C,0.600000*%
G04 #@! TD*
G04 #@! TA.AperFunction,Conductor*
%ADD42C,0.900000*%
G04 #@! TD*
G04 #@! TA.AperFunction,Conductor*
%ADD43C,0.300000*%
G04 #@! TD*
G04 #@! TA.AperFunction,Conductor*
%ADD44C,0.500000*%
G04 #@! TD*
G04 #@! TA.AperFunction,Conductor*
%ADD45C,0.400000*%
G04 #@! TD*
G04 #@! TA.AperFunction,Conductor*
%ADD46C,0.200000*%
G04 #@! TD*
G04 APERTURE END LIST*
D10*
G04 #@! TO.P,J1,S1,SHIELD*
G04 #@! TO.N,GND*
X73645000Y-63050000D03*
D11*
X69465000Y-63050000D03*
D10*
X73645000Y-71690000D03*
D11*
X69465000Y-71690000D03*
D12*
G04 #@! TO.P,J1,B12,GND*
X68890000Y-70570000D03*
G04 #@! TO.P,J1,B9,VBUS*
G04 #@! TO.N,VBUS*
X68890000Y-69770000D03*
D13*
G04 #@! TO.P,J1,B8,SBU2*
G04 #@! TO.N,unconnected-(J1-SBU2-PadB8)*
X68890000Y-69120000D03*
G04 #@! TO.P,J1,B7,D-*
G04 #@! TO.N,USB_D-*
X68890000Y-68120000D03*
G04 #@! TO.P,J1,B6,D+*
G04 #@! TO.N,USB_D+*
X68890000Y-66620000D03*
G04 #@! TO.P,J1,B5,CC2*
G04 #@! TO.N,Net-(J1-CC2)*
X68890000Y-65620000D03*
D12*
G04 #@! TO.P,J1,B4,VBUS*
G04 #@! TO.N,VBUS*
X68890000Y-64970000D03*
G04 #@! TO.P,J1,B1,GND*
G04 #@! TO.N,GND*
X68890000Y-64170000D03*
G04 #@! TO.P,J1,A12,GND*
X68890000Y-64170000D03*
G04 #@! TO.P,J1,A9,VBUS*
G04 #@! TO.N,VBUS*
X68890000Y-64970000D03*
D13*
G04 #@! TO.P,J1,A8,SBU1*
G04 #@! TO.N,unconnected-(J1-SBU1-PadA8)*
X68890000Y-66120000D03*
G04 #@! TO.P,J1,A7,D-*
G04 #@! TO.N,USB_D-*
X68890000Y-67120000D03*
G04 #@! TO.P,J1,A6,D+*
G04 #@! TO.N,USB_D+*
X68890000Y-67620000D03*
G04 #@! TO.P,J1,A5,CC1*
G04 #@! TO.N,Net-(J1-CC1)*
X68890000Y-68620000D03*
D12*
G04 #@! TO.P,J1,A4,VBUS*
G04 #@! TO.N,VBUS*
X68890000Y-69770000D03*
G04 #@! TO.P,J1,A1,GND*
G04 #@! TO.N,GND*
X68890000Y-70570000D03*
G04 #@! TD*
D14*
G04 #@! TO.P,H4,1,1*
G04 #@! TO.N,GND*
X43340000Y-79615000D03*
X44665825Y-80164175D03*
X42014175Y-80164175D03*
X45215000Y-81490000D03*
D15*
X43340000Y-81490000D03*
D14*
X41465000Y-81490000D03*
X44665825Y-82815825D03*
X42014175Y-82815825D03*
X43340000Y-83365000D03*
G04 #@! TD*
G04 #@! TO.P,H3,1,1*
G04 #@! TO.N,GND*
X72820000Y-83285000D03*
X71494175Y-82735825D03*
X74145825Y-82735825D03*
X70945000Y-81410000D03*
D15*
X72820000Y-81410000D03*
D14*
X74695000Y-81410000D03*
X71494175Y-80084175D03*
X74145825Y-80084175D03*
X72820000Y-79535000D03*
G04 #@! TD*
G04 #@! TO.P,H2,1,1*
G04 #@! TO.N,GND*
X43410000Y-55295000D03*
X42084175Y-54745825D03*
X44735825Y-54745825D03*
X41535000Y-53420000D03*
D15*
X43410000Y-53420000D03*
D14*
X45285000Y-53420000D03*
X42084175Y-52094175D03*
X44735825Y-52094175D03*
X43410000Y-51545000D03*
G04 #@! TD*
G04 #@! TO.P,H1,1,1*
G04 #@! TO.N,GND*
X74635000Y-53470000D03*
X74085825Y-54795825D03*
X74085825Y-52144175D03*
X72760000Y-55345000D03*
D15*
X72760000Y-53470000D03*
D14*
X72760000Y-51595000D03*
X71434175Y-54795825D03*
X71434175Y-52144175D03*
X70885000Y-53470000D03*
G04 #@! TD*
D16*
G04 #@! TO.P,R3,2*
G04 #@! TO.N,+3V3*
X49720000Y-79260000D03*
G04 #@! TO.P,R3,1*
G04 #@! TO.N,NRST*
X50740000Y-79260000D03*
G04 #@! TD*
D17*
G04 #@! TO.P,U3,1,SDO*
G04 #@! TO.N,MISO*
X52877500Y-78887500D03*
G04 #@! TO.P,U3,2,ASDx*
G04 #@! TO.N,unconnected-(U3-ASDx-Pad2)*
X52877500Y-79387500D03*
G04 #@! TO.P,U3,3,ASCx*
G04 #@! TO.N,unconnected-(U3-ASCx-Pad3)*
X52877500Y-79887500D03*
G04 #@! TO.P,U3,4,INT1*
G04 #@! TO.N,INT1*
X52877500Y-80387500D03*
D18*
G04 #@! TO.P,U3,5,VDDIO*
G04 #@! TO.N,+3V3*
X53640000Y-80650000D03*
G04 #@! TO.P,U3,6,GNDIO*
G04 #@! TO.N,GND*
X54140000Y-80650000D03*
G04 #@! TO.P,U3,7,GND*
X54640000Y-80650000D03*
D17*
G04 #@! TO.P,U3,8,VDD*
G04 #@! TO.N,+3V3*
X55402500Y-80387500D03*
G04 #@! TO.P,U3,9,INT2*
G04 #@! TO.N,INT2*
X55402500Y-79887500D03*
G04 #@! TO.P,U3,10,OCSB*
G04 #@! TO.N,unconnected-(U3-OCSB-Pad10)*
X55402500Y-79387500D03*
G04 #@! TO.P,U3,11,OSDO*
G04 #@! TO.N,unconnected-(U3-OSDO-Pad11)*
X55402500Y-78887500D03*
D18*
G04 #@! TO.P,U3,12,CSB*
G04 #@! TO.N,CS*
X54640000Y-78625000D03*
G04 #@! TO.P,U3,13,SCx*
G04 #@! TO.N,SCLK*
X54140000Y-78625000D03*
G04 #@! TO.P,U3,14,SDx*
G04 #@! TO.N,MOSI*
X53640000Y-78625000D03*
G04 #@! TD*
D19*
G04 #@! TO.P,U1,1*
G04 #@! TO.N,USB_D+*
X65720000Y-65320000D03*
G04 #@! TO.P,U1,2*
G04 #@! TO.N,USB_D-*
X64420000Y-65320000D03*
G04 #@! TO.P,U1,3*
G04 #@! TO.N,GND*
X65070000Y-67320000D03*
G04 #@! TD*
D20*
G04 #@! TO.P,C17,2*
G04 #@! TO.N,GND*
X62725000Y-83850000D03*
G04 #@! TO.P,C17,1*
G04 #@! TO.N,+3V3*
X61175000Y-83850000D03*
G04 #@! TD*
D21*
G04 #@! TO.P,U2,3,VI*
G04 #@! TO.N,VBUS*
X64680000Y-76192500D03*
D22*
G04 #@! TO.P,U2,2,VO*
G04 #@! TO.N,+3V3*
X58380000Y-78492500D03*
D21*
X64680000Y-78492500D03*
G04 #@! TO.P,U2,1,GND*
G04 #@! TO.N,GND*
X64680000Y-80792500D03*
G04 #@! TD*
D23*
G04 #@! TO.P,C16,2*
G04 #@! TO.N,GND*
X62500000Y-82610000D03*
G04 #@! TO.P,C16,1*
G04 #@! TO.N,+3V3*
X61540000Y-82610000D03*
G04 #@! TD*
D24*
G04 #@! TO.P,C13,2*
G04 #@! TO.N,GND*
X62360000Y-74130000D03*
G04 #@! TO.P,C13,1*
G04 #@! TO.N,VBUS*
X63320000Y-74130000D03*
G04 #@! TD*
D25*
G04 #@! TO.P,D2,2,A*
G04 #@! TO.N,Net-(D2-A)*
X67762500Y-80790000D03*
G04 #@! TO.P,D2,1,K*
G04 #@! TO.N,GND*
X66792500Y-80790000D03*
G04 #@! TD*
D26*
G04 #@! TO.P,R5,2*
G04 #@! TO.N,Net-(D2-A)*
X68900000Y-79720000D03*
G04 #@! TO.P,R5,1*
G04 #@! TO.N,+3V3*
X68900000Y-78700000D03*
G04 #@! TD*
D27*
G04 #@! TO.P,R7,2*
G04 #@! TO.N,Net-(J1-CC1)*
X67290000Y-68630000D03*
G04 #@! TO.P,R7,1*
G04 #@! TO.N,GND*
X66270000Y-68630000D03*
G04 #@! TD*
D24*
G04 #@! TO.P,C7,2*
G04 #@! TO.N,GND*
X54680000Y-81780000D03*
G04 #@! TO.P,C7,1*
G04 #@! TO.N,+3V3*
X55640000Y-81780000D03*
G04 #@! TD*
D23*
G04 #@! TO.P,C1,2*
G04 #@! TO.N,GND*
X53690000Y-81790000D03*
G04 #@! TO.P,C1,1*
G04 #@! TO.N,+3V3*
X52730000Y-81790000D03*
G04 #@! TD*
D28*
G04 #@! TO.P,RST,2,2*
G04 #@! TO.N,NRST*
X50650000Y-76900000D03*
G04 #@! TO.P,RST,1,1*
G04 #@! TO.N,GND*
X47250000Y-76900000D03*
G04 #@! TD*
G04 #@! TO.P,BOOT0,2,2*
G04 #@! TO.N,BOOT0*
X47220000Y-81620000D03*
G04 #@! TO.P,BOOT0,1,1*
G04 #@! TO.N,+3V3*
X50620000Y-81620000D03*
G04 #@! TD*
D29*
G04 #@! TO.P,I2C1,MP*
G04 #@! TO.N,N/C*
X47670000Y-51415000D03*
X53270000Y-51415000D03*
D30*
G04 #@! TO.P,I2C1,4,Pin_4*
G04 #@! TO.N,+3V3*
X48970000Y-55290000D03*
G04 #@! TO.P,I2C1,3,Pin_3*
G04 #@! TO.N,I2C1_SDA*
X49970000Y-55290000D03*
G04 #@! TO.P,I2C1,2,Pin_2*
G04 #@! TO.N,I2C1_SCL*
X50970000Y-55290000D03*
G04 #@! TO.P,I2C1,1,Pin_1*
G04 #@! TO.N,GND*
X51970000Y-55290000D03*
G04 #@! TD*
D29*
G04 #@! TO.P,PWM1,MP*
G04 #@! TO.N,N/C*
X59520000Y-51455000D03*
X67120000Y-51455000D03*
D30*
G04 #@! TO.P,PWM1,6,Pin_6*
G04 #@! TO.N,+3V3*
X60820000Y-55330000D03*
G04 #@! TO.P,PWM1,5,Pin_5*
G04 #@! TO.N,T3C4*
X61820000Y-55330000D03*
G04 #@! TO.P,PWM1,4,Pin_4*
G04 #@! TO.N,T3C3*
X62820000Y-55330000D03*
G04 #@! TO.P,PWM1,3,Pin_3*
G04 #@! TO.N,T3C2*
X63820000Y-55330000D03*
G04 #@! TO.P,PWM1,2,Pin_2*
G04 #@! TO.N,T3C1*
X64820000Y-55330000D03*
G04 #@! TO.P,PWM1,1,Pin_1*
G04 #@! TO.N,GND*
X65820000Y-55330000D03*
G04 #@! TD*
D24*
G04 #@! TO.P,C15,1*
G04 #@! TO.N,+3V3*
X53280000Y-72540000D03*
G04 #@! TO.P,C15,2*
G04 #@! TO.N,GND*
X52320000Y-72540000D03*
G04 #@! TD*
D23*
G04 #@! TO.P,C2,1*
G04 #@! TO.N,+3V3*
X60760000Y-71220000D03*
G04 #@! TO.P,C2,2*
G04 #@! TO.N,GND*
X61720000Y-71220000D03*
G04 #@! TD*
D31*
G04 #@! TO.P,SWD,1,Pin_1*
G04 #@! TO.N,+3V3*
X42020000Y-76600000D03*
G04 #@! TO.P,SWD,2,Pin_2*
G04 #@! TO.N,SWDIO*
X42020000Y-75100000D03*
G04 #@! TO.P,SWD,3,Pin_3*
G04 #@! TO.N,SWCLK*
X42020000Y-73600000D03*
G04 #@! TO.P,SWD,4,Pin_4*
G04 #@! TO.N,GND*
X42020000Y-72100000D03*
G04 #@! TO.P,SWD,5,Pin_5*
G04 #@! TO.N,NRST*
X42020000Y-70600000D03*
G04 #@! TO.P,SWD,6,Pin_6*
G04 #@! TO.N,SWO*
X42020000Y-69100000D03*
G04 #@! TO.P,SWD,7,Pin_7*
G04 #@! TO.N,UART2_TX*
X42020000Y-67600000D03*
G04 #@! TO.P,SWD,8,Pin_8*
G04 #@! TO.N,UART2_RX*
X42020000Y-66100000D03*
G04 #@! TD*
D23*
G04 #@! TO.P,C8,1*
G04 #@! TO.N,/HSE_IN*
X45060000Y-60430000D03*
G04 #@! TO.P,C8,2*
G04 #@! TO.N,GND*
X46020000Y-60430000D03*
G04 #@! TD*
G04 #@! TO.P,C4,1*
G04 #@! TO.N,+3V3*
X52110000Y-58000000D03*
G04 #@! TO.P,C4,2*
G04 #@! TO.N,GND*
X53070000Y-58000000D03*
G04 #@! TD*
D32*
G04 #@! TO.P,C14,1*
G04 #@! TO.N,GND*
X49900000Y-59600000D03*
G04 #@! TO.P,C14,2*
G04 #@! TO.N,+3V3*
X49900000Y-60560000D03*
G04 #@! TD*
D33*
G04 #@! TO.P,Y1,1,1*
G04 #@! TO.N,/HSE_IN*
X44730000Y-61980000D03*
G04 #@! TO.P,Y1,2,2*
G04 #@! TO.N,GND*
X44730000Y-64180000D03*
G04 #@! TO.P,Y1,3,3*
G04 #@! TO.N,/HSE_OUT*
X46430000Y-64180000D03*
G04 #@! TO.P,Y1,4,4*
G04 #@! TO.N,GND*
X46430000Y-61980000D03*
G04 #@! TD*
D34*
G04 #@! TO.P,C3,1*
G04 #@! TO.N,GND*
X47560000Y-66495000D03*
G04 #@! TO.P,C3,2*
G04 #@! TO.N,+3V3*
X47560000Y-68045000D03*
G04 #@! TD*
D23*
G04 #@! TO.P,C9,1*
G04 #@! TO.N,GND*
X44930000Y-65800000D03*
G04 #@! TO.P,C9,2*
G04 #@! TO.N,/HSE_OUT*
X45890000Y-65800000D03*
G04 #@! TD*
D16*
G04 #@! TO.P,R1,1*
G04 #@! TO.N,I2C1_SDA*
X50000000Y-57110000D03*
G04 #@! TO.P,R1,2*
G04 #@! TO.N,+3V3*
X48980000Y-57110000D03*
G04 #@! TD*
D26*
G04 #@! TO.P,R2,1*
G04 #@! TO.N,I2C1_SCL*
X50950000Y-57050000D03*
G04 #@! TO.P,R2,2*
G04 #@! TO.N,+3V3*
X50950000Y-58070000D03*
G04 #@! TD*
D35*
G04 #@! TO.P,R4,1*
G04 #@! TO.N,BOOT0*
X54360000Y-58010000D03*
G04 #@! TO.P,R4,2*
G04 #@! TO.N,GND*
X54360000Y-56990000D03*
G04 #@! TD*
D36*
G04 #@! TO.P,D1,1,K*
G04 #@! TO.N,/USR_LED*
X48950000Y-61880000D03*
G04 #@! TO.P,D1,2,A*
G04 #@! TO.N,Net-(D1-A)*
X47980000Y-61880000D03*
G04 #@! TD*
D32*
G04 #@! TO.P,C5,1*
G04 #@! TO.N,GND*
X48830000Y-66830000D03*
G04 #@! TO.P,C5,2*
G04 #@! TO.N,+3V3*
X48830000Y-67790000D03*
G04 #@! TD*
D34*
G04 #@! TO.P,C10,1*
G04 #@! TO.N,+3V3*
X64630000Y-60965000D03*
G04 #@! TO.P,C10,2*
G04 #@! TO.N,GND*
X64630000Y-62515000D03*
G04 #@! TD*
D37*
G04 #@! TO.P,C12,1*
G04 #@! TO.N,VBUS*
X63575000Y-72770000D03*
G04 #@! TO.P,C12,2*
G04 #@! TO.N,GND*
X62025000Y-72770000D03*
G04 #@! TD*
D26*
G04 #@! TO.P,R8,1*
G04 #@! TO.N,GND*
X67240000Y-64600000D03*
G04 #@! TO.P,R8,2*
G04 #@! TO.N,Net-(J1-CC2)*
X67240000Y-65620000D03*
G04 #@! TD*
D20*
G04 #@! TO.P,C18,1*
G04 #@! TO.N,Net-(U4-VCAP1)*
X58515000Y-72840000D03*
G04 #@! TO.P,C18,2*
G04 #@! TO.N,GND*
X60065000Y-72840000D03*
G04 #@! TD*
D32*
G04 #@! TO.P,C6,1*
G04 #@! TO.N,+3V3*
X63330000Y-61310000D03*
G04 #@! TO.P,C6,2*
G04 #@! TO.N,GND*
X63330000Y-62270000D03*
G04 #@! TD*
D26*
G04 #@! TO.P,R6,1*
G04 #@! TO.N,+3V3*
X48010000Y-59840000D03*
G04 #@! TO.P,R6,2*
G04 #@! TO.N,Net-(D1-A)*
X48010000Y-60860000D03*
G04 #@! TD*
D38*
G04 #@! TO.P,U4,1,VBAT*
G04 #@! TO.N,+3V3*
X50435000Y-61530000D03*
G04 #@! TO.P,U4,2,PC13*
G04 #@! TO.N,/USR_LED*
X50435000Y-62030000D03*
G04 #@! TO.P,U4,3,PC14*
G04 #@! TO.N,unconnected-(U4-PC14-Pad3)*
X50435000Y-62530000D03*
G04 #@! TO.P,U4,4,PC15*
G04 #@! TO.N,unconnected-(U4-PC15-Pad4)*
X50435000Y-63030000D03*
G04 #@! TO.P,U4,5,PH0*
G04 #@! TO.N,/HSE_IN*
X50435000Y-63530000D03*
G04 #@! TO.P,U4,6,PH1*
G04 #@! TO.N,/HSE_OUT*
X50435000Y-64030000D03*
G04 #@! TO.P,U4,7,NRST*
G04 #@! TO.N,NRST*
X50435000Y-64530000D03*
G04 #@! TO.P,U4,8,PC0*
G04 #@! TO.N,unconnected-(U4-PC0-Pad8)*
X50435000Y-65030000D03*
G04 #@! TO.P,U4,9,PC1*
G04 #@! TO.N,unconnected-(U4-PC1-Pad9)*
X50435000Y-65530000D03*
G04 #@! TO.P,U4,10,PC2*
G04 #@! TO.N,unconnected-(U4-PC2-Pad10)*
X50435000Y-66030000D03*
G04 #@! TO.P,U4,11,PC3*
G04 #@! TO.N,T3C4*
X50435000Y-66530000D03*
G04 #@! TO.P,U4,12,VSSA*
G04 #@! TO.N,GND*
X50435000Y-67030000D03*
G04 #@! TO.P,U4,13,VREF+*
G04 #@! TO.N,+3V3*
X50435000Y-67530000D03*
G04 #@! TO.P,U4,14,PA0*
G04 #@! TO.N,unconnected-(U4-PA0-Pad14)*
X50435000Y-68030000D03*
G04 #@! TO.P,U4,15,PA1*
G04 #@! TO.N,unconnected-(U4-PA1-Pad15)*
X50435000Y-68530000D03*
G04 #@! TO.P,U4,16,PA2*
G04 #@! TO.N,UART2_TX*
X50435000Y-69030000D03*
D39*
G04 #@! TO.P,U4,17,PA3*
G04 #@! TO.N,UART2_RX*
X52360000Y-70955000D03*
G04 #@! TO.P,U4,18,VSS*
G04 #@! TO.N,GND*
X52860000Y-70955000D03*
G04 #@! TO.P,U4,19,VDD*
G04 #@! TO.N,+3V3*
X53360000Y-70955000D03*
G04 #@! TO.P,U4,20,PA4*
G04 #@! TO.N,CS*
X53860000Y-70955000D03*
G04 #@! TO.P,U4,21,PA5*
G04 #@! TO.N,SCLK*
X54360000Y-70955000D03*
G04 #@! TO.P,U4,22,PA6*
G04 #@! TO.N,MISO*
X54860000Y-70955000D03*
G04 #@! TO.P,U4,23,PA7*
G04 #@! TO.N,MOSI*
X55360000Y-70955000D03*
G04 #@! TO.P,U4,24,PC4*
G04 #@! TO.N,T3C3*
X55860000Y-70955000D03*
G04 #@! TO.P,U4,25,PC5*
G04 #@! TO.N,T3C2*
X56360000Y-70955000D03*
G04 #@! TO.P,U4,26,PB0*
G04 #@! TO.N,INT1*
X56860000Y-70955000D03*
G04 #@! TO.P,U4,27,PB1*
G04 #@! TO.N,INT2*
X57360000Y-70955000D03*
G04 #@! TO.P,U4,28,PB2*
G04 #@! TO.N,unconnected-(U4-PB2-Pad28)*
X57860000Y-70955000D03*
G04 #@! TO.P,U4,29,PB10*
G04 #@! TO.N,unconnected-(U4-PB10-Pad29)*
X58360000Y-70955000D03*
G04 #@! TO.P,U4,30,VCAP1*
G04 #@! TO.N,Net-(U4-VCAP1)*
X58860000Y-70955000D03*
G04 #@! TO.P,U4,31,VSS*
G04 #@! TO.N,GND*
X59360000Y-70955000D03*
G04 #@! TO.P,U4,32,VDD*
G04 #@! TO.N,+3V3*
X59860000Y-70955000D03*
D38*
G04 #@! TO.P,U4,33,PB12*
G04 #@! TO.N,unconnected-(U4-PB12-Pad33)*
X61785000Y-69030000D03*
G04 #@! TO.P,U4,34,PB13*
G04 #@! TO.N,unconnected-(U4-PB13-Pad34)*
X61785000Y-68530000D03*
G04 #@! TO.P,U4,35,PB14*
G04 #@! TO.N,unconnected-(U4-PB14-Pad35)*
X61785000Y-68030000D03*
G04 #@! TO.P,U4,36,PB15*
G04 #@! TO.N,unconnected-(U4-PB15-Pad36)*
X61785000Y-67530000D03*
G04 #@! TO.P,U4,37,PC6*
G04 #@! TO.N,T3C1*
X61785000Y-67030000D03*
G04 #@! TO.P,U4,38,PC7*
G04 #@! TO.N,unconnected-(U4-PC7-Pad38)*
X61785000Y-66530000D03*
G04 #@! TO.P,U4,39,PC8*
G04 #@! TO.N,unconnected-(U4-PC8-Pad39)*
X61785000Y-66030000D03*
G04 #@! TO.P,U4,40,PC9*
G04 #@! TO.N,unconnected-(U4-PC9-Pad40)*
X61785000Y-65530000D03*
G04 #@! TO.P,U4,41,PA8*
G04 #@! TO.N,unconnected-(U4-PA8-Pad41)*
X61785000Y-65030000D03*
G04 #@! TO.P,U4,42,PA9*
G04 #@! TO.N,unconnected-(U4-PA9-Pad42)*
X61785000Y-64530000D03*
G04 #@! TO.P,U4,43,PA10*
G04 #@! TO.N,unconnected-(U4-PA10-Pad43)*
X61785000Y-64030000D03*
G04 #@! TO.P,U4,44,PA11*
G04 #@! TO.N,USB_D-*
X61785000Y-63530000D03*
G04 #@! TO.P,U4,45,PA12*
G04 #@! TO.N,USB_D+*
X61785000Y-63030000D03*
G04 #@! TO.P,U4,46,PA13*
G04 #@! TO.N,SWDIO*
X61785000Y-62530000D03*
G04 #@! TO.P,U4,47,VSS*
G04 #@! TO.N,GND*
X61785000Y-62030000D03*
G04 #@! TO.P,U4,48,VDD*
G04 #@! TO.N,+3V3*
X61785000Y-61530000D03*
D39*
G04 #@! TO.P,U4,49,PA14*
G04 #@! TO.N,SWCLK*
X59860000Y-59605000D03*
G04 #@! TO.P,U4,50,PA15*
G04 #@! TO.N,unconnected-(U4-PA15-Pad50)*
X59360000Y-59605000D03*
G04 #@! TO.P,U4,51,PC10*
G04 #@! TO.N,unconnected-(U4-PC10-Pad51)*
X58860000Y-59605000D03*
G04 #@! TO.P,U4,52,PC11*
G04 #@! TO.N,unconnected-(U4-PC11-Pad52)*
X58360000Y-59605000D03*
G04 #@! TO.P,U4,53,PC12*
G04 #@! TO.N,unconnected-(U4-PC12-Pad53)*
X57860000Y-59605000D03*
G04 #@! TO.P,U4,54,PD2*
G04 #@! TO.N,unconnected-(U4-PD2-Pad54)*
X57360000Y-59605000D03*
G04 #@! TO.P,U4,55,PB3*
G04 #@! TO.N,SWO*
X56860000Y-59605000D03*
G04 #@! TO.P,U4,56,PB4*
G04 #@! TO.N,unconnected-(U4-PB4-Pad56)*
X56360000Y-59605000D03*
G04 #@! TO.P,U4,57,PB5*
G04 #@! TO.N,unconnected-(U4-PB5-Pad57)*
X55860000Y-59605000D03*
G04 #@! TO.P,U4,58,PB6*
G04 #@! TO.N,I2C1_SCL*
X55360000Y-59605000D03*
G04 #@! TO.P,U4,59,PB7*
G04 #@! TO.N,I2C1_SDA*
X54860000Y-59605000D03*
G04 #@! TO.P,U4,60,BOOT0*
G04 #@! TO.N,BOOT0*
X54360000Y-59605000D03*
G04 #@! TO.P,U4,61,PB8*
G04 #@! TO.N,unconnected-(U4-PB8-Pad61)*
X53860000Y-59605000D03*
G04 #@! TO.P,U4,62,PB9*
G04 #@! TO.N,unconnected-(U4-PB9-Pad62)*
X53360000Y-59605000D03*
G04 #@! TO.P,U4,63,VSS*
G04 #@! TO.N,GND*
X52860000Y-59605000D03*
G04 #@! TO.P,U4,64,VDD*
G04 #@! TO.N,+3V3*
X52360000Y-59605000D03*
G04 #@! TD*
D40*
G04 #@! TO.N,GND*
X66580000Y-82300000D03*
X65670000Y-82940000D03*
X64430000Y-83400000D03*
X52330000Y-73420000D03*
X65830000Y-57470000D03*
G04 #@! TO.N,+3V3*
X63370000Y-64590000D03*
X66820000Y-61580000D03*
G04 #@! TO.N,GND*
X67820000Y-70580000D03*
G04 #@! TO.N,T3C1*
X64750000Y-57310000D03*
X60180000Y-64310000D03*
G04 #@! TO.N,T3C2*
X63830000Y-57210000D03*
X59430000Y-65130000D03*
G04 #@! TO.N,T3C3*
X62850000Y-57340000D03*
X58550000Y-65940000D03*
G04 #@! TO.N,T3C4*
X61860000Y-57400000D03*
X51705332Y-66180553D03*
G04 #@! TO.N,+3V3*
X46810000Y-58120000D03*
X51330000Y-59000000D03*
X44430000Y-58970000D03*
X46380000Y-67370000D03*
G04 #@! TO.N,NRST*
X49860000Y-74580000D03*
X48530000Y-74560000D03*
G04 #@! TO.N,GND*
X47650000Y-74950000D03*
G04 #@! TO.N,+3V3*
X44600000Y-77390000D03*
X48820000Y-81640000D03*
G04 #@! TO.N,SWDIO*
X54214265Y-69264265D03*
X46950000Y-74230000D03*
G04 #@! TO.N,SWCLK*
X53000000Y-69630000D03*
X46750000Y-73220000D03*
G04 #@! TO.N,GND*
X43600000Y-72070000D03*
G04 #@! TO.N,NRST*
X52310000Y-65220000D03*
X49810000Y-70540000D03*
G04 #@! TO.N,SWO*
X55140000Y-63670000D03*
X53760000Y-65590000D03*
G04 #@! TO.N,UART2_RX*
X45679235Y-68169254D03*
X50450000Y-72020000D03*
G04 #@! TO.N,I2C1_SDA*
X53000000Y-61230000D03*
X54960000Y-61230000D03*
G04 #@! TO.N,+3V3*
X59470000Y-69450000D03*
X57770000Y-75440000D03*
G04 #@! TO.N,GND*
X49190000Y-58890000D03*
X53490000Y-56960000D03*
X53060000Y-57410000D03*
X65680000Y-62520000D03*
X65415000Y-68385000D03*
X61520000Y-74130000D03*
X62560000Y-71220000D03*
X61040000Y-72820000D03*
X54670000Y-82580000D03*
X53690000Y-82560000D03*
G04 #@! TO.N,INT1*
X55460000Y-77350000D03*
X52400000Y-77490000D03*
G04 #@! TO.N,CS*
X53755735Y-73705735D03*
X54860000Y-76230000D03*
G04 #@! TO.N,SCLK*
X53680000Y-74630000D03*
X54240000Y-76735568D03*
G04 #@! TO.N,GND*
X47900000Y-65420000D03*
X44150000Y-65800000D03*
X46750000Y-60430000D03*
G04 #@! TO.N,I2C1_SCL*
X54860000Y-56040000D03*
X52080000Y-57050000D03*
G04 #@! TD*
D41*
G04 #@! TO.N,VBUS*
X68890000Y-69770000D02*
X66575000Y-69770000D01*
X66575000Y-69770000D02*
X63575000Y-72770000D01*
D42*
X63320000Y-74130000D02*
X63320000Y-73025000D01*
X63320000Y-73025000D02*
X63575000Y-72770000D01*
X63320000Y-74130000D02*
X63320000Y-74832500D01*
X63320000Y-74832500D02*
X64680000Y-76192500D01*
G04 #@! TO.N,+3V3*
X58380000Y-78492500D02*
X64680000Y-78492500D01*
D43*
X61540000Y-82610000D02*
X61540000Y-83485000D01*
X61540000Y-83485000D02*
X61175000Y-83850000D01*
D44*
X58380000Y-78492500D02*
X61540000Y-81652500D01*
X61540000Y-81652500D02*
X61540000Y-82610000D01*
D45*
G04 #@! TO.N,GND*
X69465000Y-71690000D02*
X73645000Y-71690000D01*
X68890000Y-70570000D02*
X68890000Y-71115000D01*
X68890000Y-71115000D02*
X69465000Y-71690000D01*
D46*
X73645000Y-63050000D02*
X69465000Y-63050000D01*
D43*
X68890000Y-64170000D02*
X68890000Y-63625000D01*
X68890000Y-63625000D02*
X69465000Y-63050000D01*
G04 #@! TO.N,+3V3*
X60820000Y-55330000D02*
X60820000Y-57770000D01*
X60820000Y-57770000D02*
X62570000Y-59520000D01*
X62570000Y-59520000D02*
X63780000Y-59520000D01*
X53280000Y-72540000D02*
X53030000Y-72790000D01*
X53030000Y-75565090D02*
X51451000Y-77144090D01*
X53030000Y-72790000D02*
X53030000Y-75565090D01*
X51451000Y-77144090D02*
X51451000Y-80789000D01*
X51451000Y-80789000D02*
X50620000Y-81620000D01*
G04 #@! TO.N,GND*
X52320000Y-73410000D02*
X52330000Y-73420000D01*
X52320000Y-72540000D02*
X52320000Y-73410000D01*
X65820000Y-57460000D02*
X65830000Y-57470000D01*
X65820000Y-55330000D02*
X65820000Y-57460000D01*
G04 #@! TO.N,+3V3*
X64630000Y-60965000D02*
X66205000Y-60965000D01*
X66205000Y-60965000D02*
X66820000Y-61580000D01*
X63370000Y-68824534D02*
X63370000Y-64590000D01*
X60760000Y-71220000D02*
X60760000Y-70910001D01*
X60760000Y-70910001D02*
X62139001Y-69531000D01*
X62139001Y-69531000D02*
X62663534Y-69531000D01*
X62663534Y-69531000D02*
X63370000Y-68824534D01*
D46*
X63780000Y-59520000D02*
X63780000Y-59530000D01*
D43*
X63780000Y-59530000D02*
X64630000Y-60380000D01*
X64630000Y-60380000D02*
X64630000Y-60965000D01*
D46*
G04 #@! TO.N,GND*
X67830000Y-70570000D02*
X67820000Y-70580000D01*
D45*
X68890000Y-70570000D02*
X67830000Y-70570000D01*
D46*
G04 #@! TO.N,T3C1*
X64820000Y-55330000D02*
X64820000Y-57240000D01*
X64820000Y-57240000D02*
X64750000Y-57310000D01*
X61785000Y-67030000D02*
X60900000Y-67030000D01*
X60900000Y-67030000D02*
X60180000Y-66310000D01*
X60180000Y-66310000D02*
X60180000Y-64310000D01*
G04 #@! TO.N,T3C2*
X59430000Y-65909943D02*
X59430000Y-65130000D01*
X56360000Y-68979943D02*
X59430000Y-65909943D01*
X56360000Y-70955000D02*
X56360000Y-68979943D01*
X63830000Y-57210000D02*
X63830000Y-55340000D01*
X63830000Y-55340000D02*
X63820000Y-55330000D01*
G04 #@! TO.N,T3C3*
X62850000Y-57340000D02*
X62850000Y-57110000D01*
X62850000Y-57110000D02*
X62820000Y-57080000D01*
X62820000Y-57080000D02*
X62820000Y-55330000D01*
X55860000Y-68630000D02*
X58550000Y-65940000D01*
X55860000Y-70955000D02*
X55860000Y-68630000D01*
G04 #@! TO.N,T3C4*
X50435000Y-66530000D02*
X51355885Y-66530000D01*
X51355885Y-66530000D02*
X51705332Y-66180553D01*
X61860000Y-57400000D02*
X61820000Y-57360000D01*
X61820000Y-57360000D02*
X61820000Y-55330000D01*
D43*
G04 #@! TO.N,+3V3*
X46810000Y-58120000D02*
X46810000Y-58640000D01*
X50950000Y-58070000D02*
X50950000Y-58620000D01*
X50950000Y-58620000D02*
X51330000Y-59000000D01*
X46810000Y-58640000D02*
X46820000Y-58650000D01*
X44430000Y-58970000D02*
X44750000Y-58650000D01*
X44750000Y-58650000D02*
X46820000Y-58650000D01*
X46820000Y-58650000D02*
X48010000Y-59840000D01*
X48980000Y-57110000D02*
X48010000Y-58080000D01*
X48010000Y-58080000D02*
X48010000Y-59840000D01*
X47560000Y-68045000D02*
X47055000Y-68045000D01*
X47055000Y-68045000D02*
X46380000Y-67370000D01*
D46*
X64680000Y-78492500D02*
X68692500Y-78492500D01*
X68692500Y-78492500D02*
X68900000Y-78700000D01*
X53640000Y-80650000D02*
X53640000Y-80880000D01*
X53640000Y-80880000D02*
X52730000Y-81790000D01*
X55402500Y-80387500D02*
X55402500Y-81542500D01*
X55402500Y-81542500D02*
X55640000Y-81780000D01*
G04 #@! TO.N,NRST*
X50650000Y-76900000D02*
X50650000Y-75370000D01*
X50650000Y-75370000D02*
X49860000Y-74580000D01*
X46250000Y-70600000D02*
X46920000Y-70600000D01*
X46250000Y-70600000D02*
X48530000Y-72880000D01*
X48530000Y-72880000D02*
X48530000Y-74560000D01*
G04 #@! TO.N,BOOT0*
X47220000Y-81620000D02*
X49179830Y-79660170D01*
X49179830Y-79660170D02*
X49149000Y-79629340D01*
X49149000Y-79629340D02*
X49149000Y-78890660D01*
X49240000Y-72330000D02*
X54360000Y-67210000D01*
X54360000Y-67210000D02*
X54360000Y-59605000D01*
X49149000Y-78890660D02*
X49240000Y-78799660D01*
X49240000Y-78799660D02*
X49240000Y-72330000D01*
G04 #@! TO.N,NRST*
X46920000Y-70600000D02*
X49750000Y-70600000D01*
D43*
G04 #@! TO.N,GND*
X47250000Y-75350000D02*
X47650000Y-74950000D01*
X47250000Y-76900000D02*
X47250000Y-75350000D01*
D44*
G04 #@! TO.N,+3V3*
X42020000Y-76600000D02*
X43810000Y-76600000D01*
X43810000Y-76600000D02*
X44600000Y-77390000D01*
X50620000Y-81620000D02*
X48840000Y-81620000D01*
D43*
X48840000Y-81620000D02*
X48820000Y-81640000D01*
D46*
G04 #@! TO.N,SWDIO*
X54214265Y-69264265D02*
X60948530Y-62530000D01*
X60948530Y-62530000D02*
X61785000Y-62530000D01*
X42020000Y-75100000D02*
X46080000Y-75100000D01*
X46080000Y-75100000D02*
X46950000Y-74230000D01*
G04 #@! TO.N,SWCLK*
X59860000Y-59605000D02*
X59860000Y-62770000D01*
X59860000Y-62770000D02*
X53000000Y-69630000D01*
X46370000Y-73600000D02*
X46750000Y-73220000D01*
X42020000Y-73600000D02*
X46370000Y-73600000D01*
D43*
G04 #@! TO.N,GND*
X43570000Y-72100000D02*
X43600000Y-72070000D01*
X42020000Y-72100000D02*
X43570000Y-72100000D01*
D46*
G04 #@! TO.N,NRST*
X52310000Y-65220000D02*
X51620000Y-64530000D01*
X51620000Y-64530000D02*
X50435000Y-64530000D01*
X42020000Y-70600000D02*
X46250000Y-70600000D01*
X49750000Y-70600000D02*
X49810000Y-70540000D01*
G04 #@! TO.N,SWO*
X53810000Y-65780000D02*
X53810000Y-67192900D01*
X53760000Y-65590000D02*
X53760000Y-65730000D01*
X53760000Y-65730000D02*
X53810000Y-65780000D01*
X53810000Y-67192900D02*
X51471900Y-69531000D01*
X51471900Y-69531000D02*
X42451000Y-69531000D01*
X56860000Y-59605000D02*
X56860000Y-61950000D01*
X56860000Y-61950000D02*
X55140000Y-63670000D01*
D43*
X42020000Y-69100000D02*
X42451000Y-69531000D01*
G04 #@! TO.N,UART2_RX*
X45041754Y-68169254D02*
X45679235Y-68169254D01*
X42972500Y-66100000D02*
X45041754Y-68169254D01*
X51295000Y-72020000D02*
X52360000Y-70955000D01*
X42020000Y-66100000D02*
X42972500Y-66100000D01*
X50450000Y-72020000D02*
X51295000Y-72020000D01*
G04 #@! TO.N,UART2_TX*
X42020000Y-67600000D02*
X42972500Y-67600000D01*
X42972500Y-67600000D02*
X44402500Y-69030000D01*
X44402500Y-69030000D02*
X50435000Y-69030000D01*
G04 #@! TO.N,+3V3*
X53360000Y-70955000D02*
X53360000Y-72460000D01*
X53360000Y-72460000D02*
X53280000Y-72540000D01*
G04 #@! TO.N,GND*
X52860000Y-70955000D02*
X52860000Y-71840000D01*
X52860000Y-71840000D02*
X52320000Y-72380000D01*
X52320000Y-72380000D02*
X52320000Y-72540000D01*
G04 #@! TO.N,I2C1_SDA*
X54860000Y-60484534D02*
X54860000Y-61130000D01*
X54860000Y-61130000D02*
X54960000Y-61230000D01*
X53000000Y-61230000D02*
X52605466Y-61230000D01*
X52605466Y-61230000D02*
X50000000Y-58624534D01*
X50000000Y-58624534D02*
X50000000Y-57110000D01*
G04 #@! TO.N,+3V3*
X59860000Y-70955000D02*
X59860000Y-69840000D01*
X59860000Y-69840000D02*
X59470000Y-69450000D01*
X58380000Y-76050000D02*
X58380000Y-78492500D01*
X57770000Y-75440000D02*
X58380000Y-76050000D01*
G04 #@! TO.N,GND*
X49900000Y-59600000D02*
X49190000Y-58890000D01*
G04 #@! TO.N,+3V3*
X49900000Y-60560000D02*
X49900000Y-60995000D01*
X49900000Y-60995000D02*
X50435000Y-61530000D01*
D46*
X48010000Y-59840000D02*
X49180000Y-59840000D01*
X49180000Y-59840000D02*
X49900000Y-60560000D01*
G04 #@! TO.N,Net-(D1-A)*
X47980000Y-61880000D02*
X47980000Y-60890000D01*
X47980000Y-60890000D02*
X48010000Y-60860000D01*
G04 #@! TO.N,/USR_LED*
X50435000Y-62030000D02*
X49100000Y-62030000D01*
X49100000Y-62030000D02*
X48950000Y-61880000D01*
D43*
G04 #@! TO.N,GND*
X54360000Y-56990000D02*
X53520000Y-56990000D01*
X53520000Y-56990000D02*
X53490000Y-56960000D01*
X53490000Y-56810000D02*
X53490000Y-56960000D01*
X53060000Y-56380000D02*
X53490000Y-56810000D01*
X53060000Y-57410000D02*
X53060000Y-57990000D01*
X53060000Y-56380000D02*
X51970000Y-55290000D01*
X53060000Y-57990000D02*
X53070000Y-58000000D01*
X65675000Y-62515000D02*
X65680000Y-62520000D01*
X64630000Y-62515000D02*
X65675000Y-62515000D01*
G04 #@! TO.N,+3V3*
X64630000Y-60965000D02*
X63675000Y-60965000D01*
X63675000Y-60965000D02*
X63330000Y-61310000D01*
X61785000Y-61530000D02*
X63110000Y-61530000D01*
X63110000Y-61530000D02*
X63330000Y-61310000D01*
G04 #@! TO.N,GND*
X64630000Y-62515000D02*
X63575000Y-62515000D01*
X63575000Y-62515000D02*
X63330000Y-62270000D01*
X61785000Y-62030000D02*
X63090000Y-62030000D01*
X63090000Y-62030000D02*
X63330000Y-62270000D01*
D46*
G04 #@! TO.N,USB_D-*
X68890000Y-68120000D02*
X68281176Y-68120000D01*
X68281176Y-68120000D02*
X68014000Y-67852824D01*
X68014000Y-67852824D02*
X68014000Y-67387176D01*
X68014000Y-67387176D02*
X68281176Y-67120000D01*
X68281176Y-67120000D02*
X68890000Y-67120000D01*
D43*
G04 #@! TO.N,GND*
X65415000Y-68385000D02*
X65070000Y-68040000D01*
X66270000Y-68630000D02*
X65660000Y-68630000D01*
X65660000Y-68630000D02*
X65415000Y-68385000D01*
X65070000Y-68040000D02*
X65070000Y-67320000D01*
G04 #@! TO.N,Net-(J1-CC1)*
X68890000Y-68620000D02*
X67300000Y-68620000D01*
X67300000Y-68620000D02*
X67290000Y-68630000D01*
G04 #@! TO.N,GND*
X67240000Y-64600000D02*
X67670000Y-64170000D01*
X67670000Y-64170000D02*
X68890000Y-64170000D01*
G04 #@! TO.N,Net-(J1-CC2)*
X68890000Y-65620000D02*
X67240000Y-65620000D01*
G04 #@! TO.N,GND*
X62360000Y-74130000D02*
X61520000Y-74130000D01*
X61720000Y-71220000D02*
X62560000Y-71220000D01*
X62025000Y-72770000D02*
X61090000Y-72770000D01*
X61090000Y-72770000D02*
X61040000Y-72820000D01*
X61020000Y-72840000D02*
X61040000Y-72820000D01*
X60065000Y-72840000D02*
X61020000Y-72840000D01*
G04 #@! TO.N,+3V3*
X60760000Y-71220000D02*
X60125000Y-71220000D01*
X60125000Y-71220000D02*
X59860000Y-70955000D01*
G04 #@! TO.N,Net-(U4-VCAP1)*
X58860000Y-70955000D02*
X58860000Y-72495000D01*
X58860000Y-72495000D02*
X58515000Y-72840000D01*
G04 #@! TO.N,GND*
X59360000Y-70955000D02*
X59360000Y-72135000D01*
X59360000Y-72135000D02*
X60065000Y-72840000D01*
D45*
G04 #@! TO.N,+3V3*
X58380000Y-78492500D02*
X58380000Y-81180000D01*
X58380000Y-81180000D02*
X57780000Y-81780000D01*
X57780000Y-81780000D02*
X55640000Y-81780000D01*
X52730000Y-81790000D02*
X52730000Y-83470000D01*
X52730000Y-83470000D02*
X53060000Y-83800000D01*
X53060000Y-83800000D02*
X55260000Y-83800000D01*
X55260000Y-83800000D02*
X55640000Y-83420000D01*
X55640000Y-83420000D02*
X55640000Y-81780000D01*
D43*
G04 #@! TO.N,GND*
X54680000Y-82650000D02*
X54670000Y-82660000D01*
X54680000Y-81780000D02*
X54680000Y-82650000D01*
X53690000Y-81790000D02*
X53690000Y-82560000D01*
X54140000Y-80650000D02*
X54140000Y-81340000D01*
X54140000Y-81340000D02*
X53690000Y-81790000D01*
X54640000Y-80650000D02*
X54640000Y-81740000D01*
X54640000Y-81740000D02*
X54680000Y-81780000D01*
X53690000Y-81790000D02*
X54670000Y-81790000D01*
X54670000Y-81790000D02*
X54680000Y-81780000D01*
G04 #@! TO.N,+3V3*
X49720000Y-79260000D02*
X49720000Y-80720000D01*
X49720000Y-80720000D02*
X50620000Y-81620000D01*
G04 #@! TO.N,NRST*
X50740000Y-79260000D02*
X50740000Y-76990000D01*
X50740000Y-76990000D02*
X50650000Y-76900000D01*
D45*
G04 #@! TO.N,+3V3*
X52730000Y-81790000D02*
X50790000Y-81790000D01*
D43*
X50790000Y-81790000D02*
X50620000Y-81620000D01*
D46*
G04 #@! TO.N,INT2*
X55402500Y-79887500D02*
X55812500Y-79887500D01*
X55812500Y-79887500D02*
X56200000Y-79500000D01*
X56200000Y-79500000D02*
X56200000Y-77231000D01*
X56200000Y-77231000D02*
X56641000Y-76790000D01*
X56641000Y-76790000D02*
X56641000Y-73256100D01*
X56641000Y-73256100D02*
X57360000Y-72537100D01*
X57360000Y-72537100D02*
X57360000Y-70955000D01*
G04 #@! TO.N,INT1*
X56860000Y-70955000D02*
X56860000Y-72470000D01*
X56860000Y-72470000D02*
X56240000Y-73090000D01*
X56240000Y-73090000D02*
X56240000Y-76570000D01*
X56240000Y-76570000D02*
X55460000Y-77350000D01*
X52330000Y-77490000D02*
X52400000Y-77490000D01*
X51960000Y-77860000D02*
X52330000Y-77490000D01*
X52239000Y-80309000D02*
X51960000Y-80030000D01*
X52239000Y-80313500D02*
X52239000Y-80309000D01*
X51960000Y-80030000D02*
X51960000Y-77860000D01*
G04 #@! TO.N,SCLK*
X54240000Y-76735568D02*
X54240000Y-77180000D01*
X54240000Y-77180000D02*
X54140000Y-77280000D01*
X54140000Y-77280000D02*
X54140000Y-78625000D01*
G04 #@! TO.N,INT1*
X52313000Y-80387500D02*
X52239000Y-80313500D01*
X52877500Y-80387500D02*
X52313000Y-80387500D01*
G04 #@! TO.N,CS*
X53860000Y-70955000D02*
X53860000Y-73601470D01*
X53860000Y-73601470D02*
X53755735Y-73705735D01*
X54640000Y-78625000D02*
X54860000Y-78405000D01*
X54860000Y-78405000D02*
X54860000Y-76230000D01*
G04 #@! TO.N,SCLK*
X53680000Y-74630000D02*
X54360000Y-73950000D01*
X54360000Y-73950000D02*
X54360000Y-70955000D01*
G04 #@! TO.N,MISO*
X54860000Y-70955000D02*
X54860000Y-74372900D01*
X54860000Y-74372900D02*
X53170000Y-76062900D01*
X53170000Y-76062900D02*
X53170000Y-78595000D01*
X53170000Y-78595000D02*
X52877500Y-78887500D01*
G04 #@! TO.N,MOSI*
X53640000Y-78625000D02*
X53640000Y-76160000D01*
X53640000Y-76160000D02*
X55360000Y-74440000D01*
X55360000Y-74440000D02*
X55360000Y-70955000D01*
D43*
G04 #@! TO.N,GND*
X47560000Y-65760000D02*
X47900000Y-65420000D01*
X47560000Y-66495000D02*
X47560000Y-65760000D01*
G04 #@! TO.N,+3V3*
X50435000Y-67530000D02*
X49090000Y-67530000D01*
X49090000Y-67530000D02*
X48830000Y-67790000D01*
X47560000Y-68045000D02*
X48575000Y-68045000D01*
X48575000Y-68045000D02*
X48830000Y-67790000D01*
G04 #@! TO.N,GND*
X47560000Y-66495000D02*
X48495000Y-66495000D01*
X48495000Y-66495000D02*
X48830000Y-66830000D01*
X50435000Y-67030000D02*
X49030000Y-67030000D01*
X49030000Y-67030000D02*
X48830000Y-66830000D01*
X44930000Y-65800000D02*
X44150000Y-65800000D01*
X44730000Y-64180000D02*
X44730000Y-65600000D01*
X44730000Y-65600000D02*
X44930000Y-65800000D01*
G04 #@! TO.N,/HSE_OUT*
X46430000Y-64180000D02*
X46430000Y-65260000D01*
X46430000Y-65260000D02*
X45890000Y-65800000D01*
G04 #@! TO.N,/HSE_IN*
X44730000Y-61980000D02*
X44730000Y-60760000D01*
X44730000Y-60760000D02*
X45060000Y-60430000D01*
G04 #@! TO.N,GND*
X46020000Y-60430000D02*
X46750000Y-60430000D01*
X46020000Y-60430000D02*
X46020000Y-61570000D01*
X46020000Y-61570000D02*
X46430000Y-61980000D01*
G04 #@! TO.N,/HSE_IN*
X44730000Y-61980000D02*
X44730000Y-62282000D01*
X45577000Y-63129000D02*
X47929000Y-63129000D01*
X44730000Y-62282000D02*
X45577000Y-63129000D01*
X47929000Y-63129000D02*
X48330000Y-63530000D01*
X48330000Y-63530000D02*
X50435000Y-63530000D01*
G04 #@! TO.N,/HSE_OUT*
X50435000Y-64030000D02*
X49340000Y-64030000D01*
X49340000Y-64030000D02*
X49190000Y-64180000D01*
X49190000Y-64180000D02*
X46430000Y-64180000D01*
G04 #@! TO.N,I2C1_SCL*
X55360000Y-59605000D02*
X55360000Y-56540000D01*
X55360000Y-56540000D02*
X54860000Y-56040000D01*
X50950000Y-57050000D02*
X52080000Y-57050000D01*
G04 #@! TO.N,+3V3*
X50950000Y-58070000D02*
X52040000Y-58070000D01*
X52040000Y-58070000D02*
X52110000Y-58000000D01*
G04 #@! TO.N,I2C1_SCL*
X50970000Y-55290000D02*
X50970000Y-57030000D01*
X50970000Y-57030000D02*
X50950000Y-57050000D01*
G04 #@! TO.N,I2C1_SDA*
X54860000Y-60484534D02*
X54860000Y-59605000D01*
X49970000Y-55290000D02*
X49970000Y-57080000D01*
X49970000Y-57080000D02*
X50000000Y-57110000D01*
G04 #@! TO.N,+3V3*
X48970000Y-55290000D02*
X48970000Y-57100000D01*
X48970000Y-57100000D02*
X48980000Y-57110000D01*
X52360000Y-59605000D02*
X52360000Y-58250000D01*
X52360000Y-58250000D02*
X52110000Y-58000000D01*
G04 #@! TO.N,GND*
X52860000Y-58210000D02*
X53070000Y-58000000D01*
X52860000Y-59605000D02*
X52860000Y-58210000D01*
D46*
G04 #@! TO.N,BOOT0*
X54360000Y-59605000D02*
X54360000Y-58010000D01*
G04 #@! TO.N,USB_D+*
X65720000Y-65320000D02*
X65720000Y-65983603D01*
X65720000Y-65983603D02*
X66381397Y-66645000D01*
G04 #@! TO.N,USB_D-*
X64420000Y-65320000D02*
X66195000Y-67095000D01*
G04 #@! TO.N,USB_D+*
X66381397Y-66645000D02*
X68002499Y-66645000D01*
X68002499Y-66645000D02*
X68027499Y-66620000D01*
X68027499Y-66620000D02*
X68890000Y-66620000D01*
G04 #@! TO.N,USB_D-*
X68002499Y-67095000D02*
X68027499Y-67120000D01*
X66195000Y-67095000D02*
X68002499Y-67095000D01*
X68027499Y-67120000D02*
X68890000Y-67120000D01*
X61785000Y-63530000D02*
X62947501Y-63530000D01*
X64420000Y-64656397D02*
X64420000Y-65320000D01*
X62972501Y-63505000D02*
X63268603Y-63505000D01*
X62947501Y-63530000D02*
X62972501Y-63505000D01*
X63268603Y-63505000D02*
X64420000Y-64656397D01*
G04 #@! TO.N,USB_D+*
X61785000Y-63030000D02*
X62947501Y-63030000D01*
X62947501Y-63030000D02*
X62972501Y-63055000D01*
X62972501Y-63055000D02*
X63455000Y-63055000D01*
X63455000Y-63055000D02*
X65720000Y-65320000D01*
G04 #@! TO.N,USB_D-*
X62410000Y-63530000D02*
X62435000Y-63505000D01*
G04 #@! TO.N,USB_D+*
X62410000Y-63030000D02*
X62435000Y-63055000D01*
D43*
G04 #@! TO.N,Net-(D2-A)*
X68900000Y-80250000D02*
X68900000Y-79720000D01*
X68360000Y-80790000D02*
X68900000Y-80250000D01*
X67762500Y-80790000D02*
X68360000Y-80790000D01*
D46*
G04 #@! TO.N,USB_D+*
X68890000Y-67620000D02*
X69498824Y-67620000D01*
X69766000Y-67352824D02*
X69766000Y-66887176D01*
X69498824Y-67620000D02*
X69766000Y-67352824D01*
X69766000Y-66887176D02*
X69498824Y-66620000D01*
D43*
G04 #@! TO.N,VBUS*
X68890000Y-64970000D02*
X69428281Y-64970000D01*
X70217000Y-68981281D02*
X69428281Y-69770000D01*
X70217000Y-65758719D02*
X70217000Y-68981281D01*
D46*
G04 #@! TO.N,USB_D+*
X69498824Y-66620000D02*
X68890000Y-66620000D01*
D43*
G04 #@! TO.N,VBUS*
X69428281Y-64970000D02*
X70217000Y-65758719D01*
X69428281Y-69770000D02*
X68890000Y-69770000D01*
G04 #@! TD*
G04 #@! TA.AperFunction,Conductor*
G04 #@! TO.N,GND*
G36*
X74140931Y-50480948D02*
G01*
X74143588Y-50480686D01*
X74157105Y-50481287D01*
X74169897Y-50484715D01*
X74234112Y-50484714D01*
X74236876Y-50484837D01*
X74240207Y-50485029D01*
X74440350Y-50499342D01*
X74457853Y-50501859D01*
X74649585Y-50543567D01*
X74666550Y-50548548D01*
X74850407Y-50617123D01*
X74866479Y-50624463D01*
X75038706Y-50718505D01*
X75053575Y-50728061D01*
X75210654Y-50845648D01*
X75224025Y-50857234D01*
X75362765Y-50995974D01*
X75374351Y-51009345D01*
X75491933Y-51166417D01*
X75501496Y-51181297D01*
X75510122Y-51197095D01*
X75595531Y-51353509D01*
X75602879Y-51369599D01*
X75608769Y-51385390D01*
X75671449Y-51553444D01*
X75676433Y-51570419D01*
X75718139Y-51762141D01*
X75720657Y-51779654D01*
X75734969Y-51979790D01*
X75735285Y-51988635D01*
X75735285Y-52057916D01*
X75735309Y-52058293D01*
X75745282Y-82965971D01*
X75744966Y-82974857D01*
X75730655Y-83174955D01*
X75728137Y-83192467D01*
X75686430Y-83384189D01*
X75681446Y-83401164D01*
X75612879Y-83585000D01*
X75605529Y-83601095D01*
X75511494Y-83773304D01*
X75501929Y-83788186D01*
X75384347Y-83945257D01*
X75372761Y-83958629D01*
X75234017Y-84097372D01*
X75220646Y-84108957D01*
X75063575Y-84226538D01*
X75048696Y-84236100D01*
X74895521Y-84319740D01*
X74876489Y-84330132D01*
X74860396Y-84337481D01*
X74676552Y-84406050D01*
X74659577Y-84411034D01*
X74467858Y-84452739D01*
X74450345Y-84455257D01*
X74250018Y-84469583D01*
X74241133Y-84469899D01*
X61893415Y-84465916D01*
X61826382Y-84446210D01*
X61780644Y-84393391D01*
X61770723Y-84324229D01*
X61782969Y-84285624D01*
X61809719Y-84233126D01*
X61809921Y-84231852D01*
X61825500Y-84133493D01*
X61825500Y-83724725D01*
X61842113Y-83662724D01*
X61866614Y-83620288D01*
X61878859Y-83574588D01*
X61890500Y-83531144D01*
X61890500Y-83102402D01*
X61910185Y-83035363D01*
X61926819Y-83014721D01*
X61963224Y-82978316D01*
X62013972Y-82869487D01*
X62020500Y-82819901D01*
X62020499Y-82400100D01*
X62013972Y-82350513D01*
X62013969Y-82350506D01*
X62013969Y-82350505D01*
X62002118Y-82325090D01*
X61990500Y-82272686D01*
X61990500Y-81593193D01*
X61990500Y-81593191D01*
X61959799Y-81478614D01*
X61959799Y-81478613D01*
X61959799Y-81478612D01*
X61900492Y-81375889D01*
X61900488Y-81375884D01*
X60900259Y-80375655D01*
X59879283Y-79354680D01*
X59845799Y-79293358D01*
X59850783Y-79223666D01*
X59892655Y-79167733D01*
X59958119Y-79143316D01*
X59966965Y-79143000D01*
X63479847Y-79143000D01*
X63546886Y-79162685D01*
X63578222Y-79191513D01*
X63644549Y-79277951D01*
X63764767Y-79370198D01*
X63904764Y-79428187D01*
X64017280Y-79443000D01*
X64017287Y-79443000D01*
X65342713Y-79443000D01*
X65342720Y-79443000D01*
X65455236Y-79428187D01*
X65595233Y-79370198D01*
X65715451Y-79277951D01*
X65807698Y-79157733D01*
X65865687Y-79017736D01*
X65880500Y-78905220D01*
X65881030Y-78901195D01*
X65882981Y-78901451D01*
X65904292Y-78843274D01*
X65959978Y-78801075D01*
X66003994Y-78793000D01*
X68260049Y-78793000D01*
X68327088Y-78812685D01*
X68372843Y-78865489D01*
X68382988Y-78900814D01*
X68385931Y-78923171D01*
X68435935Y-79030404D01*
X68527267Y-79121736D01*
X68524443Y-79124559D01*
X68555183Y-79163042D01*
X68562352Y-79232542D01*
X68530808Y-79294886D01*
X68527101Y-79298098D01*
X68527267Y-79298264D01*
X68435935Y-79389595D01*
X68385931Y-79496828D01*
X68379500Y-79545683D01*
X68379500Y-79894316D01*
X68385931Y-79943171D01*
X68385932Y-79943173D01*
X68435935Y-80050404D01*
X68435936Y-80050405D01*
X68441480Y-80058324D01*
X68443829Y-80060082D01*
X68453065Y-80084844D01*
X68465728Y-80108035D01*
X68465082Y-80117063D01*
X68468246Y-80125546D01*
X68462629Y-80151365D01*
X68460744Y-80177727D01*
X68454924Y-80186781D01*
X68453394Y-80193819D01*
X68432244Y-80222074D01*
X68307162Y-80347155D01*
X68245842Y-80380639D01*
X68176150Y-80375655D01*
X68131802Y-80347154D01*
X68115013Y-80330365D01*
X68010671Y-80279355D01*
X68001006Y-80277947D01*
X67943028Y-80269500D01*
X67581972Y-80269500D01*
X67531240Y-80276891D01*
X67514328Y-80279355D01*
X67409986Y-80330365D01*
X67327865Y-80412486D01*
X67276855Y-80516828D01*
X67276855Y-80516830D01*
X67267000Y-80584472D01*
X67267000Y-80995528D01*
X67271991Y-81029784D01*
X67276855Y-81063171D01*
X67327865Y-81167513D01*
X67409986Y-81249634D01*
X67409987Y-81249634D01*
X67409989Y-81249636D01*
X67514330Y-81300645D01*
X67581972Y-81310500D01*
X67581978Y-81310500D01*
X67943022Y-81310500D01*
X67943028Y-81310500D01*
X68010670Y-81300645D01*
X68115011Y-81249636D01*
X68143152Y-81221495D01*
X68187829Y-81176819D01*
X68249152Y-81143334D01*
X68275510Y-81140500D01*
X68406142Y-81140500D01*
X68406144Y-81140500D01*
X68495288Y-81116614D01*
X68497008Y-81115620D01*
X68497022Y-81115617D01*
X68497021Y-81115614D01*
X68575205Y-81070474D01*
X68575204Y-81070474D01*
X68575212Y-81070470D01*
X69180469Y-80465212D01*
X69226614Y-80385288D01*
X69236203Y-80349500D01*
X69250500Y-80296144D01*
X69250500Y-80208440D01*
X69251262Y-80201601D01*
X69262205Y-80175467D01*
X69270185Y-80148292D01*
X69277263Y-80139508D01*
X69278249Y-80137154D01*
X69280296Y-80135743D01*
X69286819Y-80127650D01*
X69323738Y-80090731D01*
X69364065Y-80050404D01*
X69414068Y-79943173D01*
X69420500Y-79894316D01*
X69420500Y-79545684D01*
X69414068Y-79496827D01*
X69364065Y-79389596D01*
X69280404Y-79305935D01*
X69272733Y-79298264D01*
X69275561Y-79295435D01*
X69244843Y-79257023D01*
X69237635Y-79187526D01*
X69269143Y-79125165D01*
X69272903Y-79121906D01*
X69272733Y-79121736D01*
X69303738Y-79090731D01*
X69364065Y-79030404D01*
X69414068Y-78923173D01*
X69420500Y-78874316D01*
X69420500Y-78525684D01*
X69414068Y-78476827D01*
X69364065Y-78369596D01*
X69280404Y-78285935D01*
X69173173Y-78235932D01*
X69173171Y-78235931D01*
X69173172Y-78235931D01*
X69124317Y-78229500D01*
X69124316Y-78229500D01*
X68871196Y-78229500D01*
X68816328Y-78214797D01*
X68816000Y-78215590D01*
X68809977Y-78213095D01*
X68809192Y-78212885D01*
X68808489Y-78212479D01*
X68732062Y-78192000D01*
X68732060Y-78192000D01*
X66003994Y-78192000D01*
X65936955Y-78172315D01*
X65891200Y-78119511D01*
X65882160Y-78083656D01*
X65881030Y-78083805D01*
X65873023Y-78022989D01*
X65865687Y-77967264D01*
X65807698Y-77827267D01*
X65715451Y-77707049D01*
X65595233Y-77614802D01*
X65595229Y-77614800D01*
X65500765Y-77575672D01*
X65455236Y-77556813D01*
X65441171Y-77554961D01*
X65342727Y-77542000D01*
X65342720Y-77542000D01*
X64017280Y-77542000D01*
X64017272Y-77542000D01*
X63904764Y-77556813D01*
X63904763Y-77556813D01*
X63764770Y-77614800D01*
X63764767Y-77614801D01*
X63764767Y-77614802D01*
X63644549Y-77707049D01*
X63644548Y-77707050D01*
X63644547Y-77707051D01*
X63578222Y-77793487D01*
X63521794Y-77834689D01*
X63479847Y-77842000D01*
X59704500Y-77842000D01*
X59637461Y-77822315D01*
X59591706Y-77769511D01*
X59580500Y-77718000D01*
X59580500Y-77035886D01*
X59579385Y-77023609D01*
X59574086Y-76965304D01*
X59523478Y-76802894D01*
X59435472Y-76657315D01*
X59435470Y-76657313D01*
X59435469Y-76657311D01*
X59315188Y-76537030D01*
X59169606Y-76449022D01*
X59158396Y-76445529D01*
X59007196Y-76398414D01*
X59007194Y-76398413D01*
X59007192Y-76398413D01*
X58957778Y-76393923D01*
X58936616Y-76392000D01*
X58936613Y-76392000D01*
X58854500Y-76392000D01*
X58787461Y-76372315D01*
X58741706Y-76319511D01*
X58730500Y-76268000D01*
X58730500Y-76003858D01*
X58730500Y-76003856D01*
X58706614Y-75914712D01*
X58705017Y-75911946D01*
X58660473Y-75834794D01*
X58660470Y-75834791D01*
X58660469Y-75834788D01*
X58595212Y-75769531D01*
X58306819Y-75481137D01*
X58273334Y-75419814D01*
X58270500Y-75393456D01*
X58270500Y-75374110D01*
X58270500Y-75374108D01*
X58236392Y-75246814D01*
X58170500Y-75132686D01*
X58077314Y-75039500D01*
X57995764Y-74992417D01*
X57963187Y-74973608D01*
X57899539Y-74956554D01*
X57835892Y-74939500D01*
X57704108Y-74939500D01*
X57576812Y-74973608D01*
X57462686Y-75039500D01*
X57462683Y-75039502D01*
X57369502Y-75132683D01*
X57369500Y-75132686D01*
X57303608Y-75246812D01*
X57293507Y-75284511D01*
X57269500Y-75374108D01*
X57269500Y-75505892D01*
X57275228Y-75527270D01*
X57303608Y-75633187D01*
X57323282Y-75667263D01*
X57369500Y-75747314D01*
X57462686Y-75840500D01*
X57576814Y-75906392D01*
X57704108Y-75940500D01*
X57723456Y-75940500D01*
X57790495Y-75960185D01*
X57811137Y-75976819D01*
X57993181Y-76158862D01*
X58007884Y-76185789D01*
X58024477Y-76211608D01*
X58025368Y-76217808D01*
X58026666Y-76220185D01*
X58029500Y-76246543D01*
X58029500Y-76268000D01*
X58009815Y-76335039D01*
X57957011Y-76380794D01*
X57905500Y-76392000D01*
X57823384Y-76392000D01*
X57804145Y-76393748D01*
X57752807Y-76398413D01*
X57590393Y-76449022D01*
X57444811Y-76537030D01*
X57324530Y-76657311D01*
X57236522Y-76802893D01*
X57232557Y-76815618D01*
X57185914Y-76965304D01*
X57180616Y-77023609D01*
X57179500Y-77035886D01*
X57179500Y-79949113D01*
X57185913Y-80019692D01*
X57185913Y-80019694D01*
X57185914Y-80019696D01*
X57236522Y-80182106D01*
X57305658Y-80296471D01*
X57324530Y-80327688D01*
X57444811Y-80447969D01*
X57444813Y-80447970D01*
X57444815Y-80447972D01*
X57590394Y-80535978D01*
X57752804Y-80586586D01*
X57823384Y-80593000D01*
X57855500Y-80593000D01*
X57864185Y-80595550D01*
X57873147Y-80594262D01*
X57897187Y-80605240D01*
X57922539Y-80612685D01*
X57928466Y-80619525D01*
X57936703Y-80623287D01*
X57950992Y-80645521D01*
X57968294Y-80665489D01*
X57970581Y-80676003D01*
X57974477Y-80682065D01*
X57979500Y-80717000D01*
X57979500Y-80962745D01*
X57959815Y-81029784D01*
X57943181Y-81050426D01*
X57650426Y-81343181D01*
X57589103Y-81376666D01*
X57562745Y-81379500D01*
X56082402Y-81379500D01*
X56015363Y-81359815D01*
X55994721Y-81343181D01*
X55978316Y-81326776D01*
X55922276Y-81300644D01*
X55869487Y-81276028D01*
X55869485Y-81276027D01*
X55869486Y-81276027D01*
X55819899Y-81269499D01*
X55818883Y-81269433D01*
X55818596Y-81269328D01*
X55815876Y-81268970D01*
X55815956Y-81268360D01*
X55753276Y-81245402D01*
X55711076Y-81189717D01*
X55703000Y-81145699D01*
X55703000Y-80826052D01*
X55722685Y-80759013D01*
X55775489Y-80713258D01*
X55802806Y-80704435D01*
X55818231Y-80701367D01*
X55884552Y-80657052D01*
X55928867Y-80590731D01*
X55928867Y-80590729D01*
X55928868Y-80590729D01*
X55940499Y-80532252D01*
X55940500Y-80532250D01*
X55940500Y-80236660D01*
X55942182Y-80236660D01*
X55953694Y-80175935D01*
X55992308Y-80135188D01*
X55990560Y-80132910D01*
X55997004Y-80127963D01*
X55997011Y-80127960D01*
X56052960Y-80072011D01*
X56440460Y-79684511D01*
X56480022Y-79615988D01*
X56500500Y-79539562D01*
X56500500Y-79460438D01*
X56500500Y-77406833D01*
X56520185Y-77339794D01*
X56536819Y-77319152D01*
X56881459Y-76974512D01*
X56886778Y-76965301D01*
X56898505Y-76944988D01*
X56921021Y-76905989D01*
X56941500Y-76829562D01*
X56941500Y-73431933D01*
X56961185Y-73364894D01*
X56977819Y-73344252D01*
X57288903Y-73033168D01*
X57600460Y-72721611D01*
X57633113Y-72665053D01*
X57683680Y-72616839D01*
X57752288Y-72603617D01*
X57817152Y-72629585D01*
X57857680Y-72686499D01*
X57864500Y-72727055D01*
X57864500Y-73123493D01*
X57880279Y-73223121D01*
X57880280Y-73223124D01*
X57880281Y-73223126D01*
X57919196Y-73299500D01*
X57941473Y-73343221D01*
X57941476Y-73343225D01*
X58036774Y-73438523D01*
X58036778Y-73438526D01*
X58036780Y-73438528D01*
X58156874Y-73499719D01*
X58156876Y-73499719D01*
X58156878Y-73499720D01*
X58256507Y-73515500D01*
X58256512Y-73515500D01*
X58773493Y-73515500D01*
X58873121Y-73499720D01*
X58873121Y-73499719D01*
X58873126Y-73499719D01*
X58993220Y-73438528D01*
X59088528Y-73343220D01*
X59149719Y-73223126D01*
X59149720Y-73223121D01*
X59165500Y-73123493D01*
X59165500Y-72700084D01*
X59173804Y-72655469D01*
X59177279Y-72646454D01*
X59186614Y-72630288D01*
X59191961Y-72610331D01*
X59210500Y-72541144D01*
X59210500Y-70908856D01*
X59210500Y-70894423D01*
X59210499Y-70894413D01*
X59210499Y-70227870D01*
X59210499Y-70227868D01*
X59194515Y-70147505D01*
X59171501Y-70113063D01*
X59163827Y-70088553D01*
X59152457Y-70065527D01*
X59153560Y-70055763D01*
X59150624Y-70046386D01*
X59157418Y-70021619D01*
X59160302Y-69996100D01*
X59166509Y-69988481D01*
X59169109Y-69979006D01*
X59188213Y-69961845D01*
X59204437Y-69941935D01*
X59213778Y-69938882D01*
X59221088Y-69932316D01*
X59246438Y-69928208D01*
X59270850Y-69920230D01*
X59285303Y-69921910D01*
X59290058Y-69921140D01*
X59305921Y-69924193D01*
X59306191Y-69924263D01*
X59404108Y-69950500D01*
X59406707Y-69950500D01*
X59416817Y-69953139D01*
X59440398Y-69967304D01*
X59465568Y-69978434D01*
X59469928Y-69985042D01*
X59476712Y-69989117D01*
X59488891Y-70013782D01*
X59504048Y-70036753D01*
X59505710Y-70047843D01*
X59507647Y-70051765D01*
X59507067Y-70056893D01*
X59509500Y-70073119D01*
X59509500Y-71682129D01*
X59525485Y-71762495D01*
X59586375Y-71853624D01*
X59616547Y-71873784D01*
X59677505Y-71914515D01*
X59677508Y-71914515D01*
X59677509Y-71914516D01*
X59704533Y-71919891D01*
X59757867Y-71930500D01*
X59962132Y-71930499D01*
X60042495Y-71914515D01*
X60133624Y-71853624D01*
X60194515Y-71762495D01*
X60201757Y-71726085D01*
X60234140Y-71664176D01*
X60294855Y-71629600D01*
X60364624Y-71633338D01*
X60411055Y-71662595D01*
X60421684Y-71673224D01*
X60530513Y-71723972D01*
X60580099Y-71730500D01*
X60939900Y-71730499D01*
X60989487Y-71723972D01*
X61098316Y-71673224D01*
X61183224Y-71588316D01*
X61233972Y-71479487D01*
X61240500Y-71429901D01*
X61240499Y-71010100D01*
X61238601Y-70995686D01*
X61249365Y-70926656D01*
X61273856Y-70891825D01*
X62247864Y-69917819D01*
X62309187Y-69884334D01*
X62335545Y-69881500D01*
X62709676Y-69881500D01*
X62709678Y-69881500D01*
X62798822Y-69857614D01*
X62811144Y-69850500D01*
X62878746Y-69811470D01*
X63650470Y-69039746D01*
X63696614Y-68959822D01*
X63720500Y-68870678D01*
X63720500Y-68778390D01*
X63720500Y-64998676D01*
X63740185Y-64931637D01*
X63743170Y-64927205D01*
X63749300Y-64918513D01*
X63770500Y-64897314D01*
X63798682Y-64848500D01*
X63801926Y-64843902D01*
X63825059Y-64825540D01*
X63846435Y-64805158D01*
X63852118Y-64804062D01*
X63856652Y-64800464D01*
X63886041Y-64797523D01*
X63915042Y-64791934D01*
X63920415Y-64794085D01*
X63926174Y-64793509D01*
X63952489Y-64806925D01*
X63979907Y-64817902D01*
X63983263Y-64822615D01*
X63988421Y-64825245D01*
X64003306Y-64850761D01*
X64020436Y-64874816D01*
X64020711Y-64880596D01*
X64023628Y-64885596D01*
X64022355Y-64915106D01*
X64023761Y-64944607D01*
X64020707Y-64953316D01*
X64020618Y-64955401D01*
X64018566Y-64959423D01*
X64015639Y-64967776D01*
X64000500Y-65000241D01*
X63994501Y-65045811D01*
X63994500Y-65045827D01*
X63994500Y-65594180D01*
X64000500Y-65639756D01*
X64000502Y-65639763D01*
X64027616Y-65697909D01*
X64047150Y-65739799D01*
X64125201Y-65817850D01*
X64225240Y-65864499D01*
X64270821Y-65870500D01*
X64494165Y-65870499D01*
X64561205Y-65890183D01*
X64581847Y-65906818D01*
X65954540Y-67279511D01*
X66010489Y-67335460D01*
X66010491Y-67335461D01*
X66010495Y-67335464D01*
X66063961Y-67366332D01*
X66079011Y-67375021D01*
X66155438Y-67395500D01*
X67589500Y-67395500D01*
X67656539Y-67415185D01*
X67702294Y-67467989D01*
X67713500Y-67519500D01*
X67713500Y-67892386D01*
X67733979Y-67968813D01*
X67734917Y-67970437D01*
X67735291Y-67971981D01*
X67737090Y-67976323D01*
X67736413Y-67976603D01*
X67751391Y-68038336D01*
X67728540Y-68104364D01*
X67673620Y-68147556D01*
X67604067Y-68154199D01*
X67575127Y-68144821D01*
X67513173Y-68115932D01*
X67513172Y-68115931D01*
X67464317Y-68109500D01*
X67464316Y-68109500D01*
X67115684Y-68109500D01*
X67115683Y-68109500D01*
X67066828Y-68115931D01*
X66959595Y-68165935D01*
X66875935Y-68249595D01*
X66825931Y-68356828D01*
X66819500Y-68405683D01*
X66819500Y-68854316D01*
X66825931Y-68903171D01*
X66875935Y-69010404D01*
X66923350Y-69057819D01*
X66956835Y-69119142D01*
X66951851Y-69188834D01*
X66909979Y-69244767D01*
X66844515Y-69269184D01*
X66835669Y-69269500D01*
X66509108Y-69269500D01*
X66381812Y-69303608D01*
X66267686Y-69369500D01*
X66267683Y-69369502D01*
X63579005Y-72058181D01*
X63517682Y-72091666D01*
X63491324Y-72094500D01*
X63316507Y-72094500D01*
X63216878Y-72110279D01*
X63096778Y-72171473D01*
X63096774Y-72171476D01*
X63001476Y-72266774D01*
X63001473Y-72266778D01*
X63001472Y-72266780D01*
X62948625Y-72370499D01*
X62940279Y-72386878D01*
X62928159Y-72463403D01*
X62898230Y-72526538D01*
X62893367Y-72531686D01*
X62814727Y-72610325D01*
X62814726Y-72610326D01*
X62786315Y-72652848D01*
X62757824Y-72695489D01*
X62747989Y-72710208D01*
X62747987Y-72710210D01*
X62743538Y-72716867D01*
X62743535Y-72716873D01*
X62694499Y-72835255D01*
X62694497Y-72835261D01*
X62669500Y-72960928D01*
X62669500Y-72960931D01*
X62669500Y-74065931D01*
X62669500Y-74896569D01*
X62686894Y-74984011D01*
X62694499Y-75022244D01*
X62743218Y-75139863D01*
X62743535Y-75140627D01*
X62814486Y-75246814D01*
X62814726Y-75247173D01*
X62814727Y-75247174D01*
X63443181Y-75875627D01*
X63476666Y-75936950D01*
X63479500Y-75963308D01*
X63479500Y-76605227D01*
X63494313Y-76717735D01*
X63494313Y-76717736D01*
X63548891Y-76849500D01*
X63552302Y-76857733D01*
X63644549Y-76977951D01*
X63764767Y-77070198D01*
X63904764Y-77128187D01*
X64017280Y-77143000D01*
X64017287Y-77143000D01*
X65342713Y-77143000D01*
X65342720Y-77143000D01*
X65455236Y-77128187D01*
X65595233Y-77070198D01*
X65715451Y-76977951D01*
X65807698Y-76857733D01*
X65865687Y-76717736D01*
X65880500Y-76605220D01*
X65880500Y-75779780D01*
X65865687Y-75667264D01*
X65807698Y-75527267D01*
X65715451Y-75407049D01*
X65595233Y-75314802D01*
X65595229Y-75314800D01*
X65522104Y-75284511D01*
X65455236Y-75256813D01*
X65441171Y-75254961D01*
X65342727Y-75242000D01*
X65342720Y-75242000D01*
X64700808Y-75242000D01*
X64633769Y-75222315D01*
X64613127Y-75205681D01*
X64006819Y-74599373D01*
X63973334Y-74538050D01*
X63970500Y-74511692D01*
X63970500Y-73486663D01*
X63990185Y-73419624D01*
X64038206Y-73376178D01*
X64053216Y-73368530D01*
X64053215Y-73368530D01*
X64053220Y-73368528D01*
X64148528Y-73273220D01*
X64209719Y-73153126D01*
X64214218Y-73124720D01*
X64225500Y-73053493D01*
X64225500Y-72878676D01*
X64245185Y-72811637D01*
X64261819Y-72790995D01*
X66745995Y-70306819D01*
X66807318Y-70273334D01*
X66833676Y-70270500D01*
X69348259Y-70270500D01*
X69348260Y-70270500D01*
X69361642Y-70268550D01*
X69430819Y-70278362D01*
X69483709Y-70324017D01*
X69499295Y-70359159D01*
X69521903Y-70443531D01*
X69521905Y-70443536D01*
X69584505Y-70551964D01*
X69673036Y-70640495D01*
X69781464Y-70703095D01*
X69902399Y-70735500D01*
X69902401Y-70735500D01*
X70027599Y-70735500D01*
X70027601Y-70735500D01*
X70148536Y-70703095D01*
X70256964Y-70640495D01*
X70345495Y-70551964D01*
X70408095Y-70443536D01*
X70440500Y-70322601D01*
X70440500Y-70197399D01*
X70408095Y-70076464D01*
X70345495Y-69968036D01*
X70256964Y-69879505D01*
X70148536Y-69816905D01*
X70148533Y-69816904D01*
X70141876Y-69815120D01*
X70082218Y-69778751D01*
X70051693Y-69715903D01*
X70059992Y-69646528D01*
X70086293Y-69607669D01*
X70497470Y-69196493D01*
X70543614Y-69116569D01*
X70548187Y-69099501D01*
X70567500Y-69027425D01*
X70567500Y-65712575D01*
X70543614Y-65623431D01*
X70538176Y-65614012D01*
X70526726Y-65594180D01*
X70497472Y-65543510D01*
X70497468Y-65543505D01*
X70086296Y-65132333D01*
X70052811Y-65071010D01*
X70057795Y-65001318D01*
X70099667Y-64945385D01*
X70141882Y-64924877D01*
X70148536Y-64923095D01*
X70256964Y-64860495D01*
X70345495Y-64771964D01*
X70408095Y-64663536D01*
X70440500Y-64542601D01*
X70440500Y-64417399D01*
X70408095Y-64296464D01*
X70345495Y-64188036D01*
X70256964Y-64099505D01*
X70148536Y-64036905D01*
X70148537Y-64036905D01*
X70105002Y-64025240D01*
X70027601Y-64004500D01*
X69902399Y-64004500D01*
X69824998Y-64025240D01*
X69781463Y-64036905D01*
X69673037Y-64099504D01*
X69673034Y-64099506D01*
X69584506Y-64188034D01*
X69584504Y-64188037D01*
X69521905Y-64296463D01*
X69521903Y-64296468D01*
X69499295Y-64380840D01*
X69462930Y-64440500D01*
X69400082Y-64471028D01*
X69361648Y-64471450D01*
X69348260Y-64469500D01*
X68431740Y-64469500D01*
X68431739Y-64469500D01*
X68363608Y-64479426D01*
X68258514Y-64530803D01*
X68175803Y-64613514D01*
X68124426Y-64718608D01*
X68114500Y-64786739D01*
X68114500Y-65145500D01*
X68094815Y-65212539D01*
X68042011Y-65258294D01*
X67990500Y-65269500D01*
X67735331Y-65269500D01*
X67668292Y-65249815D01*
X67647650Y-65233181D01*
X67620404Y-65205935D01*
X67598740Y-65195833D01*
X67513173Y-65155932D01*
X67513171Y-65155931D01*
X67513172Y-65155931D01*
X67464317Y-65149500D01*
X67464316Y-65149500D01*
X67015684Y-65149500D01*
X67015683Y-65149500D01*
X66966828Y-65155931D01*
X66859595Y-65205935D01*
X66775935Y-65289595D01*
X66725931Y-65396828D01*
X66719500Y-65445683D01*
X66719500Y-65794316D01*
X66725931Y-65843171D01*
X66736813Y-65866508D01*
X66775935Y-65950404D01*
X66859596Y-66034065D01*
X66966827Y-66084068D01*
X67015683Y-66090500D01*
X67015684Y-66090500D01*
X67464317Y-66090500D01*
X67480601Y-66088356D01*
X67513173Y-66084068D01*
X67620404Y-66034065D01*
X67647650Y-66006819D01*
X67708973Y-65973334D01*
X67735331Y-65970500D01*
X67990500Y-65970500D01*
X67999185Y-65973050D01*
X68008146Y-65971762D01*
X68032187Y-65982740D01*
X68057539Y-65990185D01*
X68063465Y-65997024D01*
X68071702Y-66000786D01*
X68085992Y-66023021D01*
X68103294Y-66042989D01*
X68105581Y-66053501D01*
X68109477Y-66059564D01*
X68114500Y-66094499D01*
X68114501Y-66195499D01*
X68094817Y-66262538D01*
X68042014Y-66308294D01*
X67995978Y-66318308D01*
X67995996Y-66318439D01*
X67994431Y-66318645D01*
X67990501Y-66319500D01*
X67987937Y-66319500D01*
X67911510Y-66339979D01*
X67911508Y-66339979D01*
X67910407Y-66340275D01*
X67878313Y-66344500D01*
X66557230Y-66344500D01*
X66490191Y-66324815D01*
X66469549Y-66308181D01*
X66084689Y-65923321D01*
X66051204Y-65861998D01*
X66056188Y-65792306D01*
X66084690Y-65747958D01*
X66092850Y-65739799D01*
X66139499Y-65639760D01*
X66145500Y-65594179D01*
X66145499Y-65045822D01*
X66139499Y-65000240D01*
X66092850Y-64900201D01*
X66014799Y-64822150D01*
X65914760Y-64775501D01*
X65914758Y-64775500D01*
X65869188Y-64769501D01*
X65869185Y-64769500D01*
X65869179Y-64769500D01*
X65869172Y-64769500D01*
X65645833Y-64769500D01*
X65578794Y-64749815D01*
X65558152Y-64733181D01*
X63639513Y-62814542D01*
X63639511Y-62814540D01*
X63620604Y-62803624D01*
X63577088Y-62778500D01*
X63570991Y-62774980D01*
X63570990Y-62774979D01*
X63545513Y-62768152D01*
X63494562Y-62754500D01*
X63494560Y-62754500D01*
X63096687Y-62754500D01*
X63082178Y-62753648D01*
X63066682Y-62751822D01*
X63063490Y-62749979D01*
X62987063Y-62729500D01*
X62877222Y-62729500D01*
X62869991Y-62728648D01*
X62844278Y-62717689D01*
X62817461Y-62709815D01*
X62812576Y-62704178D01*
X62805715Y-62701254D01*
X62790007Y-62678132D01*
X62771706Y-62657011D01*
X62769843Y-62648450D01*
X62766453Y-62643459D01*
X62766146Y-62631456D01*
X62760500Y-62605501D01*
X62760499Y-62427870D01*
X62760499Y-62427868D01*
X62744515Y-62347505D01*
X62709318Y-62294829D01*
X62683624Y-62256375D01*
X62621448Y-62214831D01*
X62592495Y-62195485D01*
X62592493Y-62195484D01*
X62592490Y-62195483D01*
X62512136Y-62179500D01*
X61057870Y-62179500D01*
X60977503Y-62195485D01*
X60977502Y-62195486D01*
X60954962Y-62210547D01*
X60926129Y-62224796D01*
X60912348Y-62229500D01*
X60908968Y-62229500D01*
X60832541Y-62249979D01*
X60814372Y-62260469D01*
X60803889Y-62266521D01*
X60803884Y-62266523D01*
X60764022Y-62289537D01*
X60764017Y-62289541D01*
X60372181Y-62681377D01*
X60310858Y-62714862D01*
X60241166Y-62709878D01*
X60185233Y-62668006D01*
X60160816Y-62602542D01*
X60160500Y-62593696D01*
X60160500Y-60501017D01*
X60180185Y-60433978D01*
X60181398Y-60432126D01*
X60192963Y-60414817D01*
X60194515Y-60412495D01*
X60194515Y-60412493D01*
X60194516Y-60412493D01*
X60210499Y-60332137D01*
X60210500Y-60332133D01*
X60210499Y-58877868D01*
X60194515Y-58797505D01*
X60170454Y-58761495D01*
X60133624Y-58706375D01*
X60073413Y-58666144D01*
X60042495Y-58645485D01*
X60042493Y-58645484D01*
X60042490Y-58645483D01*
X59962135Y-58629500D01*
X59757870Y-58629500D01*
X59697867Y-58641434D01*
X59677505Y-58645485D01*
X59677504Y-58645485D01*
X59677501Y-58645486D01*
X59666220Y-58650159D01*
X59665621Y-58648714D01*
X59612204Y-58665436D01*
X59554061Y-58649481D01*
X59553781Y-58650159D01*
X59548383Y-58647923D01*
X59544825Y-58646947D01*
X59542648Y-58645547D01*
X59542494Y-58645484D01*
X59462135Y-58629500D01*
X59257870Y-58629500D01*
X59197867Y-58641434D01*
X59177505Y-58645485D01*
X59177504Y-58645485D01*
X59177501Y-58645486D01*
X59166220Y-58650159D01*
X59165621Y-58648714D01*
X59112204Y-58665436D01*
X59054061Y-58649481D01*
X59053781Y-58650159D01*
X59048383Y-58647923D01*
X59044825Y-58646947D01*
X59042648Y-58645547D01*
X59042494Y-58645484D01*
X58962135Y-58629500D01*
X58757870Y-58629500D01*
X58697867Y-58641434D01*
X58677505Y-58645485D01*
X58677504Y-58645485D01*
X58677501Y-58645486D01*
X58666220Y-58650159D01*
X58665621Y-58648714D01*
X58612204Y-58665436D01*
X58554061Y-58649481D01*
X58553781Y-58650159D01*
X58548383Y-58647923D01*
X58544825Y-58646947D01*
X58542648Y-58645547D01*
X58542494Y-58645484D01*
X58462135Y-58629500D01*
X58257870Y-58629500D01*
X58197867Y-58641434D01*
X58177505Y-58645485D01*
X58177504Y-58645485D01*
X58177501Y-58645486D01*
X58166220Y-58650159D01*
X58165621Y-58648714D01*
X58112204Y-58665436D01*
X58054061Y-58649481D01*
X58053781Y-58650159D01*
X58048383Y-58647923D01*
X58044825Y-58646947D01*
X58042648Y-58645547D01*
X58042494Y-58645484D01*
X57962135Y-58629500D01*
X57757870Y-58629500D01*
X57697867Y-58641434D01*
X57677505Y-58645485D01*
X57677504Y-58645485D01*
X57677501Y-58645486D01*
X57666220Y-58650159D01*
X57665621Y-58648714D01*
X57612204Y-58665436D01*
X57554061Y-58649481D01*
X57553781Y-58650159D01*
X57548383Y-58647923D01*
X57544825Y-58646947D01*
X57542648Y-58645547D01*
X57542494Y-58645484D01*
X57462135Y-58629500D01*
X57257870Y-58629500D01*
X57197867Y-58641434D01*
X57177505Y-58645485D01*
X57177504Y-58645485D01*
X57177501Y-58645486D01*
X57166220Y-58650159D01*
X57165621Y-58648714D01*
X57112204Y-58665436D01*
X57054061Y-58649481D01*
X57053781Y-58650159D01*
X57048383Y-58647923D01*
X57044825Y-58646947D01*
X57042648Y-58645547D01*
X57042494Y-58645484D01*
X56962135Y-58629500D01*
X56757870Y-58629500D01*
X56697867Y-58641434D01*
X56677505Y-58645485D01*
X56677504Y-58645485D01*
X56677501Y-58645486D01*
X56666220Y-58650159D01*
X56665621Y-58648714D01*
X56612204Y-58665436D01*
X56554061Y-58649481D01*
X56553781Y-58650159D01*
X56548383Y-58647923D01*
X56544825Y-58646947D01*
X56542648Y-58645547D01*
X56542494Y-58645484D01*
X56462135Y-58629500D01*
X56257870Y-58629500D01*
X56197867Y-58641434D01*
X56177505Y-58645485D01*
X56177504Y-58645485D01*
X56177501Y-58645486D01*
X56166220Y-58650159D01*
X56165621Y-58648714D01*
X56112204Y-58665436D01*
X56054061Y-58649481D01*
X56053781Y-58650159D01*
X56048383Y-58647923D01*
X56044825Y-58646947D01*
X56042648Y-58645547D01*
X56042494Y-58645484D01*
X55962136Y-58629500D01*
X55834500Y-58629500D01*
X55767461Y-58609815D01*
X55721706Y-58557011D01*
X55710500Y-58505500D01*
X55710500Y-56493858D01*
X55710500Y-56493856D01*
X55686614Y-56404712D01*
X55653475Y-56347314D01*
X55640470Y-56324788D01*
X55396819Y-56081137D01*
X55363334Y-56019814D01*
X55360500Y-55993456D01*
X55360500Y-55974110D01*
X55360500Y-55974108D01*
X55326392Y-55846814D01*
X55260500Y-55732686D01*
X55167314Y-55639500D01*
X55110250Y-55606554D01*
X55053187Y-55573608D01*
X54989539Y-55556554D01*
X54925892Y-55539500D01*
X54794108Y-55539500D01*
X54666812Y-55573608D01*
X54552686Y-55639500D01*
X54552683Y-55639502D01*
X54459502Y-55732683D01*
X54459500Y-55732686D01*
X54393608Y-55846812D01*
X54359500Y-55974108D01*
X54359500Y-56105891D01*
X54393608Y-56233187D01*
X54418589Y-56276454D01*
X54459500Y-56347314D01*
X54552686Y-56440500D01*
X54666814Y-56506392D01*
X54794108Y-56540500D01*
X54813456Y-56540500D01*
X54842896Y-56549144D01*
X54872883Y-56555668D01*
X54877898Y-56559422D01*
X54880495Y-56560185D01*
X54901137Y-56576819D01*
X54973181Y-56648863D01*
X55006666Y-56710186D01*
X55009500Y-56736544D01*
X55009500Y-57565669D01*
X54989815Y-57632708D01*
X54937011Y-57678463D01*
X54867853Y-57688407D01*
X54804297Y-57659382D01*
X54797819Y-57653350D01*
X54740404Y-57595935D01*
X54705483Y-57579651D01*
X54633173Y-57545932D01*
X54633171Y-57545931D01*
X54633172Y-57545931D01*
X54584317Y-57539500D01*
X54584316Y-57539500D01*
X54135684Y-57539500D01*
X54135683Y-57539500D01*
X54086828Y-57545931D01*
X53979595Y-57595935D01*
X53895935Y-57679595D01*
X53845931Y-57786828D01*
X53839500Y-57835683D01*
X53839500Y-58184316D01*
X53845931Y-58233171D01*
X53895935Y-58340404D01*
X53973350Y-58417819D01*
X54006835Y-58479142D01*
X54001851Y-58548834D01*
X53959979Y-58604767D01*
X53894515Y-58629184D01*
X53885670Y-58629500D01*
X53757870Y-58629500D01*
X53697867Y-58641434D01*
X53677505Y-58645485D01*
X53677504Y-58645485D01*
X53677501Y-58645486D01*
X53666220Y-58650159D01*
X53665621Y-58648714D01*
X53612204Y-58665436D01*
X53554061Y-58649481D01*
X53553781Y-58650159D01*
X53548383Y-58647923D01*
X53544825Y-58646947D01*
X53542648Y-58645547D01*
X53542494Y-58645484D01*
X53462135Y-58629500D01*
X53257870Y-58629500D01*
X53177504Y-58645485D01*
X53086375Y-58706375D01*
X53025485Y-58797505D01*
X53025483Y-58797509D01*
X53009500Y-58877862D01*
X53009500Y-60332129D01*
X53025485Y-60412495D01*
X53086376Y-60503625D01*
X53095011Y-60512260D01*
X53093797Y-60513473D01*
X53129345Y-60556008D01*
X53138054Y-60625332D01*
X53107900Y-60688361D01*
X53048458Y-60725081D01*
X53015650Y-60729500D01*
X52934108Y-60729500D01*
X52806814Y-60763608D01*
X52806811Y-60763609D01*
X52780130Y-60779013D01*
X52753068Y-60785576D01*
X52726979Y-60795308D01*
X52719583Y-60793699D01*
X52712229Y-60795483D01*
X52685916Y-60786375D01*
X52658706Y-60780456D01*
X52650011Y-60773947D01*
X52646203Y-60772629D01*
X52630452Y-60759305D01*
X52585292Y-60714145D01*
X52551807Y-60652822D01*
X52556791Y-60583130D01*
X52598663Y-60527197D01*
X52604046Y-60523387D01*
X52633624Y-60503624D01*
X52694515Y-60412495D01*
X52710500Y-60332133D01*
X52710500Y-59616827D01*
X52710500Y-58203856D01*
X52686614Y-58114712D01*
X52686611Y-58114706D01*
X52640473Y-58034794D01*
X52640470Y-58034791D01*
X52640469Y-58034788D01*
X52626818Y-58021137D01*
X52593333Y-57959814D01*
X52590499Y-57933456D01*
X52590499Y-57790105D01*
X52590499Y-57790100D01*
X52583972Y-57740513D01*
X52533224Y-57631684D01*
X52457358Y-57555818D01*
X52423873Y-57494495D01*
X52428857Y-57424803D01*
X52457358Y-57380456D01*
X52461924Y-57375890D01*
X52480500Y-57357314D01*
X52546392Y-57243186D01*
X52580500Y-57115892D01*
X52580500Y-56984108D01*
X52546392Y-56856814D01*
X52480500Y-56742686D01*
X52387314Y-56649500D01*
X52309665Y-56604669D01*
X52273187Y-56583608D01*
X52185769Y-56560185D01*
X52145892Y-56549500D01*
X52014108Y-56549500D01*
X51886812Y-56583608D01*
X51772686Y-56649500D01*
X51772683Y-56649502D01*
X51759005Y-56663181D01*
X51732077Y-56677884D01*
X51706259Y-56694477D01*
X51700058Y-56695368D01*
X51697682Y-56696666D01*
X51671324Y-56699500D01*
X51445331Y-56699500D01*
X51378292Y-56679815D01*
X51357650Y-56663181D01*
X51356819Y-56662350D01*
X51346017Y-56642567D01*
X51332537Y-56627011D01*
X51330754Y-56614617D01*
X51323334Y-56601027D01*
X51320500Y-56574669D01*
X51320500Y-56261543D01*
X51340185Y-56194504D01*
X51356814Y-56173866D01*
X51409198Y-56121483D01*
X51460573Y-56016393D01*
X51470500Y-55948260D01*
X51470500Y-54671739D01*
X60319500Y-54671739D01*
X60319500Y-55988260D01*
X60329426Y-56056391D01*
X60329427Y-56056393D01*
X60380802Y-56161483D01*
X60433182Y-56213863D01*
X60466666Y-56275184D01*
X60469500Y-56301543D01*
X60469500Y-57816145D01*
X60482963Y-57866391D01*
X60482964Y-57866391D01*
X60482964Y-57866392D01*
X60492103Y-57900500D01*
X60493387Y-57905290D01*
X60539527Y-57985208D01*
X60539529Y-57985211D01*
X60539530Y-57985212D01*
X62354788Y-59800470D01*
X62406802Y-59830500D01*
X62406804Y-59830501D01*
X62434709Y-59846613D01*
X62434711Y-59846613D01*
X62434712Y-59846614D01*
X62523856Y-59870500D01*
X62523857Y-59870500D01*
X62616144Y-59870500D01*
X63573456Y-59870500D01*
X63640495Y-59890185D01*
X63661137Y-59906819D01*
X64048603Y-60294285D01*
X64082088Y-60355608D01*
X64077104Y-60425300D01*
X64064903Y-60449522D01*
X64057805Y-60460446D01*
X64031472Y-60486780D01*
X63997939Y-60552590D01*
X63994389Y-60558056D01*
X63972615Y-60576735D01*
X63952918Y-60597591D01*
X63946179Y-60599413D01*
X63941359Y-60603549D01*
X63919875Y-60606529D01*
X63890408Y-60614500D01*
X63628856Y-60614500D01*
X63545532Y-60636825D01*
X63545533Y-60636826D01*
X63539712Y-60638385D01*
X63539708Y-60638387D01*
X63459791Y-60684527D01*
X63459786Y-60684531D01*
X63351134Y-60793182D01*
X63289811Y-60826666D01*
X63263455Y-60829500D01*
X63120105Y-60829500D01*
X63104386Y-60831569D01*
X63070513Y-60836028D01*
X63070511Y-60836029D01*
X63070509Y-60836029D01*
X62961683Y-60886776D01*
X62876776Y-60971683D01*
X62826027Y-61080515D01*
X62823372Y-61089624D01*
X62819722Y-61088560D01*
X62798937Y-61135567D01*
X62740618Y-61174047D01*
X62704251Y-61179500D01*
X61057870Y-61179500D01*
X60977504Y-61195485D01*
X60886375Y-61256375D01*
X60825485Y-61347505D01*
X60825483Y-61347509D01*
X60809500Y-61427863D01*
X60809500Y-61632129D01*
X60825485Y-61712495D01*
X60886375Y-61803624D01*
X60919159Y-61825529D01*
X60977505Y-61864515D01*
X60977508Y-61864515D01*
X60977509Y-61864516D01*
X61004533Y-61869891D01*
X61057867Y-61880500D01*
X61724413Y-61880499D01*
X61724423Y-61880500D01*
X61738856Y-61880500D01*
X63156142Y-61880500D01*
X63156144Y-61880500D01*
X63245288Y-61856614D01*
X63264557Y-61845489D01*
X63325212Y-61810470D01*
X63325212Y-61810469D01*
X63331028Y-61807112D01*
X63393028Y-61790499D01*
X63539895Y-61790499D01*
X63539900Y-61790499D01*
X63589487Y-61783972D01*
X63698316Y-61733224D01*
X63783224Y-61648316D01*
X63833972Y-61539487D01*
X63835327Y-61529193D01*
X63863591Y-61465298D01*
X63921914Y-61426825D01*
X63991778Y-61425991D01*
X64045947Y-61457696D01*
X64126774Y-61538523D01*
X64126778Y-61538526D01*
X64126780Y-61538528D01*
X64246874Y-61599719D01*
X64246876Y-61599719D01*
X64246878Y-61599720D01*
X64346507Y-61615500D01*
X64346512Y-61615500D01*
X64913493Y-61615500D01*
X65013121Y-61599720D01*
X65013121Y-61599719D01*
X65013126Y-61599719D01*
X65133220Y-61538528D01*
X65228528Y-61443220D01*
X65233307Y-61433841D01*
X65259108Y-61383205D01*
X65307082Y-61332409D01*
X65369592Y-61315500D01*
X66008456Y-61315500D01*
X66075495Y-61335185D01*
X66096137Y-61351819D01*
X66283181Y-61538862D01*
X66316666Y-61600185D01*
X66319500Y-61626543D01*
X66319500Y-61645891D01*
X66353608Y-61773187D01*
X66371181Y-61803624D01*
X66419500Y-61887314D01*
X66512686Y-61980500D01*
X66626814Y-62046392D01*
X66754108Y-62080500D01*
X66754110Y-62080500D01*
X66885890Y-62080500D01*
X66885892Y-62080500D01*
X67013186Y-62046392D01*
X67127314Y-61980500D01*
X67220500Y-61887314D01*
X67286392Y-61773186D01*
X67320500Y-61645892D01*
X67320500Y-61514108D01*
X67286392Y-61386814D01*
X67220500Y-61272686D01*
X67127314Y-61179500D01*
X67051012Y-61135447D01*
X67013187Y-61113608D01*
X66929307Y-61091133D01*
X66885892Y-61079500D01*
X66885891Y-61079500D01*
X66866543Y-61079500D01*
X66799504Y-61059815D01*
X66778862Y-61043181D01*
X66601359Y-60865678D01*
X66420212Y-60684530D01*
X66420211Y-60684529D01*
X66420208Y-60684527D01*
X66340290Y-60638387D01*
X66340289Y-60638386D01*
X66340288Y-60638386D01*
X66251144Y-60614500D01*
X66251143Y-60614500D01*
X65369592Y-60614500D01*
X65302553Y-60594815D01*
X65259108Y-60546795D01*
X65228530Y-60486783D01*
X65228523Y-60486774D01*
X65133225Y-60391476D01*
X65133221Y-60391473D01*
X65133220Y-60391472D01*
X65023419Y-60335525D01*
X64972626Y-60287554D01*
X64966514Y-60275650D01*
X64962494Y-60266658D01*
X64956614Y-60244712D01*
X64942404Y-60220100D01*
X64913776Y-60170514D01*
X64910472Y-60164791D01*
X64910468Y-60164786D01*
X64085671Y-59339989D01*
X64065964Y-59314306D01*
X64060469Y-59304788D01*
X63995212Y-59239531D01*
X63995209Y-59239529D01*
X63995205Y-59239526D01*
X63915293Y-59193388D01*
X63915290Y-59193387D01*
X63915289Y-59193386D01*
X63915288Y-59193386D01*
X63826144Y-59169500D01*
X63826143Y-59169500D01*
X62766544Y-59169500D01*
X62699505Y-59149815D01*
X62678863Y-59133181D01*
X61646062Y-58100380D01*
X61612577Y-58039057D01*
X61617561Y-57969365D01*
X61659433Y-57913432D01*
X61724897Y-57889015D01*
X61765831Y-57892923D01*
X61794108Y-57900500D01*
X61794111Y-57900500D01*
X61925890Y-57900500D01*
X61925892Y-57900500D01*
X62053186Y-57866392D01*
X62167314Y-57800500D01*
X62260500Y-57707314D01*
X62270840Y-57689403D01*
X62321404Y-57641189D01*
X62390011Y-57627964D01*
X62454876Y-57653930D01*
X62465908Y-57663722D01*
X62542686Y-57740500D01*
X62628596Y-57790100D01*
X62646603Y-57800497D01*
X62656814Y-57806392D01*
X62784108Y-57840500D01*
X62784110Y-57840500D01*
X62915890Y-57840500D01*
X62915892Y-57840500D01*
X63043186Y-57806392D01*
X63157314Y-57740500D01*
X63250500Y-57647314D01*
X63282802Y-57591364D01*
X63333369Y-57543149D01*
X63401976Y-57529926D01*
X63466841Y-57555894D01*
X63477870Y-57565684D01*
X63522686Y-57610500D01*
X63636814Y-57676392D01*
X63764108Y-57710500D01*
X63764110Y-57710500D01*
X63895890Y-57710500D01*
X63895892Y-57710500D01*
X64023186Y-57676392D01*
X64137314Y-57610500D01*
X64155072Y-57592741D01*
X64216392Y-57559256D01*
X64286084Y-57564239D01*
X64342019Y-57606109D01*
X64348846Y-57616460D01*
X64349498Y-57617311D01*
X64349500Y-57617314D01*
X64442686Y-57710500D01*
X64556814Y-57776392D01*
X64684108Y-57810500D01*
X64684110Y-57810500D01*
X64815890Y-57810500D01*
X64815892Y-57810500D01*
X64943186Y-57776392D01*
X65057314Y-57710500D01*
X65150500Y-57617314D01*
X65216392Y-57503186D01*
X65250500Y-57375892D01*
X65250500Y-57244108D01*
X65216392Y-57116814D01*
X65150500Y-57002686D01*
X65150498Y-57002684D01*
X65150497Y-57002682D01*
X65146124Y-56996983D01*
X65120930Y-56931814D01*
X65120500Y-56921497D01*
X65120500Y-56347997D01*
X65140185Y-56280958D01*
X65172450Y-56247077D01*
X65176477Y-56244200D01*
X65176483Y-56244198D01*
X65259198Y-56161483D01*
X65310573Y-56056393D01*
X65320500Y-55988260D01*
X65320500Y-54671740D01*
X65310573Y-54603607D01*
X65259198Y-54498517D01*
X65259196Y-54498515D01*
X65259196Y-54498514D01*
X65176485Y-54415803D01*
X65071391Y-54364426D01*
X65003261Y-54354500D01*
X65003260Y-54354500D01*
X64636740Y-54354500D01*
X64636739Y-54354500D01*
X64568608Y-54364426D01*
X64463514Y-54415803D01*
X64407681Y-54471637D01*
X64346358Y-54505122D01*
X64276666Y-54500138D01*
X64232319Y-54471637D01*
X64176485Y-54415803D01*
X64071391Y-54364426D01*
X64003261Y-54354500D01*
X64003260Y-54354500D01*
X63636740Y-54354500D01*
X63636739Y-54354500D01*
X63568608Y-54364426D01*
X63463514Y-54415803D01*
X63407681Y-54471637D01*
X63346358Y-54505122D01*
X63276666Y-54500138D01*
X63232319Y-54471637D01*
X63176485Y-54415803D01*
X63071391Y-54364426D01*
X63003261Y-54354500D01*
X63003260Y-54354500D01*
X62636740Y-54354500D01*
X62636739Y-54354500D01*
X62568608Y-54364426D01*
X62463514Y-54415803D01*
X62407681Y-54471637D01*
X62346358Y-54505122D01*
X62276666Y-54500138D01*
X62232319Y-54471637D01*
X62176485Y-54415803D01*
X62071391Y-54364426D01*
X62003261Y-54354500D01*
X62003260Y-54354500D01*
X61636740Y-54354500D01*
X61636739Y-54354500D01*
X61568608Y-54364426D01*
X61463514Y-54415803D01*
X61407681Y-54471637D01*
X61346358Y-54505122D01*
X61276666Y-54500138D01*
X61232319Y-54471637D01*
X61176485Y-54415803D01*
X61071391Y-54364426D01*
X61003261Y-54354500D01*
X61003260Y-54354500D01*
X60636740Y-54354500D01*
X60636739Y-54354500D01*
X60568608Y-54364426D01*
X60463514Y-54415803D01*
X60380803Y-54498514D01*
X60329426Y-54603608D01*
X60319500Y-54671739D01*
X51470500Y-54671739D01*
X51470500Y-54631740D01*
X51460573Y-54563607D01*
X51409198Y-54458517D01*
X51409196Y-54458515D01*
X51409196Y-54458514D01*
X51326485Y-54375803D01*
X51221391Y-54324426D01*
X51153261Y-54314500D01*
X51153260Y-54314500D01*
X50786740Y-54314500D01*
X50786739Y-54314500D01*
X50718608Y-54324426D01*
X50613514Y-54375803D01*
X50557681Y-54431637D01*
X50496358Y-54465122D01*
X50426666Y-54460138D01*
X50382319Y-54431637D01*
X50326485Y-54375803D01*
X50221391Y-54324426D01*
X50153261Y-54314500D01*
X50153260Y-54314500D01*
X49786740Y-54314500D01*
X49786739Y-54314500D01*
X49718608Y-54324426D01*
X49613514Y-54375803D01*
X49557681Y-54431637D01*
X49496358Y-54465122D01*
X49426666Y-54460138D01*
X49382319Y-54431637D01*
X49326485Y-54375803D01*
X49221391Y-54324426D01*
X49153261Y-54314500D01*
X49153260Y-54314500D01*
X48786740Y-54314500D01*
X48786739Y-54314500D01*
X48718608Y-54324426D01*
X48613514Y-54375803D01*
X48530803Y-54458514D01*
X48479426Y-54563608D01*
X48469500Y-54631739D01*
X48469500Y-55948260D01*
X48479426Y-56016391D01*
X48479427Y-56016393D01*
X48530802Y-56121483D01*
X48583182Y-56173863D01*
X48616666Y-56235184D01*
X48619500Y-56261543D01*
X48619500Y-56624669D01*
X48599815Y-56691708D01*
X48583181Y-56712350D01*
X48565935Y-56729595D01*
X48515931Y-56836828D01*
X48509500Y-56885683D01*
X48509500Y-57033456D01*
X48489815Y-57100495D01*
X48473181Y-57121137D01*
X47729531Y-57864786D01*
X47729527Y-57864791D01*
X47683387Y-57944709D01*
X47683386Y-57944712D01*
X47659500Y-58033856D01*
X47659500Y-58694456D01*
X47639815Y-58761495D01*
X47587011Y-58807250D01*
X47517853Y-58817194D01*
X47454297Y-58788169D01*
X47447819Y-58782137D01*
X47234770Y-58569088D01*
X47201285Y-58507765D01*
X47206269Y-58438073D01*
X47215061Y-58419412D01*
X47276392Y-58313186D01*
X47310500Y-58185892D01*
X47310500Y-58054108D01*
X47276392Y-57926814D01*
X47210500Y-57812686D01*
X47117314Y-57719500D01*
X47060250Y-57686554D01*
X47003187Y-57653608D01*
X46939539Y-57636554D01*
X46875892Y-57619500D01*
X46744108Y-57619500D01*
X46616812Y-57653608D01*
X46502686Y-57719500D01*
X46502683Y-57719502D01*
X46409502Y-57812683D01*
X46409500Y-57812686D01*
X46343608Y-57926812D01*
X46309500Y-58054108D01*
X46309500Y-58175500D01*
X46289815Y-58242539D01*
X46237011Y-58288294D01*
X46185500Y-58299500D01*
X44703856Y-58299500D01*
X44614712Y-58323386D01*
X44614711Y-58323386D01*
X44614709Y-58323387D01*
X44614706Y-58323388D01*
X44534794Y-58369526D01*
X44534785Y-58369533D01*
X44471138Y-58433181D01*
X44409815Y-58466666D01*
X44383457Y-58469500D01*
X44364108Y-58469500D01*
X44236812Y-58503608D01*
X44122686Y-58569500D01*
X44122683Y-58569502D01*
X44029502Y-58662683D01*
X44029500Y-58662686D01*
X43963608Y-58776812D01*
X43936531Y-58877867D01*
X43929500Y-58904108D01*
X43929500Y-59035892D01*
X43944643Y-59092406D01*
X43963608Y-59163187D01*
X43981045Y-59193388D01*
X44029500Y-59277314D01*
X44122686Y-59370500D01*
X44236814Y-59436392D01*
X44364108Y-59470500D01*
X44364110Y-59470500D01*
X44495890Y-59470500D01*
X44495892Y-59470500D01*
X44623186Y-59436392D01*
X44737314Y-59370500D01*
X44830500Y-59277314D01*
X44896392Y-59163186D01*
X44915357Y-59092405D01*
X44951722Y-59032746D01*
X45014569Y-59002217D01*
X45035132Y-59000500D01*
X46623456Y-59000500D01*
X46690495Y-59020185D01*
X46711137Y-59036819D01*
X47453181Y-59778863D01*
X47486666Y-59840186D01*
X47489500Y-59866544D01*
X47489500Y-60014316D01*
X47495931Y-60063171D01*
X47545935Y-60170404D01*
X47637267Y-60261736D01*
X47634443Y-60264559D01*
X47665183Y-60303042D01*
X47672352Y-60372542D01*
X47640808Y-60434886D01*
X47637101Y-60438098D01*
X47637267Y-60438264D01*
X47545935Y-60529595D01*
X47495932Y-60636827D01*
X47489500Y-60685683D01*
X47489500Y-61034316D01*
X47495931Y-61083171D01*
X47545935Y-61190404D01*
X47614010Y-61258479D01*
X47647495Y-61319802D01*
X47642511Y-61389494D01*
X47614011Y-61433841D01*
X47545364Y-61502488D01*
X47494355Y-61606828D01*
X47494355Y-61606830D01*
X47484500Y-61674472D01*
X47484500Y-62085528D01*
X47491637Y-62134511D01*
X47494355Y-62153171D01*
X47545365Y-62257513D01*
X47627486Y-62339634D01*
X47627487Y-62339634D01*
X47627489Y-62339636D01*
X47731830Y-62390645D01*
X47799472Y-62400500D01*
X47799478Y-62400500D01*
X48160522Y-62400500D01*
X48160528Y-62400500D01*
X48228170Y-62390645D01*
X48332511Y-62339636D01*
X48341647Y-62330500D01*
X48377319Y-62294829D01*
X48438642Y-62261344D01*
X48508334Y-62266328D01*
X48552681Y-62294829D01*
X48597486Y-62339634D01*
X48597487Y-62339634D01*
X48597489Y-62339636D01*
X48701830Y-62390645D01*
X48769472Y-62400500D01*
X48769478Y-62400500D01*
X49130522Y-62400500D01*
X49130528Y-62400500D01*
X49198170Y-62390645D01*
X49249161Y-62365717D01*
X49281040Y-62350133D01*
X49349913Y-62338373D01*
X49414210Y-62365717D01*
X49453517Y-62423481D01*
X49459500Y-62461532D01*
X49459500Y-62632129D01*
X49466636Y-62668006D01*
X49474964Y-62709878D01*
X49475486Y-62712498D01*
X49480159Y-62723780D01*
X49478714Y-62724378D01*
X49495436Y-62777788D01*
X49479482Y-62835938D01*
X49480159Y-62836219D01*
X49477926Y-62841609D01*
X49476950Y-62845168D01*
X49475550Y-62847345D01*
X49475484Y-62847505D01*
X49459500Y-62927863D01*
X49459500Y-62927865D01*
X49459501Y-63055499D01*
X49439817Y-63122539D01*
X49387013Y-63168294D01*
X49335501Y-63179500D01*
X48526544Y-63179500D01*
X48459505Y-63159815D01*
X48438863Y-63143181D01*
X48144213Y-62848531D01*
X48144208Y-62848527D01*
X48064290Y-62802387D01*
X48064289Y-62802386D01*
X48064288Y-62802386D01*
X47975144Y-62778500D01*
X47975143Y-62778500D01*
X45773544Y-62778500D01*
X45744103Y-62769855D01*
X45714117Y-62763332D01*
X45709101Y-62759577D01*
X45706505Y-62758815D01*
X45685863Y-62742181D01*
X45566819Y-62623137D01*
X45533334Y-62561814D01*
X45530500Y-62535456D01*
X45530500Y-61260249D01*
X45530499Y-61260247D01*
X45518868Y-61201770D01*
X45518867Y-61201769D01*
X45474552Y-61135447D01*
X45401937Y-61086927D01*
X45357132Y-61033314D01*
X45348425Y-60963989D01*
X45378580Y-60900962D01*
X45396058Y-60885481D01*
X45398314Y-60883224D01*
X45398316Y-60883224D01*
X45483224Y-60798316D01*
X45533972Y-60689487D01*
X45540500Y-60639901D01*
X45540499Y-60220100D01*
X45533972Y-60170513D01*
X45483224Y-60061684D01*
X45398316Y-59976776D01*
X45289487Y-59926028D01*
X45289485Y-59926027D01*
X45289486Y-59926027D01*
X45239902Y-59919500D01*
X44880105Y-59919500D01*
X44864386Y-59921569D01*
X44830513Y-59926028D01*
X44830511Y-59926029D01*
X44830509Y-59926029D01*
X44721683Y-59976776D01*
X44636776Y-60061683D01*
X44586027Y-60170514D01*
X44579500Y-60220097D01*
X44579500Y-60363454D01*
X44559815Y-60430493D01*
X44543182Y-60451135D01*
X44449529Y-60544788D01*
X44413686Y-60606870D01*
X44413687Y-60606871D01*
X44403385Y-60624714D01*
X44379500Y-60713856D01*
X44379500Y-60955500D01*
X44359815Y-61022539D01*
X44307011Y-61068294D01*
X44255500Y-61079500D01*
X44110247Y-61079500D01*
X44051770Y-61091131D01*
X44051769Y-61091132D01*
X43985447Y-61135447D01*
X43941132Y-61201769D01*
X43941131Y-61201770D01*
X43929500Y-61260247D01*
X43929500Y-62699752D01*
X43941131Y-62758229D01*
X43941132Y-62758230D01*
X43985447Y-62824552D01*
X44051769Y-62868867D01*
X44051770Y-62868868D01*
X44110247Y-62880499D01*
X44110250Y-62880500D01*
X44110252Y-62880500D01*
X44781456Y-62880500D01*
X44848495Y-62900185D01*
X44869137Y-62916819D01*
X45361788Y-63409470D01*
X45393658Y-63427870D01*
X45440277Y-63454786D01*
X45440278Y-63454786D01*
X45440281Y-63454788D01*
X45441712Y-63455614D01*
X45530856Y-63479500D01*
X45530859Y-63479500D01*
X45537592Y-63481304D01*
X45597253Y-63517668D01*
X45627783Y-63580515D01*
X45629500Y-63601079D01*
X45629500Y-64899752D01*
X45641131Y-64958229D01*
X45641132Y-64958230D01*
X45685447Y-65024552D01*
X45746824Y-65065563D01*
X45791629Y-65119176D01*
X45800336Y-65188501D01*
X45770181Y-65251528D01*
X45710738Y-65288247D01*
X45694118Y-65291604D01*
X45660516Y-65296027D01*
X45660509Y-65296029D01*
X45551683Y-65346776D01*
X45466776Y-65431683D01*
X45416027Y-65540514D01*
X45409500Y-65590098D01*
X45409500Y-66009894D01*
X45409501Y-66009900D01*
X45416028Y-66059487D01*
X45416029Y-66059489D01*
X45416029Y-66059490D01*
X45449905Y-66132136D01*
X45466776Y-66168316D01*
X45551684Y-66253224D01*
X45660513Y-66303972D01*
X45710099Y-66310500D01*
X46069900Y-66310499D01*
X46119487Y-66303972D01*
X46228316Y-66253224D01*
X46313224Y-66168316D01*
X46363972Y-66059487D01*
X46370500Y-66009901D01*
X46370499Y-65866543D01*
X46390183Y-65799504D01*
X46406813Y-65778867D01*
X46710469Y-65475212D01*
X46756614Y-65395288D01*
X46762107Y-65374788D01*
X46780500Y-65306144D01*
X46780500Y-65204500D01*
X46800185Y-65137461D01*
X46852989Y-65091706D01*
X46904500Y-65080500D01*
X47049750Y-65080500D01*
X47049751Y-65080499D01*
X47071773Y-65076119D01*
X47108229Y-65068868D01*
X47108229Y-65068867D01*
X47108231Y-65068867D01*
X47174552Y-65024552D01*
X47218867Y-64958231D01*
X47218867Y-64958229D01*
X47218868Y-64958229D01*
X47230499Y-64899752D01*
X47230500Y-64899750D01*
X47230500Y-64654500D01*
X47250185Y-64587461D01*
X47302989Y-64541706D01*
X47354500Y-64530500D01*
X49236141Y-64530500D01*
X49236144Y-64530500D01*
X49303410Y-64512476D01*
X49373256Y-64514139D01*
X49431118Y-64553301D01*
X49455984Y-64602930D01*
X49459500Y-64617381D01*
X49459501Y-64632132D01*
X49475485Y-64712495D01*
X49486751Y-64729356D01*
X49491940Y-64750678D01*
X49491289Y-64764543D01*
X49495436Y-64777788D01*
X49489684Y-64798753D01*
X49488665Y-64820471D01*
X49480622Y-64831782D01*
X49479482Y-64835938D01*
X49480159Y-64836219D01*
X49477926Y-64841609D01*
X49476950Y-64845168D01*
X49475550Y-64847345D01*
X49475484Y-64847505D01*
X49459500Y-64927863D01*
X49459500Y-65132129D01*
X49464235Y-65155932D01*
X49474180Y-65205935D01*
X49475486Y-65212498D01*
X49480159Y-65223780D01*
X49478714Y-65224378D01*
X49495436Y-65277788D01*
X49479482Y-65335938D01*
X49480159Y-65336219D01*
X49477926Y-65341609D01*
X49476950Y-65345168D01*
X49475550Y-65347345D01*
X49475484Y-65347505D01*
X49459500Y-65427863D01*
X49459500Y-65632129D01*
X49475486Y-65712498D01*
X49480159Y-65723780D01*
X49478714Y-65724378D01*
X49495436Y-65777788D01*
X49479482Y-65835938D01*
X49480159Y-65836219D01*
X49477926Y-65841609D01*
X49476950Y-65845168D01*
X49475550Y-65847345D01*
X49475484Y-65847505D01*
X49459500Y-65927863D01*
X49459500Y-66132129D01*
X49475486Y-66212498D01*
X49480159Y-66223780D01*
X49478714Y-66224378D01*
X49495436Y-66277788D01*
X49479482Y-66335938D01*
X49480159Y-66336219D01*
X49477926Y-66341609D01*
X49476950Y-66345168D01*
X49475550Y-66347345D01*
X49475484Y-66347505D01*
X49459500Y-66427863D01*
X49459500Y-66632129D01*
X49475485Y-66712495D01*
X49536375Y-66803624D01*
X49572876Y-66828013D01*
X49627505Y-66864515D01*
X49627508Y-66864515D01*
X49627509Y-66864516D01*
X49652566Y-66869500D01*
X49707867Y-66880500D01*
X51162132Y-66880499D01*
X51242495Y-66864515D01*
X51242496Y-66864513D01*
X51242499Y-66864513D01*
X51262125Y-66851399D01*
X51328802Y-66830520D01*
X51331017Y-66830500D01*
X51395445Y-66830500D01*
X51395447Y-66830500D01*
X51471874Y-66810021D01*
X51540396Y-66770460D01*
X51567942Y-66742914D01*
X51593486Y-66717371D01*
X51654809Y-66683887D01*
X51681166Y-66681053D01*
X51771222Y-66681053D01*
X51771224Y-66681053D01*
X51898518Y-66646945D01*
X52012646Y-66581053D01*
X52105832Y-66487867D01*
X52171724Y-66373739D01*
X52205832Y-66246445D01*
X52205832Y-66114661D01*
X52171724Y-65987367D01*
X52124741Y-65905991D01*
X52108269Y-65838093D01*
X52131121Y-65772066D01*
X52186042Y-65728875D01*
X52235981Y-65722607D01*
X52235981Y-65720500D01*
X52375890Y-65720500D01*
X52375892Y-65720500D01*
X52503186Y-65686392D01*
X52617314Y-65620500D01*
X52710500Y-65527314D01*
X52776392Y-65413186D01*
X52810500Y-65285892D01*
X52810500Y-65154108D01*
X52776392Y-65026814D01*
X52710500Y-64912686D01*
X52617314Y-64819500D01*
X52560250Y-64786554D01*
X52503187Y-64753608D01*
X52439539Y-64736554D01*
X52375892Y-64719500D01*
X52285833Y-64719500D01*
X52218794Y-64699815D01*
X52198152Y-64683181D01*
X51804512Y-64289541D01*
X51804511Y-64289540D01*
X51771425Y-64270438D01*
X51771423Y-64270437D01*
X51771422Y-64270435D01*
X51735994Y-64249981D01*
X51735991Y-64249979D01*
X51697775Y-64239739D01*
X51659562Y-64229500D01*
X51659560Y-64229500D01*
X51534500Y-64229500D01*
X51467461Y-64209815D01*
X51421706Y-64157011D01*
X51410500Y-64105501D01*
X51410499Y-63927870D01*
X51410499Y-63927868D01*
X51394515Y-63847505D01*
X51394513Y-63847502D01*
X51389841Y-63836222D01*
X51391285Y-63835623D01*
X51374563Y-63782211D01*
X51390517Y-63724056D01*
X51389842Y-63723777D01*
X51392070Y-63718396D01*
X51393049Y-63714831D01*
X51394452Y-63712647D01*
X51394516Y-63712493D01*
X51410499Y-63632136D01*
X51410500Y-63632133D01*
X51410499Y-63427868D01*
X51394515Y-63347505D01*
X51394513Y-63347502D01*
X51389841Y-63336222D01*
X51391285Y-63335623D01*
X51374563Y-63282211D01*
X51390517Y-63224056D01*
X51389842Y-63223777D01*
X51392070Y-63218396D01*
X51393049Y-63214831D01*
X51394452Y-63212647D01*
X51394516Y-63212493D01*
X51408302Y-63143181D01*
X51410500Y-63132133D01*
X51410499Y-62927868D01*
X51394515Y-62847505D01*
X51394513Y-62847502D01*
X51389841Y-62836222D01*
X51391285Y-62835623D01*
X51374563Y-62782211D01*
X51390517Y-62724056D01*
X51389842Y-62723777D01*
X51392070Y-62718396D01*
X51393049Y-62714831D01*
X51394452Y-62712647D01*
X51394516Y-62712493D01*
X51410499Y-62632136D01*
X51410500Y-62632133D01*
X51410499Y-62427868D01*
X51394515Y-62347505D01*
X51394513Y-62347502D01*
X51389841Y-62336222D01*
X51391285Y-62335623D01*
X51374563Y-62282211D01*
X51390517Y-62224056D01*
X51389842Y-62223777D01*
X51392070Y-62218396D01*
X51393049Y-62214831D01*
X51394452Y-62212647D01*
X51394516Y-62212493D01*
X51410500Y-62132135D01*
X51410499Y-62132134D01*
X51410500Y-62132133D01*
X51410499Y-61927868D01*
X51394515Y-61847505D01*
X51394513Y-61847502D01*
X51389841Y-61836222D01*
X51391285Y-61835623D01*
X51374563Y-61782211D01*
X51390517Y-61724056D01*
X51389842Y-61723777D01*
X51392070Y-61718396D01*
X51393049Y-61714831D01*
X51394452Y-61712647D01*
X51394516Y-61712493D01*
X51407763Y-61645891D01*
X51410500Y-61632133D01*
X51410499Y-61427868D01*
X51394515Y-61347505D01*
X51360028Y-61295892D01*
X51333624Y-61256375D01*
X51278995Y-61219874D01*
X51242495Y-61195485D01*
X51242493Y-61195484D01*
X51242490Y-61195483D01*
X51162137Y-61179500D01*
X51162133Y-61179500D01*
X50631543Y-61179500D01*
X50602102Y-61170855D01*
X50572116Y-61164332D01*
X50567100Y-61160577D01*
X50564504Y-61159815D01*
X50543862Y-61143181D01*
X50397374Y-60996693D01*
X50363889Y-60935370D01*
X50368873Y-60865678D01*
X50372673Y-60856607D01*
X50382269Y-60836028D01*
X50403972Y-60789487D01*
X50410500Y-60739901D01*
X50410499Y-60380100D01*
X50403972Y-60330513D01*
X50353224Y-60221684D01*
X50268316Y-60136776D01*
X50159487Y-60086028D01*
X50159485Y-60086027D01*
X50159486Y-60086027D01*
X50109902Y-60079500D01*
X50109901Y-60079500D01*
X49895833Y-60079500D01*
X49828794Y-60059815D01*
X49808152Y-60043181D01*
X49364512Y-59599541D01*
X49364504Y-59599535D01*
X49295995Y-59559982D01*
X49295990Y-59559979D01*
X49270513Y-59553152D01*
X49219562Y-59539500D01*
X49219560Y-59539500D01*
X48555331Y-59539500D01*
X48525890Y-59530855D01*
X48495904Y-59524332D01*
X48490888Y-59520577D01*
X48488292Y-59519815D01*
X48467650Y-59503181D01*
X48396819Y-59432350D01*
X48363334Y-59371027D01*
X48360500Y-59344669D01*
X48360500Y-58276544D01*
X48380185Y-58209505D01*
X48396819Y-58188863D01*
X48918863Y-57666819D01*
X48980186Y-57633334D01*
X49006544Y-57630500D01*
X49154317Y-57630500D01*
X49173579Y-57627964D01*
X49203173Y-57624068D01*
X49310404Y-57574065D01*
X49394065Y-57490404D01*
X49394065Y-57490403D01*
X49401736Y-57482733D01*
X49404564Y-57485561D01*
X49442977Y-57454843D01*
X49512474Y-57447635D01*
X49574835Y-57479143D01*
X49577988Y-57482208D01*
X49585765Y-57490040D01*
X49585935Y-57490404D01*
X49613346Y-57517815D01*
X49613488Y-57517958D01*
X49630048Y-57548540D01*
X49646666Y-57578973D01*
X49646700Y-57579291D01*
X49646758Y-57579398D01*
X49646738Y-57579651D01*
X49649500Y-57605331D01*
X49649500Y-58670678D01*
X49672037Y-58754788D01*
X49673386Y-58759822D01*
X49719530Y-58839746D01*
X52324997Y-61445212D01*
X52390254Y-61510469D01*
X52390257Y-61510470D01*
X52390260Y-61510473D01*
X52470172Y-61556611D01*
X52470173Y-61556611D01*
X52470178Y-61556614D01*
X52559322Y-61580500D01*
X52591324Y-61580500D01*
X52658363Y-61600185D01*
X52679005Y-61616819D01*
X52692686Y-61630500D01*
X52806814Y-61696392D01*
X52934108Y-61730500D01*
X52934110Y-61730500D01*
X53065890Y-61730500D01*
X53065892Y-61730500D01*
X53193186Y-61696392D01*
X53307314Y-61630500D01*
X53400500Y-61537314D01*
X53466392Y-61423186D01*
X53500500Y-61295892D01*
X53500500Y-61164108D01*
X53466392Y-61036814D01*
X53400500Y-60922686D01*
X53307314Y-60829500D01*
X53288816Y-60818820D01*
X53276805Y-60811885D01*
X53228590Y-60761317D01*
X53215369Y-60692710D01*
X53241338Y-60627846D01*
X53298252Y-60587318D01*
X53338803Y-60580499D01*
X53462132Y-60580499D01*
X53542495Y-60564515D01*
X53542498Y-60564512D01*
X53553778Y-60559841D01*
X53554376Y-60561286D01*
X53607782Y-60544563D01*
X53665943Y-60560516D01*
X53666223Y-60559842D01*
X53671590Y-60562065D01*
X53675162Y-60563045D01*
X53677351Y-60564451D01*
X53677506Y-60564516D01*
X53730957Y-60575147D01*
X53757867Y-60580500D01*
X53935499Y-60580499D01*
X54002539Y-60600183D01*
X54048294Y-60652987D01*
X54059500Y-60704499D01*
X54059500Y-64990495D01*
X54039815Y-65057534D01*
X53987011Y-65103289D01*
X53917853Y-65113233D01*
X53903407Y-65110270D01*
X53825892Y-65089500D01*
X53694108Y-65089500D01*
X53566812Y-65123608D01*
X53452686Y-65189500D01*
X53452683Y-65189502D01*
X53359502Y-65282683D01*
X53359500Y-65282686D01*
X53293608Y-65396812D01*
X53272601Y-65475214D01*
X53259500Y-65524108D01*
X53259500Y-65655892D01*
X53268612Y-65689897D01*
X53293608Y-65783187D01*
X53303029Y-65799504D01*
X53359500Y-65897314D01*
X53452686Y-65990500D01*
X53452688Y-65990501D01*
X53459137Y-65995450D01*
X53457324Y-65997812D01*
X53495710Y-66038062D01*
X53509500Y-66094893D01*
X53509500Y-67017066D01*
X53489815Y-67084105D01*
X53473181Y-67104747D01*
X51614284Y-68963643D01*
X51610212Y-68965866D01*
X51607700Y-68969766D01*
X51579831Y-68982455D01*
X51552961Y-68997128D01*
X51548334Y-68996797D01*
X51544112Y-68998720D01*
X51513810Y-68994328D01*
X51483269Y-68992144D01*
X51479554Y-68989363D01*
X51474965Y-68988698D01*
X51451849Y-68968623D01*
X51427336Y-68950272D01*
X51424740Y-68945080D01*
X51422212Y-68942884D01*
X51416248Y-68928091D01*
X51407587Y-68910763D01*
X51406054Y-68905521D01*
X51394515Y-68847505D01*
X51384868Y-68833068D01*
X51379527Y-68814801D01*
X51379545Y-68798125D01*
X51374563Y-68782211D01*
X51379583Y-68763910D01*
X51379605Y-68744932D01*
X51388636Y-68730912D01*
X51390517Y-68724056D01*
X51389842Y-68723777D01*
X51392070Y-68718396D01*
X51393049Y-68714831D01*
X51394452Y-68712647D01*
X51394516Y-68712493D01*
X51410026Y-68634516D01*
X51410500Y-68632133D01*
X51410499Y-68427868D01*
X51394515Y-68347505D01*
X51394513Y-68347502D01*
X51389841Y-68336222D01*
X51391285Y-68335623D01*
X51374563Y-68282211D01*
X51390517Y-68224056D01*
X51389842Y-68223777D01*
X51392070Y-68218396D01*
X51393049Y-68214831D01*
X51394452Y-68212647D01*
X51394516Y-68212493D01*
X51410499Y-68132136D01*
X51410500Y-68132133D01*
X51410499Y-67927868D01*
X51394515Y-67847505D01*
X51394513Y-67847502D01*
X51389841Y-67836222D01*
X51391285Y-67835623D01*
X51374563Y-67782211D01*
X51390517Y-67724056D01*
X51389842Y-67723777D01*
X51392070Y-67718396D01*
X51393049Y-67714831D01*
X51394452Y-67712647D01*
X51394516Y-67712493D01*
X51410499Y-67632136D01*
X51410500Y-67632133D01*
X51410499Y-67427868D01*
X51394515Y-67347505D01*
X51370147Y-67311036D01*
X51333624Y-67256375D01*
X51271448Y-67214831D01*
X51242495Y-67195485D01*
X51242493Y-67195484D01*
X51242490Y-67195483D01*
X51162137Y-67179500D01*
X51162133Y-67179500D01*
X50481145Y-67179500D01*
X50481144Y-67179500D01*
X49043856Y-67179500D01*
X49043854Y-67179500D01*
X49013342Y-67187675D01*
X49013343Y-67187676D01*
X48954710Y-67203386D01*
X48954709Y-67203387D01*
X48874788Y-67249529D01*
X48851134Y-67273183D01*
X48789810Y-67306667D01*
X48763455Y-67309500D01*
X48620105Y-67309500D01*
X48608438Y-67311036D01*
X48570513Y-67316028D01*
X48570511Y-67316029D01*
X48570509Y-67316029D01*
X48461683Y-67366776D01*
X48376776Y-67451683D01*
X48345609Y-67518521D01*
X48299436Y-67570960D01*
X48232242Y-67590112D01*
X48165361Y-67569896D01*
X48145546Y-67553797D01*
X48063225Y-67471476D01*
X48063221Y-67471473D01*
X48063220Y-67471472D01*
X47943126Y-67410281D01*
X47943124Y-67410280D01*
X47943121Y-67410279D01*
X47843493Y-67394500D01*
X47843488Y-67394500D01*
X47276512Y-67394500D01*
X47276507Y-67394500D01*
X47176878Y-67410279D01*
X47176874Y-67410280D01*
X47176874Y-67410281D01*
X47084300Y-67457449D01*
X47060009Y-67462011D01*
X47036854Y-67470648D01*
X47026274Y-67468346D01*
X47015634Y-67470345D01*
X46992731Y-67461049D01*
X46968581Y-67455796D01*
X46955311Y-67445862D01*
X46950893Y-67444069D01*
X46940327Y-67434645D01*
X46916819Y-67411137D01*
X46883334Y-67349814D01*
X46880500Y-67323456D01*
X46880500Y-67304110D01*
X46880500Y-67304108D01*
X46846392Y-67176814D01*
X46780500Y-67062686D01*
X46687314Y-66969500D01*
X46615209Y-66927870D01*
X46573187Y-66903608D01*
X46486941Y-66880499D01*
X46445892Y-66869500D01*
X46314108Y-66869500D01*
X46186812Y-66903608D01*
X46072686Y-66969500D01*
X46072683Y-66969502D01*
X45979502Y-67062683D01*
X45979500Y-67062686D01*
X45913608Y-67176812D01*
X45879500Y-67304108D01*
X45879500Y-67435893D01*
X45901527Y-67518101D01*
X45899864Y-67587951D01*
X45860701Y-67645813D01*
X45796472Y-67673316D01*
X45749665Y-67669970D01*
X45745127Y-67668754D01*
X45613343Y-67668754D01*
X45486047Y-67702862D01*
X45371921Y-67768754D01*
X45371918Y-67768756D01*
X45358240Y-67782435D01*
X45331312Y-67797138D01*
X45305494Y-67813731D01*
X45299293Y-67814622D01*
X45296917Y-67815920D01*
X45270559Y-67818754D01*
X45238298Y-67818754D01*
X45171259Y-67799069D01*
X45150617Y-67782435D01*
X43209319Y-65841137D01*
X43175834Y-65779814D01*
X43173000Y-65753456D01*
X43173000Y-65624720D01*
X43158500Y-65533172D01*
X43158499Y-65533170D01*
X43158499Y-65533168D01*
X43102269Y-65422811D01*
X43102265Y-65422807D01*
X43102264Y-65422805D01*
X43014694Y-65335235D01*
X43014691Y-65335233D01*
X43014689Y-65335231D01*
X42904332Y-65279001D01*
X42904330Y-65279000D01*
X42904327Y-65278999D01*
X42812779Y-65264500D01*
X42812774Y-65264500D01*
X41227226Y-65264500D01*
X41227221Y-65264500D01*
X41135672Y-65278999D01*
X41135668Y-65279001D01*
X41025311Y-65335231D01*
X41025310Y-65335232D01*
X41025305Y-65335235D01*
X40937735Y-65422805D01*
X40937732Y-65422810D01*
X40937731Y-65422811D01*
X40911031Y-65475212D01*
X40881501Y-65533168D01*
X40881499Y-65533172D01*
X40867000Y-65624720D01*
X40867000Y-66575279D01*
X40881499Y-66666827D01*
X40881500Y-66666830D01*
X40881501Y-66666832D01*
X40937731Y-66777189D01*
X40937732Y-66777190D01*
X40942162Y-66785884D01*
X40941016Y-66786467D01*
X40961157Y-66842934D01*
X40945324Y-66910987D01*
X40937756Y-66922762D01*
X40881501Y-67033168D01*
X40881499Y-67033172D01*
X40867000Y-67124720D01*
X40867000Y-68075279D01*
X40881499Y-68166827D01*
X40881500Y-68166830D01*
X40881501Y-68166832D01*
X40937731Y-68277189D01*
X40937732Y-68277190D01*
X40942162Y-68285884D01*
X40941016Y-68286467D01*
X40961157Y-68342934D01*
X40945324Y-68410987D01*
X40937756Y-68422762D01*
X40881501Y-68533168D01*
X40881499Y-68533172D01*
X40867000Y-68624720D01*
X40867000Y-69575279D01*
X40881499Y-69666827D01*
X40881500Y-69666830D01*
X40881501Y-69666832D01*
X40937731Y-69777189D01*
X40937732Y-69777190D01*
X40942162Y-69785884D01*
X40941016Y-69786467D01*
X40961157Y-69842934D01*
X40945324Y-69910987D01*
X40937756Y-69922762D01*
X40937731Y-69922810D01*
X40937731Y-69922811D01*
X40891394Y-70013752D01*
X40881501Y-70033168D01*
X40881499Y-70033172D01*
X40867000Y-70124720D01*
X40867000Y-71075279D01*
X40881499Y-71166827D01*
X40881500Y-71166830D01*
X40881501Y-71166832D01*
X40937731Y-71277189D01*
X40937733Y-71277191D01*
X40937735Y-71277194D01*
X41025305Y-71364764D01*
X41025307Y-71364765D01*
X41025311Y-71364769D01*
X41135668Y-71420999D01*
X41135670Y-71420999D01*
X41135672Y-71421000D01*
X41227221Y-71435500D01*
X41227226Y-71435500D01*
X42812779Y-71435500D01*
X42904327Y-71421000D01*
X42904327Y-71420999D01*
X42904332Y-71420999D01*
X43014689Y-71364769D01*
X43102269Y-71277189D01*
X43158499Y-71166832D01*
X43167155Y-71112181D01*
X43173000Y-71075279D01*
X43173000Y-71024500D01*
X43192685Y-70957461D01*
X43245489Y-70911706D01*
X43297000Y-70900500D01*
X46074167Y-70900500D01*
X46141206Y-70920185D01*
X46161848Y-70936819D01*
X48193181Y-72968152D01*
X48226666Y-73029475D01*
X48229500Y-73055833D01*
X48229500Y-74101323D01*
X48209815Y-74168362D01*
X48193182Y-74189004D01*
X48129500Y-74252686D01*
X48063608Y-74366812D01*
X48029500Y-74494108D01*
X48029500Y-74625892D01*
X48034859Y-74645892D01*
X48063608Y-74753187D01*
X48071479Y-74766819D01*
X48129500Y-74867314D01*
X48222686Y-74960500D01*
X48336814Y-75026392D01*
X48464108Y-75060500D01*
X48464110Y-75060500D01*
X48595890Y-75060500D01*
X48595892Y-75060500D01*
X48723186Y-75026392D01*
X48753498Y-75008890D01*
X48821398Y-74992417D01*
X48887425Y-75015268D01*
X48930617Y-75070189D01*
X48939500Y-75116277D01*
X48939500Y-78623827D01*
X48919815Y-78690866D01*
X48912996Y-78699328D01*
X48913486Y-78699704D01*
X48908535Y-78706155D01*
X48868982Y-78774664D01*
X48868979Y-78774669D01*
X48863823Y-78793912D01*
X48850597Y-78843274D01*
X48848500Y-78851099D01*
X48848500Y-79515166D01*
X48828815Y-79582205D01*
X48812181Y-79602847D01*
X47866549Y-80548478D01*
X47805226Y-80581963D01*
X47754678Y-80582415D01*
X47689748Y-80569500D01*
X46750252Y-80569500D01*
X46750247Y-80569500D01*
X46691770Y-80581131D01*
X46691769Y-80581132D01*
X46625447Y-80625447D01*
X46581132Y-80691769D01*
X46581131Y-80691770D01*
X46569500Y-80750247D01*
X46569500Y-82489752D01*
X46581131Y-82548229D01*
X46581132Y-82548230D01*
X46625447Y-82614552D01*
X46691769Y-82658867D01*
X46691770Y-82658868D01*
X46750247Y-82670499D01*
X46750250Y-82670500D01*
X46750252Y-82670500D01*
X47689750Y-82670500D01*
X47689751Y-82670499D01*
X47704568Y-82667552D01*
X47748229Y-82658868D01*
X47748229Y-82658867D01*
X47748231Y-82658867D01*
X47814552Y-82614552D01*
X47858867Y-82548231D01*
X47858867Y-82548229D01*
X47858868Y-82548229D01*
X47870499Y-82489752D01*
X47870500Y-82489750D01*
X47870500Y-81445833D01*
X47890185Y-81378794D01*
X47906819Y-81358152D01*
X49157819Y-80107152D01*
X49219142Y-80073667D01*
X49288834Y-80078651D01*
X49344767Y-80120523D01*
X49369184Y-80185987D01*
X49369500Y-80194833D01*
X49369500Y-80766144D01*
X49376786Y-80793336D01*
X49389406Y-80840436D01*
X49393385Y-80855285D01*
X49393387Y-80855290D01*
X49439527Y-80935208D01*
X49439531Y-80935213D01*
X49462137Y-80957819D01*
X49495622Y-81019142D01*
X49490638Y-81088834D01*
X49448766Y-81144767D01*
X49383302Y-81169184D01*
X49374456Y-81169500D01*
X49014180Y-81169500D01*
X48982087Y-81165275D01*
X48909027Y-81145699D01*
X48885892Y-81139500D01*
X48754108Y-81139500D01*
X48626812Y-81173608D01*
X48512686Y-81239500D01*
X48512683Y-81239502D01*
X48419502Y-81332683D01*
X48419500Y-81332686D01*
X48353608Y-81446812D01*
X48319500Y-81574108D01*
X48319500Y-81705891D01*
X48353608Y-81833187D01*
X48357024Y-81839103D01*
X48419500Y-81947314D01*
X48512686Y-82040500D01*
X48593422Y-82087113D01*
X48626810Y-82106390D01*
X48626814Y-82106392D01*
X48754108Y-82140500D01*
X48754110Y-82140500D01*
X48885890Y-82140500D01*
X48885892Y-82140500D01*
X49013186Y-82106392D01*
X49046578Y-82087112D01*
X49108578Y-82070500D01*
X49845500Y-82070500D01*
X49912539Y-82090185D01*
X49958294Y-82142989D01*
X49969500Y-82194500D01*
X49969500Y-82489752D01*
X49981131Y-82548229D01*
X49981132Y-82548230D01*
X50025447Y-82614552D01*
X50091769Y-82658867D01*
X50091770Y-82658868D01*
X50150247Y-82670499D01*
X50150250Y-82670500D01*
X50150252Y-82670500D01*
X51089750Y-82670500D01*
X51089751Y-82670499D01*
X51104568Y-82667552D01*
X51148229Y-82658868D01*
X51148229Y-82658867D01*
X51148231Y-82658867D01*
X51214552Y-82614552D01*
X51258867Y-82548231D01*
X51258867Y-82548229D01*
X51258868Y-82548229D01*
X51270499Y-82489752D01*
X51270500Y-82489750D01*
X51270500Y-82314500D01*
X51290185Y-82247461D01*
X51342989Y-82201706D01*
X51394500Y-82190500D01*
X52205500Y-82190500D01*
X52272539Y-82210185D01*
X52318294Y-82262989D01*
X52329500Y-82314500D01*
X52329500Y-83417273D01*
X52329500Y-83522727D01*
X52341230Y-83566506D01*
X52356793Y-83624589D01*
X52378811Y-83662724D01*
X52409520Y-83715913D01*
X52739519Y-84045912D01*
X52739520Y-84045913D01*
X52814087Y-84120480D01*
X52905413Y-84173207D01*
X53007273Y-84200500D01*
X53007275Y-84200500D01*
X55312725Y-84200500D01*
X55312727Y-84200500D01*
X55414588Y-84173207D01*
X55505913Y-84120480D01*
X55960480Y-83665913D01*
X56013207Y-83574588D01*
X56040500Y-83472727D01*
X56040500Y-83367273D01*
X56040500Y-82304500D01*
X56060185Y-82237461D01*
X56112989Y-82191706D01*
X56164500Y-82180500D01*
X57832725Y-82180500D01*
X57832727Y-82180500D01*
X57934588Y-82153207D01*
X58025913Y-82100480D01*
X58700480Y-81425913D01*
X58753207Y-81334588D01*
X58780500Y-81232727D01*
X58780500Y-81127273D01*
X58780500Y-80717000D01*
X58800185Y-80649961D01*
X58852989Y-80604206D01*
X58904500Y-80593000D01*
X58936613Y-80593000D01*
X58936616Y-80593000D01*
X59007196Y-80586586D01*
X59169606Y-80535978D01*
X59315185Y-80447972D01*
X59419096Y-80344060D01*
X59480417Y-80310576D01*
X59550108Y-80315560D01*
X59594457Y-80344061D01*
X61053181Y-81802784D01*
X61086666Y-81864107D01*
X61089500Y-81890465D01*
X61089500Y-82272686D01*
X61077882Y-82325090D01*
X61066030Y-82350506D01*
X61066027Y-82350516D01*
X61059500Y-82400098D01*
X61059500Y-82819894D01*
X61059501Y-82819900D01*
X61066028Y-82869487D01*
X61066029Y-82869489D01*
X61066029Y-82869490D01*
X61091402Y-82923901D01*
X61116776Y-82978316D01*
X61116779Y-82978319D01*
X61117519Y-82979376D01*
X61118168Y-82981301D01*
X61121361Y-82988148D01*
X61120597Y-82988504D01*
X61139846Y-83045582D01*
X61122836Y-83113350D01*
X61071888Y-83161163D01*
X61015944Y-83174500D01*
X60916507Y-83174500D01*
X60816878Y-83190279D01*
X60696778Y-83251473D01*
X60696774Y-83251476D01*
X60601476Y-83346774D01*
X60601473Y-83346778D01*
X60601472Y-83346780D01*
X60568470Y-83411551D01*
X60540279Y-83466878D01*
X60524500Y-83566506D01*
X60524500Y-84133493D01*
X60540279Y-84233121D01*
X60540280Y-84233122D01*
X60540281Y-84233126D01*
X60566793Y-84285159D01*
X60579689Y-84353826D01*
X60553413Y-84418567D01*
X60496306Y-84458824D01*
X60456268Y-84465452D01*
X42074003Y-84459523D01*
X42074002Y-84459523D01*
X42065969Y-84459520D01*
X42065892Y-84459500D01*
X42004387Y-84459500D01*
X42004381Y-84459498D01*
X41995582Y-84459184D01*
X41973622Y-84457613D01*
X41795442Y-84444869D01*
X41777931Y-84442351D01*
X41586212Y-84400646D01*
X41569236Y-84395662D01*
X41385390Y-84327090D01*
X41369298Y-84319740D01*
X41197095Y-84225711D01*
X41182210Y-84216146D01*
X41161308Y-84200499D01*
X41025132Y-84098558D01*
X41011762Y-84086972D01*
X40873027Y-83948237D01*
X40861441Y-83934867D01*
X40743849Y-83777784D01*
X40734288Y-83762904D01*
X40640259Y-83590701D01*
X40632909Y-83574609D01*
X40613558Y-83522727D01*
X40564334Y-83390755D01*
X40559355Y-83373797D01*
X40517647Y-83182063D01*
X40515130Y-83164556D01*
X40514887Y-83161163D01*
X40500816Y-82964418D01*
X40500500Y-82955572D01*
X40500500Y-73124720D01*
X40867000Y-73124720D01*
X40867000Y-74075279D01*
X40881499Y-74166827D01*
X40881500Y-74166830D01*
X40881501Y-74166832D01*
X40937731Y-74277189D01*
X40937732Y-74277190D01*
X40942162Y-74285884D01*
X40941016Y-74286467D01*
X40961157Y-74342934D01*
X40945324Y-74410987D01*
X40937756Y-74422762D01*
X40881501Y-74533168D01*
X40881499Y-74533172D01*
X40867000Y-74624720D01*
X40867000Y-75575279D01*
X40881499Y-75666827D01*
X40881500Y-75666830D01*
X40881501Y-75666832D01*
X40937731Y-75777189D01*
X40937732Y-75777190D01*
X40942162Y-75785884D01*
X40941016Y-75786467D01*
X40961157Y-75842934D01*
X40945324Y-75910987D01*
X40937756Y-75922762D01*
X40881501Y-76033168D01*
X40881499Y-76033172D01*
X40867000Y-76124720D01*
X40867000Y-77075279D01*
X40881499Y-77166827D01*
X40881500Y-77166830D01*
X40881501Y-77166832D01*
X40937731Y-77277189D01*
X40937733Y-77277191D01*
X40937735Y-77277194D01*
X41025305Y-77364764D01*
X41025307Y-77364765D01*
X41025311Y-77364769D01*
X41135668Y-77420999D01*
X41135670Y-77420999D01*
X41135672Y-77421000D01*
X41227221Y-77435500D01*
X41227226Y-77435500D01*
X42812779Y-77435500D01*
X42904327Y-77421000D01*
X42904327Y-77420999D01*
X42904332Y-77420999D01*
X43014689Y-77364769D01*
X43102269Y-77277189D01*
X43158499Y-77166832D01*
X43160356Y-77155102D01*
X43190285Y-77091969D01*
X43249596Y-77055037D01*
X43282830Y-77050500D01*
X43572035Y-77050500D01*
X43639074Y-77070185D01*
X43659716Y-77086819D01*
X44101886Y-77528990D01*
X44129160Y-77576224D01*
X44130495Y-77575672D01*
X44133606Y-77583183D01*
X44164186Y-77636148D01*
X44199500Y-77697314D01*
X44292686Y-77790500D01*
X44406814Y-77856392D01*
X44534108Y-77890500D01*
X44534110Y-77890500D01*
X44665890Y-77890500D01*
X44665892Y-77890500D01*
X44793186Y-77856392D01*
X44907314Y-77790500D01*
X45000500Y-77697314D01*
X45066392Y-77583186D01*
X45100500Y-77455892D01*
X45100500Y-77324108D01*
X45066392Y-77196814D01*
X45000500Y-77082686D01*
X44907314Y-76989500D01*
X44793186Y-76923608D01*
X44793183Y-76923606D01*
X44785672Y-76920495D01*
X44786224Y-76919160D01*
X44738990Y-76891886D01*
X44086616Y-76239513D01*
X44086614Y-76239511D01*
X43993566Y-76185789D01*
X43983888Y-76180201D01*
X43971780Y-76176957D01*
X43959673Y-76173713D01*
X43959670Y-76173712D01*
X43904248Y-76158862D01*
X43869309Y-76149500D01*
X43869308Y-76149500D01*
X43282830Y-76149500D01*
X43215791Y-76129815D01*
X43170046Y-76077033D01*
X43163006Y-76061625D01*
X43158499Y-76033168D01*
X43102269Y-75922811D01*
X43097316Y-75917858D01*
X43089857Y-75901533D01*
X43086577Y-75878755D01*
X43078843Y-75857076D01*
X43081692Y-75844824D01*
X43079900Y-75832377D01*
X43089456Y-75811439D01*
X43094670Y-75789023D01*
X43102244Y-75777236D01*
X43102266Y-75777191D01*
X43102269Y-75777189D01*
X43158499Y-75666832D01*
X43158500Y-75666827D01*
X43173000Y-75575279D01*
X43173000Y-75524500D01*
X43192685Y-75457461D01*
X43245489Y-75411706D01*
X43297000Y-75400500D01*
X46119560Y-75400500D01*
X46119562Y-75400500D01*
X46195989Y-75380021D01*
X46264511Y-75340460D01*
X46320460Y-75284511D01*
X46838151Y-74766818D01*
X46899474Y-74733334D01*
X46925832Y-74730500D01*
X47015890Y-74730500D01*
X47015892Y-74730500D01*
X47143186Y-74696392D01*
X47257314Y-74630500D01*
X47350500Y-74537314D01*
X47416392Y-74423186D01*
X47450500Y-74295892D01*
X47450500Y-74164108D01*
X47416392Y-74036814D01*
X47409282Y-74024500D01*
X47386970Y-73985854D01*
X47350500Y-73922686D01*
X47257314Y-73829500D01*
X47207331Y-73800642D01*
X47137967Y-73760594D01*
X47089752Y-73710026D01*
X47076530Y-73641419D01*
X47102498Y-73576554D01*
X47112280Y-73565533D01*
X47150500Y-73527314D01*
X47216392Y-73413186D01*
X47250500Y-73285892D01*
X47250500Y-73154108D01*
X47216392Y-73026814D01*
X47150500Y-72912686D01*
X47057314Y-72819500D01*
X46987168Y-72779001D01*
X46943187Y-72753608D01*
X46879539Y-72736554D01*
X46815892Y-72719500D01*
X46684108Y-72719500D01*
X46556812Y-72753608D01*
X46442686Y-72819500D01*
X46442683Y-72819502D01*
X46349502Y-72912683D01*
X46349500Y-72912686D01*
X46283608Y-73026812D01*
X46249500Y-73154108D01*
X46249500Y-73175500D01*
X46229815Y-73242539D01*
X46177011Y-73288294D01*
X46125500Y-73299500D01*
X43297000Y-73299500D01*
X43229961Y-73279815D01*
X43184206Y-73227011D01*
X43173000Y-73175500D01*
X43173000Y-73124720D01*
X43158500Y-73033172D01*
X43158499Y-73033170D01*
X43158499Y-73033168D01*
X43102269Y-72922811D01*
X43102265Y-72922807D01*
X43102264Y-72922805D01*
X43014694Y-72835235D01*
X43014691Y-72835233D01*
X43014689Y-72835231D01*
X42904332Y-72779001D01*
X42904330Y-72779000D01*
X42904327Y-72778999D01*
X42812779Y-72764500D01*
X42812774Y-72764500D01*
X41227226Y-72764500D01*
X41227221Y-72764500D01*
X41135672Y-72778999D01*
X41135668Y-72779001D01*
X41025311Y-72835231D01*
X41025310Y-72835232D01*
X41025305Y-72835235D01*
X40937735Y-72922805D01*
X40937732Y-72922810D01*
X40937731Y-72922811D01*
X40911647Y-72974004D01*
X40881501Y-73033168D01*
X40881499Y-73033172D01*
X40867000Y-73124720D01*
X40500500Y-73124720D01*
X40500500Y-52004427D01*
X40500816Y-51995581D01*
X40511318Y-51848748D01*
X40515130Y-51795436D01*
X40517646Y-51777938D01*
X40559356Y-51586199D01*
X40564333Y-51569248D01*
X40632911Y-51385385D01*
X40640259Y-51369298D01*
X40711435Y-51238948D01*
X40734291Y-51197089D01*
X40743845Y-51182221D01*
X40861448Y-51025123D01*
X40873020Y-51011769D01*
X41011769Y-50873020D01*
X41025123Y-50861448D01*
X41182221Y-50743845D01*
X41197089Y-50734291D01*
X41369298Y-50640258D01*
X41385385Y-50632911D01*
X41569248Y-50564333D01*
X41586199Y-50559356D01*
X41777938Y-50517646D01*
X41795436Y-50515130D01*
X41995577Y-50500816D01*
X42004340Y-50500500D01*
X42065892Y-50500500D01*
X42066043Y-50500459D01*
X46761465Y-50497545D01*
X46828515Y-50517188D01*
X46874302Y-50569964D01*
X46884289Y-50639116D01*
X46878583Y-50662496D01*
X46872353Y-50680300D01*
X46869500Y-50710730D01*
X46869500Y-52119269D01*
X46872353Y-52149699D01*
X46872353Y-52149701D01*
X46917206Y-52277880D01*
X46917207Y-52277882D01*
X46997850Y-52387150D01*
X47107118Y-52467793D01*
X47149845Y-52482744D01*
X47235299Y-52512646D01*
X47265730Y-52515500D01*
X47265734Y-52515500D01*
X48074270Y-52515500D01*
X48104699Y-52512646D01*
X48104701Y-52512646D01*
X48168790Y-52490219D01*
X48232882Y-52467793D01*
X48342150Y-52387150D01*
X48422793Y-52277882D01*
X48453649Y-52189701D01*
X48467646Y-52149701D01*
X48467646Y-52149699D01*
X48470500Y-52119269D01*
X48470500Y-50710730D01*
X48467646Y-50680300D01*
X48467645Y-50680298D01*
X48461024Y-50661374D01*
X48457462Y-50591595D01*
X48492190Y-50530968D01*
X48554184Y-50498740D01*
X48577985Y-50496419D01*
X52362680Y-50494071D01*
X52429731Y-50513714D01*
X52475518Y-50566490D01*
X52485505Y-50635642D01*
X52479798Y-50659024D01*
X52472353Y-50680299D01*
X52472353Y-50680300D01*
X52469500Y-50710730D01*
X52469500Y-52119269D01*
X52472353Y-52149699D01*
X52472353Y-52149701D01*
X52517206Y-52277880D01*
X52517207Y-52277882D01*
X52597850Y-52387150D01*
X52707118Y-52467793D01*
X52749845Y-52482744D01*
X52835299Y-52512646D01*
X52865730Y-52515500D01*
X52865734Y-52515500D01*
X53674270Y-52515500D01*
X53704699Y-52512646D01*
X53704701Y-52512646D01*
X53768790Y-52490219D01*
X53832882Y-52467793D01*
X53942150Y-52387150D01*
X54022793Y-52277882D01*
X54053649Y-52189701D01*
X54067646Y-52149701D01*
X54067646Y-52149699D01*
X54070500Y-52119269D01*
X54070500Y-50710730D01*
X54067646Y-50680301D01*
X54059808Y-50657901D01*
X54056245Y-50588122D01*
X54090973Y-50527495D01*
X54152966Y-50495267D01*
X54176767Y-50492945D01*
X58628036Y-50490184D01*
X58695088Y-50509827D01*
X58740875Y-50562603D01*
X58750862Y-50631755D01*
X58745155Y-50655138D01*
X58722353Y-50720301D01*
X58719500Y-50750730D01*
X58719500Y-52159269D01*
X58722353Y-52189699D01*
X58722353Y-52189701D01*
X58753210Y-52277882D01*
X58767207Y-52317882D01*
X58847850Y-52427150D01*
X58957118Y-52507793D01*
X58999845Y-52522744D01*
X59085299Y-52552646D01*
X59115730Y-52555500D01*
X59115734Y-52555500D01*
X59924270Y-52555500D01*
X59954699Y-52552646D01*
X59954701Y-52552646D01*
X60018790Y-52530219D01*
X60082882Y-52507793D01*
X60192150Y-52427150D01*
X60272793Y-52317882D01*
X60295219Y-52253790D01*
X60317646Y-52189701D01*
X60317646Y-52189699D01*
X60320500Y-52159269D01*
X60320500Y-50750730D01*
X60317646Y-50720300D01*
X60317646Y-50720298D01*
X60294458Y-50654032D01*
X60290896Y-50584253D01*
X60325624Y-50523626D01*
X60387617Y-50491398D01*
X60411412Y-50489077D01*
X66229686Y-50485469D01*
X66296738Y-50505112D01*
X66342525Y-50557888D01*
X66352512Y-50627040D01*
X66346805Y-50650423D01*
X66322353Y-50720302D01*
X66319500Y-50750730D01*
X66319500Y-52159269D01*
X66322353Y-52189699D01*
X66322353Y-52189701D01*
X66353210Y-52277882D01*
X66367207Y-52317882D01*
X66447850Y-52427150D01*
X66557118Y-52507793D01*
X66599845Y-52522744D01*
X66685299Y-52552646D01*
X66715730Y-52555500D01*
X66715734Y-52555500D01*
X67524270Y-52555500D01*
X67554699Y-52552646D01*
X67554701Y-52552646D01*
X67618790Y-52530219D01*
X67682882Y-52507793D01*
X67792150Y-52427150D01*
X67872793Y-52317882D01*
X67895219Y-52253790D01*
X67917646Y-52189701D01*
X67917646Y-52189699D01*
X67920500Y-52159269D01*
X67920500Y-50750730D01*
X67917646Y-50720301D01*
X67914297Y-50710730D01*
X67892807Y-50649317D01*
X67889245Y-50579541D01*
X67923973Y-50518914D01*
X67985966Y-50486686D01*
X68009764Y-50484364D01*
X74138000Y-50480563D01*
X74140931Y-50480948D01*
G37*
G04 #@! TD.AperFunction*
G04 #@! TA.AperFunction,Conductor*
G36*
X54435899Y-79151194D02*
G01*
X54495247Y-79162999D01*
X54495250Y-79163000D01*
X54740500Y-79163000D01*
X54807539Y-79182685D01*
X54853294Y-79235489D01*
X54864500Y-79287000D01*
X54864500Y-79532252D01*
X54878515Y-79602709D01*
X54877239Y-79602962D01*
X54883317Y-79659523D01*
X54876303Y-79683410D01*
X54864500Y-79742747D01*
X54864500Y-80032252D01*
X54878515Y-80102709D01*
X54877239Y-80102962D01*
X54883317Y-80159523D01*
X54876303Y-80183410D01*
X54864500Y-80242747D01*
X54864500Y-80532252D01*
X54876131Y-80590729D01*
X54876132Y-80590730D01*
X54920447Y-80657052D01*
X54957882Y-80682065D01*
X54986769Y-80701367D01*
X55002191Y-80704434D01*
X55064101Y-80736819D01*
X55098676Y-80797534D01*
X55102000Y-80826052D01*
X55102000Y-81582062D01*
X55104982Y-81593191D01*
X55122478Y-81658487D01*
X55138445Y-81686143D01*
X55138446Y-81686144D01*
X55142887Y-81693836D01*
X55159500Y-81755835D01*
X55159500Y-81989894D01*
X55159501Y-81989900D01*
X55166028Y-82039487D01*
X55166029Y-82039489D01*
X55166029Y-82039490D01*
X55216776Y-82148316D01*
X55217071Y-82148737D01*
X55217328Y-82149500D01*
X55221361Y-82158148D01*
X55220396Y-82158597D01*
X55239402Y-82214942D01*
X55239500Y-82219865D01*
X55239500Y-83202745D01*
X55230855Y-83232185D01*
X55224332Y-83262172D01*
X55220577Y-83267187D01*
X55219815Y-83269784D01*
X55203181Y-83290426D01*
X55130426Y-83363181D01*
X55069103Y-83396666D01*
X55042745Y-83399500D01*
X53277255Y-83399500D01*
X53210216Y-83379815D01*
X53189574Y-83363181D01*
X53166819Y-83340426D01*
X53133334Y-83279103D01*
X53130500Y-83252745D01*
X53130500Y-82229865D01*
X53150185Y-82162826D01*
X53152929Y-82158737D01*
X53153220Y-82158319D01*
X53153224Y-82158316D01*
X53203972Y-82049487D01*
X53210500Y-81999901D01*
X53210499Y-81785832D01*
X53230183Y-81718793D01*
X53246813Y-81698156D01*
X53723477Y-81221493D01*
X53784798Y-81188010D01*
X53786881Y-81187575D01*
X53843231Y-81176367D01*
X53909552Y-81132052D01*
X53953867Y-81065731D01*
X53953867Y-81065729D01*
X53953868Y-81065729D01*
X53965499Y-81007252D01*
X53965500Y-81007250D01*
X53965500Y-80292749D01*
X53965499Y-80292747D01*
X53953868Y-80234270D01*
X53953867Y-80234269D01*
X53909552Y-80167947D01*
X53843230Y-80123632D01*
X53843229Y-80123631D01*
X53784752Y-80112000D01*
X53784748Y-80112000D01*
X53539500Y-80112000D01*
X53472461Y-80092315D01*
X53426706Y-80039511D01*
X53415500Y-79988000D01*
X53415500Y-79742749D01*
X53415499Y-79742747D01*
X53401485Y-79672290D01*
X53402762Y-79672035D01*
X53396680Y-79615491D01*
X53403694Y-79591600D01*
X53412827Y-79545684D01*
X53415500Y-79532248D01*
X53415500Y-79287000D01*
X53435185Y-79219961D01*
X53487989Y-79174206D01*
X53539500Y-79163000D01*
X53784750Y-79163000D01*
X53784751Y-79162999D01*
X53799485Y-79160068D01*
X53855210Y-79148985D01*
X53855464Y-79150262D01*
X53912009Y-79144180D01*
X53935899Y-79151194D01*
X53995247Y-79162999D01*
X53995250Y-79163000D01*
X53995252Y-79163000D01*
X54284750Y-79163000D01*
X54284751Y-79162999D01*
X54299485Y-79160068D01*
X54355210Y-79148985D01*
X54355464Y-79150262D01*
X54412009Y-79144180D01*
X54435899Y-79151194D01*
G37*
G04 #@! TD.AperFunction*
G04 #@! TA.AperFunction,Conductor*
G36*
X52866567Y-70112402D02*
G01*
X52917597Y-70126076D01*
X52977254Y-70162440D01*
X53007783Y-70225287D01*
X53009500Y-70245849D01*
X53009500Y-71976155D01*
X52989815Y-72043194D01*
X52949237Y-72078643D01*
X52950573Y-72080551D01*
X52941685Y-72086774D01*
X52856776Y-72171683D01*
X52806027Y-72280514D01*
X52799500Y-72330098D01*
X52799500Y-72473455D01*
X52779815Y-72540494D01*
X52763184Y-72561134D01*
X52749529Y-72574789D01*
X52749527Y-72574792D01*
X52720663Y-72624785D01*
X52720664Y-72624786D01*
X52717012Y-72631111D01*
X52703386Y-72654712D01*
X52694869Y-72686499D01*
X52679500Y-72743856D01*
X52679500Y-75368546D01*
X52659815Y-75435585D01*
X52643181Y-75456227D01*
X51512181Y-76587227D01*
X51450858Y-76620712D01*
X51381166Y-76615728D01*
X51325233Y-76573856D01*
X51300816Y-76508392D01*
X51300500Y-76499546D01*
X51300500Y-76030249D01*
X51300499Y-76030247D01*
X51288868Y-75971770D01*
X51288867Y-75971769D01*
X51244552Y-75905447D01*
X51178230Y-75861132D01*
X51178229Y-75861131D01*
X51119752Y-75849500D01*
X51119748Y-75849500D01*
X51074500Y-75849500D01*
X51007461Y-75829815D01*
X50961706Y-75777011D01*
X50950500Y-75725500D01*
X50950500Y-75330440D01*
X50950500Y-75330438D01*
X50938194Y-75284511D01*
X50930022Y-75254012D01*
X50890460Y-75185489D01*
X50396819Y-74691848D01*
X50363334Y-74630525D01*
X50360500Y-74604167D01*
X50360500Y-74514110D01*
X50360500Y-74514108D01*
X50326392Y-74386814D01*
X50260500Y-74272686D01*
X50167314Y-74179500D01*
X50110250Y-74146554D01*
X50053187Y-74113608D01*
X49989539Y-74096554D01*
X49925892Y-74079500D01*
X49794108Y-74079500D01*
X49696592Y-74105628D01*
X49626743Y-74103966D01*
X49568881Y-74064803D01*
X49541377Y-74000575D01*
X49540500Y-73985854D01*
X49540500Y-72505833D01*
X49560185Y-72438794D01*
X49576819Y-72418152D01*
X49667661Y-72327310D01*
X49795469Y-72199501D01*
X49856790Y-72166018D01*
X49926481Y-72171002D01*
X49982415Y-72212873D01*
X49990535Y-72225184D01*
X50049500Y-72327314D01*
X50142686Y-72420500D01*
X50256814Y-72486392D01*
X50384108Y-72520500D01*
X50384110Y-72520500D01*
X50515890Y-72520500D01*
X50515892Y-72520500D01*
X50643186Y-72486392D01*
X50757314Y-72420500D01*
X50770995Y-72406819D01*
X50832318Y-72373334D01*
X50858676Y-72370500D01*
X51341142Y-72370500D01*
X51341144Y-72370500D01*
X51430288Y-72346614D01*
X51447323Y-72336779D01*
X51458890Y-72330101D01*
X51458891Y-72330100D01*
X51510212Y-72300470D01*
X51936898Y-71873782D01*
X51998219Y-71840299D01*
X52067910Y-71845283D01*
X52093469Y-71858363D01*
X52177505Y-71914515D01*
X52177508Y-71914515D01*
X52177509Y-71914516D01*
X52204533Y-71919891D01*
X52257867Y-71930500D01*
X52462132Y-71930499D01*
X52542495Y-71914515D01*
X52633624Y-71853624D01*
X52694515Y-71762495D01*
X52710500Y-71682133D01*
X52710499Y-70232182D01*
X52730184Y-70165144D01*
X52782987Y-70119389D01*
X52852146Y-70109445D01*
X52866567Y-70112402D01*
G37*
G04 #@! TD.AperFunction*
G04 #@! TD*
M02*
