G04 #@! TF.GenerationSoftware,KiCad,Pcbnew,9.0.1*
G04 #@! TF.CreationDate,2025-04-29T03:14:40+06:00*
G04 #@! TF.ProjectId,stm32f401,73746d33-3266-4343-9031-2e6b69636164,rev?*
G04 #@! TF.SameCoordinates,Original*
G04 #@! TF.FileFunction,Legend,Top*
G04 #@! TF.FilePolarity,Positive*
%FSLAX46Y46*%
G04 Gerber Fmt 4.6, Leading zero omitted, Abs format (unit mm)*
G04 Created by KiCad (PCBNEW 9.0.1) date 2025-04-29 03:14:40*
%MOMM*%
%LPD*%
G01*
G04 APERTURE LIST*
G04 Aperture macros list*
%AMRoundRect*
0 Rectangle with rounded corners*
0 $1 Rounding radius*
0 $2 $3 $4 $5 $6 $7 $8 $9 X,Y pos of 4 corners*
0 Add a 4 corners polygon primitive as box body*
4,1,4,$2,$3,$4,$5,$6,$7,$8,$9,$2,$3,0*
0 Add four circle primitives for the rounded corners*
1,1,$1+$1,$2,$3*
1,1,$1+$1,$4,$5*
1,1,$1+$1,$6,$7*
1,1,$1+$1,$8,$9*
0 Add four rect primitives between the rounded corners*
20,1,$1+$1,$2,$3,$4,$5,0*
20,1,$1+$1,$4,$5,$6,$7,0*
20,1,$1+$1,$6,$7,$8,$9,0*
20,1,$1+$1,$8,$9,$2,$3,0*%
G04 Aperture macros list end*
%ADD10C,0.100000*%
%ADD11C,0.150000*%
%ADD12C,0.087500*%
%ADD13C,0.112500*%
%ADD14C,0.120000*%
%ADD15O,1.800000X1.000000*%
%ADD16O,2.100000X1.000000*%
%ADD17RoundRect,0.150000X0.425000X-0.150000X0.425000X0.150000X-0.425000X0.150000X-0.425000X-0.150000X0*%
%ADD18RoundRect,0.075000X0.500000X-0.075000X0.500000X0.075000X-0.500000X0.075000X-0.500000X-0.075000X0*%
%ADD19C,0.650000*%
%ADD20C,0.800000*%
%ADD21C,5.000000*%
%ADD22RoundRect,0.135000X0.135000X0.185000X-0.135000X0.185000X-0.135000X-0.185000X0.135000X-0.185000X0*%
%ADD23R,0.675000X0.250000*%
%ADD24R,0.250000X0.675000*%
%ADD25RoundRect,0.112500X0.112500X0.237500X-0.112500X0.237500X-0.112500X-0.237500X0.112500X-0.237500X0*%
%ADD26RoundRect,0.225000X-0.225000X-0.250000X0.225000X-0.250000X0.225000X0.250000X-0.225000X0.250000X0*%
%ADD27RoundRect,0.375000X0.625000X0.375000X-0.625000X0.375000X-0.625000X-0.375000X0.625000X-0.375000X0*%
%ADD28RoundRect,0.500000X0.500000X1.400000X-0.500000X1.400000X-0.500000X-1.400000X0.500000X-1.400000X0*%
%ADD29RoundRect,0.140000X-0.140000X-0.170000X0.140000X-0.170000X0.140000X0.170000X-0.140000X0.170000X0*%
%ADD30RoundRect,0.140000X0.140000X0.170000X-0.140000X0.170000X-0.140000X-0.170000X0.140000X-0.170000X0*%
%ADD31RoundRect,0.147500X-0.147500X-0.172500X0.147500X-0.172500X0.147500X0.172500X-0.147500X0.172500X0*%
%ADD32RoundRect,0.135000X-0.185000X0.135000X-0.185000X-0.135000X0.185000X-0.135000X0.185000X0.135000X0*%
%ADD33RoundRect,0.135000X-0.135000X-0.185000X0.135000X-0.185000X0.135000X0.185000X-0.135000X0.185000X0*%
%ADD34R,0.900000X1.700000*%
%ADD35RoundRect,0.250000X0.350000X0.650000X-0.350000X0.650000X-0.350000X-0.650000X0.350000X-0.650000X0*%
%ADD36RoundRect,0.150000X0.150000X0.625000X-0.150000X0.625000X-0.150000X-0.625000X0.150000X-0.625000X0*%
%ADD37RoundRect,0.190500X-0.762000X-0.444500X0.762000X-0.444500X0.762000X0.444500X-0.762000X0.444500X0*%
%ADD38RoundRect,0.140000X-0.170000X0.140000X-0.170000X-0.140000X0.170000X-0.140000X0.170000X0.140000X0*%
%ADD39R,1.200000X1.400000*%
%ADD40RoundRect,0.225000X-0.250000X0.225000X-0.250000X-0.225000X0.250000X-0.225000X0.250000X0.225000X0*%
%ADD41RoundRect,0.135000X0.185000X-0.135000X0.185000X0.135000X-0.185000X0.135000X-0.185000X-0.135000X0*%
%ADD42RoundRect,0.147500X0.147500X0.172500X-0.147500X0.172500X-0.147500X-0.172500X0.147500X-0.172500X0*%
%ADD43RoundRect,0.225000X0.225000X0.250000X-0.225000X0.250000X-0.225000X-0.250000X0.225000X-0.250000X0*%
%ADD44RoundRect,0.075000X-0.700000X-0.075000X0.700000X-0.075000X0.700000X0.075000X-0.700000X0.075000X0*%
%ADD45RoundRect,0.075000X-0.075000X-0.700000X0.075000X-0.700000X0.075000X0.700000X-0.075000X0.700000X0*%
G04 APERTURE END LIST*
D10*
X45723884Y-55931466D02*
X46485789Y-55931466D01*
X46104836Y-56312419D02*
X46104836Y-55550514D01*
X68611466Y-56196115D02*
X68611466Y-55434211D01*
X57503884Y-55471466D02*
X58265789Y-55471466D01*
X57884836Y-55852419D02*
X57884836Y-55090514D01*
X54681466Y-55956115D02*
X54681466Y-55194211D01*
D11*
X72039819Y-67713333D02*
X72754104Y-67713333D01*
X72754104Y-67713333D02*
X72896961Y-67760952D01*
X72896961Y-67760952D02*
X72992200Y-67856190D01*
X72992200Y-67856190D02*
X73039819Y-67999047D01*
X73039819Y-67999047D02*
X73039819Y-68094285D01*
X73039819Y-66713333D02*
X73039819Y-67284761D01*
X73039819Y-66999047D02*
X72039819Y-66999047D01*
X72039819Y-66999047D02*
X72182676Y-67094285D01*
X72182676Y-67094285D02*
X72277914Y-67189523D01*
X72277914Y-67189523D02*
X72325533Y-67284761D01*
X47294819Y-82251904D02*
X46294819Y-82251904D01*
X46771009Y-82251904D02*
X46771009Y-81680476D01*
X47294819Y-81680476D02*
X46294819Y-81680476D01*
X46628152Y-80775714D02*
X47294819Y-80775714D01*
X46247200Y-81013809D02*
X46961485Y-81251904D01*
X46961485Y-81251904D02*
X46961485Y-80632857D01*
X69774819Y-82171904D02*
X68774819Y-82171904D01*
X69251009Y-82171904D02*
X69251009Y-81600476D01*
X69774819Y-81600476D02*
X68774819Y-81600476D01*
X68774819Y-81219523D02*
X68774819Y-80600476D01*
X68774819Y-80600476D02*
X69155771Y-80933809D01*
X69155771Y-80933809D02*
X69155771Y-80790952D01*
X69155771Y-80790952D02*
X69203390Y-80695714D01*
X69203390Y-80695714D02*
X69251009Y-80648095D01*
X69251009Y-80648095D02*
X69346247Y-80600476D01*
X69346247Y-80600476D02*
X69584342Y-80600476D01*
X69584342Y-80600476D02*
X69679580Y-80648095D01*
X69679580Y-80648095D02*
X69727200Y-80695714D01*
X69727200Y-80695714D02*
X69774819Y-80790952D01*
X69774819Y-80790952D02*
X69774819Y-81076666D01*
X69774819Y-81076666D02*
X69727200Y-81171904D01*
X69727200Y-81171904D02*
X69679580Y-81219523D01*
X71998095Y-57424819D02*
X71998095Y-56424819D01*
X71998095Y-56901009D02*
X72569523Y-56901009D01*
X72569523Y-57424819D02*
X72569523Y-56424819D01*
X73569523Y-57424819D02*
X72998095Y-57424819D01*
X73283809Y-57424819D02*
X73283809Y-56424819D01*
X73283809Y-56424819D02*
X73188571Y-56567676D01*
X73188571Y-56567676D02*
X73093333Y-56662914D01*
X73093333Y-56662914D02*
X72998095Y-56710533D01*
X47983333Y-79754819D02*
X47650000Y-79278628D01*
X47411905Y-79754819D02*
X47411905Y-78754819D01*
X47411905Y-78754819D02*
X47792857Y-78754819D01*
X47792857Y-78754819D02*
X47888095Y-78802438D01*
X47888095Y-78802438D02*
X47935714Y-78850057D01*
X47935714Y-78850057D02*
X47983333Y-78945295D01*
X47983333Y-78945295D02*
X47983333Y-79088152D01*
X47983333Y-79088152D02*
X47935714Y-79183390D01*
X47935714Y-79183390D02*
X47888095Y-79231009D01*
X47888095Y-79231009D02*
X47792857Y-79278628D01*
X47792857Y-79278628D02*
X47411905Y-79278628D01*
X48316667Y-78754819D02*
X48935714Y-78754819D01*
X48935714Y-78754819D02*
X48602381Y-79135771D01*
X48602381Y-79135771D02*
X48745238Y-79135771D01*
X48745238Y-79135771D02*
X48840476Y-79183390D01*
X48840476Y-79183390D02*
X48888095Y-79231009D01*
X48888095Y-79231009D02*
X48935714Y-79326247D01*
X48935714Y-79326247D02*
X48935714Y-79564342D01*
X48935714Y-79564342D02*
X48888095Y-79659580D01*
X48888095Y-79659580D02*
X48840476Y-79707200D01*
X48840476Y-79707200D02*
X48745238Y-79754819D01*
X48745238Y-79754819D02*
X48459524Y-79754819D01*
X48459524Y-79754819D02*
X48364286Y-79707200D01*
X48364286Y-79707200D02*
X48316667Y-79659580D01*
X54838095Y-76744819D02*
X54838095Y-77554342D01*
X54838095Y-77554342D02*
X54885714Y-77649580D01*
X54885714Y-77649580D02*
X54933333Y-77697200D01*
X54933333Y-77697200D02*
X55028571Y-77744819D01*
X55028571Y-77744819D02*
X55219047Y-77744819D01*
X55219047Y-77744819D02*
X55314285Y-77697200D01*
X55314285Y-77697200D02*
X55361904Y-77649580D01*
X55361904Y-77649580D02*
X55409523Y-77554342D01*
X55409523Y-77554342D02*
X55409523Y-76744819D01*
X55790476Y-76744819D02*
X56409523Y-76744819D01*
X56409523Y-76744819D02*
X56076190Y-77125771D01*
X56076190Y-77125771D02*
X56219047Y-77125771D01*
X56219047Y-77125771D02*
X56314285Y-77173390D01*
X56314285Y-77173390D02*
X56361904Y-77221009D01*
X56361904Y-77221009D02*
X56409523Y-77316247D01*
X56409523Y-77316247D02*
X56409523Y-77554342D01*
X56409523Y-77554342D02*
X56361904Y-77649580D01*
X56361904Y-77649580D02*
X56314285Y-77697200D01*
X56314285Y-77697200D02*
X56219047Y-77744819D01*
X56219047Y-77744819D02*
X55933333Y-77744819D01*
X55933333Y-77744819D02*
X55838095Y-77697200D01*
X55838095Y-77697200D02*
X55790476Y-77649580D01*
X63334819Y-69691904D02*
X64144342Y-69691904D01*
X64144342Y-69691904D02*
X64239580Y-69644285D01*
X64239580Y-69644285D02*
X64287200Y-69596666D01*
X64287200Y-69596666D02*
X64334819Y-69501428D01*
X64334819Y-69501428D02*
X64334819Y-69310952D01*
X64334819Y-69310952D02*
X64287200Y-69215714D01*
X64287200Y-69215714D02*
X64239580Y-69168095D01*
X64239580Y-69168095D02*
X64144342Y-69120476D01*
X64144342Y-69120476D02*
X63334819Y-69120476D01*
X64334819Y-68120476D02*
X64334819Y-68691904D01*
X64334819Y-68406190D02*
X63334819Y-68406190D01*
X63334819Y-68406190D02*
X63477676Y-68501428D01*
X63477676Y-68501428D02*
X63572914Y-68596666D01*
X63572914Y-68596666D02*
X63620533Y-68691904D01*
X58307142Y-84329580D02*
X58259523Y-84377200D01*
X58259523Y-84377200D02*
X58116666Y-84424819D01*
X58116666Y-84424819D02*
X58021428Y-84424819D01*
X58021428Y-84424819D02*
X57878571Y-84377200D01*
X57878571Y-84377200D02*
X57783333Y-84281961D01*
X57783333Y-84281961D02*
X57735714Y-84186723D01*
X57735714Y-84186723D02*
X57688095Y-83996247D01*
X57688095Y-83996247D02*
X57688095Y-83853390D01*
X57688095Y-83853390D02*
X57735714Y-83662914D01*
X57735714Y-83662914D02*
X57783333Y-83567676D01*
X57783333Y-83567676D02*
X57878571Y-83472438D01*
X57878571Y-83472438D02*
X58021428Y-83424819D01*
X58021428Y-83424819D02*
X58116666Y-83424819D01*
X58116666Y-83424819D02*
X58259523Y-83472438D01*
X58259523Y-83472438D02*
X58307142Y-83520057D01*
X59259523Y-84424819D02*
X58688095Y-84424819D01*
X58973809Y-84424819D02*
X58973809Y-83424819D01*
X58973809Y-83424819D02*
X58878571Y-83567676D01*
X58878571Y-83567676D02*
X58783333Y-83662914D01*
X58783333Y-83662914D02*
X58688095Y-83710533D01*
X59592857Y-83424819D02*
X60259523Y-83424819D01*
X60259523Y-83424819D02*
X59830952Y-84424819D01*
X53398095Y-79144819D02*
X53398095Y-79954342D01*
X53398095Y-79954342D02*
X53445714Y-80049580D01*
X53445714Y-80049580D02*
X53493333Y-80097200D01*
X53493333Y-80097200D02*
X53588571Y-80144819D01*
X53588571Y-80144819D02*
X53779047Y-80144819D01*
X53779047Y-80144819D02*
X53874285Y-80097200D01*
X53874285Y-80097200D02*
X53921904Y-80049580D01*
X53921904Y-80049580D02*
X53969523Y-79954342D01*
X53969523Y-79954342D02*
X53969523Y-79144819D01*
X54398095Y-79240057D02*
X54445714Y-79192438D01*
X54445714Y-79192438D02*
X54540952Y-79144819D01*
X54540952Y-79144819D02*
X54779047Y-79144819D01*
X54779047Y-79144819D02*
X54874285Y-79192438D01*
X54874285Y-79192438D02*
X54921904Y-79240057D01*
X54921904Y-79240057D02*
X54969523Y-79335295D01*
X54969523Y-79335295D02*
X54969523Y-79430533D01*
X54969523Y-79430533D02*
X54921904Y-79573390D01*
X54921904Y-79573390D02*
X54350476Y-80144819D01*
X54350476Y-80144819D02*
X54969523Y-80144819D01*
X57977142Y-83089580D02*
X57929523Y-83137200D01*
X57929523Y-83137200D02*
X57786666Y-83184819D01*
X57786666Y-83184819D02*
X57691428Y-83184819D01*
X57691428Y-83184819D02*
X57548571Y-83137200D01*
X57548571Y-83137200D02*
X57453333Y-83041961D01*
X57453333Y-83041961D02*
X57405714Y-82946723D01*
X57405714Y-82946723D02*
X57358095Y-82756247D01*
X57358095Y-82756247D02*
X57358095Y-82613390D01*
X57358095Y-82613390D02*
X57405714Y-82422914D01*
X57405714Y-82422914D02*
X57453333Y-82327676D01*
X57453333Y-82327676D02*
X57548571Y-82232438D01*
X57548571Y-82232438D02*
X57691428Y-82184819D01*
X57691428Y-82184819D02*
X57786666Y-82184819D01*
X57786666Y-82184819D02*
X57929523Y-82232438D01*
X57929523Y-82232438D02*
X57977142Y-82280057D01*
X58929523Y-83184819D02*
X58358095Y-83184819D01*
X58643809Y-83184819D02*
X58643809Y-82184819D01*
X58643809Y-82184819D02*
X58548571Y-82327676D01*
X58548571Y-82327676D02*
X58453333Y-82422914D01*
X58453333Y-82422914D02*
X58358095Y-82470533D01*
X59786666Y-82184819D02*
X59596190Y-82184819D01*
X59596190Y-82184819D02*
X59500952Y-82232438D01*
X59500952Y-82232438D02*
X59453333Y-82280057D01*
X59453333Y-82280057D02*
X59358095Y-82422914D01*
X59358095Y-82422914D02*
X59310476Y-82613390D01*
X59310476Y-82613390D02*
X59310476Y-82994342D01*
X59310476Y-82994342D02*
X59358095Y-83089580D01*
X59358095Y-83089580D02*
X59405714Y-83137200D01*
X59405714Y-83137200D02*
X59500952Y-83184819D01*
X59500952Y-83184819D02*
X59691428Y-83184819D01*
X59691428Y-83184819D02*
X59786666Y-83137200D01*
X59786666Y-83137200D02*
X59834285Y-83089580D01*
X59834285Y-83089580D02*
X59881904Y-82994342D01*
X59881904Y-82994342D02*
X59881904Y-82756247D01*
X59881904Y-82756247D02*
X59834285Y-82661009D01*
X59834285Y-82661009D02*
X59786666Y-82613390D01*
X59786666Y-82613390D02*
X59691428Y-82565771D01*
X59691428Y-82565771D02*
X59500952Y-82565771D01*
X59500952Y-82565771D02*
X59405714Y-82613390D01*
X59405714Y-82613390D02*
X59358095Y-82661009D01*
X59358095Y-82661009D02*
X59310476Y-82756247D01*
X64817142Y-74669580D02*
X64769523Y-74717200D01*
X64769523Y-74717200D02*
X64626666Y-74764819D01*
X64626666Y-74764819D02*
X64531428Y-74764819D01*
X64531428Y-74764819D02*
X64388571Y-74717200D01*
X64388571Y-74717200D02*
X64293333Y-74621961D01*
X64293333Y-74621961D02*
X64245714Y-74526723D01*
X64245714Y-74526723D02*
X64198095Y-74336247D01*
X64198095Y-74336247D02*
X64198095Y-74193390D01*
X64198095Y-74193390D02*
X64245714Y-74002914D01*
X64245714Y-74002914D02*
X64293333Y-73907676D01*
X64293333Y-73907676D02*
X64388571Y-73812438D01*
X64388571Y-73812438D02*
X64531428Y-73764819D01*
X64531428Y-73764819D02*
X64626666Y-73764819D01*
X64626666Y-73764819D02*
X64769523Y-73812438D01*
X64769523Y-73812438D02*
X64817142Y-73860057D01*
X65769523Y-74764819D02*
X65198095Y-74764819D01*
X65483809Y-74764819D02*
X65483809Y-73764819D01*
X65483809Y-73764819D02*
X65388571Y-73907676D01*
X65388571Y-73907676D02*
X65293333Y-74002914D01*
X65293333Y-74002914D02*
X65198095Y-74050533D01*
X66102857Y-73764819D02*
X66721904Y-73764819D01*
X66721904Y-73764819D02*
X66388571Y-74145771D01*
X66388571Y-74145771D02*
X66531428Y-74145771D01*
X66531428Y-74145771D02*
X66626666Y-74193390D01*
X66626666Y-74193390D02*
X66674285Y-74241009D01*
X66674285Y-74241009D02*
X66721904Y-74336247D01*
X66721904Y-74336247D02*
X66721904Y-74574342D01*
X66721904Y-74574342D02*
X66674285Y-74669580D01*
X66674285Y-74669580D02*
X66626666Y-74717200D01*
X66626666Y-74717200D02*
X66531428Y-74764819D01*
X66531428Y-74764819D02*
X66245714Y-74764819D01*
X66245714Y-74764819D02*
X66150476Y-74717200D01*
X66150476Y-74717200D02*
X66102857Y-74669580D01*
X66539405Y-80074819D02*
X66539405Y-79074819D01*
X66539405Y-79074819D02*
X66777500Y-79074819D01*
X66777500Y-79074819D02*
X66920357Y-79122438D01*
X66920357Y-79122438D02*
X67015595Y-79217676D01*
X67015595Y-79217676D02*
X67063214Y-79312914D01*
X67063214Y-79312914D02*
X67110833Y-79503390D01*
X67110833Y-79503390D02*
X67110833Y-79646247D01*
X67110833Y-79646247D02*
X67063214Y-79836723D01*
X67063214Y-79836723D02*
X67015595Y-79931961D01*
X67015595Y-79931961D02*
X66920357Y-80027200D01*
X66920357Y-80027200D02*
X66777500Y-80074819D01*
X66777500Y-80074819D02*
X66539405Y-80074819D01*
X67491786Y-79170057D02*
X67539405Y-79122438D01*
X67539405Y-79122438D02*
X67634643Y-79074819D01*
X67634643Y-79074819D02*
X67872738Y-79074819D01*
X67872738Y-79074819D02*
X67967976Y-79122438D01*
X67967976Y-79122438D02*
X68015595Y-79170057D01*
X68015595Y-79170057D02*
X68063214Y-79265295D01*
X68063214Y-79265295D02*
X68063214Y-79360533D01*
X68063214Y-79360533D02*
X68015595Y-79503390D01*
X68015595Y-79503390D02*
X67444167Y-80074819D01*
X67444167Y-80074819D02*
X68063214Y-80074819D01*
X70194819Y-77196666D02*
X69718628Y-77529999D01*
X70194819Y-77768094D02*
X69194819Y-77768094D01*
X69194819Y-77768094D02*
X69194819Y-77387142D01*
X69194819Y-77387142D02*
X69242438Y-77291904D01*
X69242438Y-77291904D02*
X69290057Y-77244285D01*
X69290057Y-77244285D02*
X69385295Y-77196666D01*
X69385295Y-77196666D02*
X69528152Y-77196666D01*
X69528152Y-77196666D02*
X69623390Y-77244285D01*
X69623390Y-77244285D02*
X69671009Y-77291904D01*
X69671009Y-77291904D02*
X69718628Y-77387142D01*
X69718628Y-77387142D02*
X69718628Y-77768094D01*
X69194819Y-76291904D02*
X69194819Y-76768094D01*
X69194819Y-76768094D02*
X69671009Y-76815713D01*
X69671009Y-76815713D02*
X69623390Y-76768094D01*
X69623390Y-76768094D02*
X69575771Y-76672856D01*
X69575771Y-76672856D02*
X69575771Y-76434761D01*
X69575771Y-76434761D02*
X69623390Y-76339523D01*
X69623390Y-76339523D02*
X69671009Y-76291904D01*
X69671009Y-76291904D02*
X69766247Y-76244285D01*
X69766247Y-76244285D02*
X70004342Y-76244285D01*
X70004342Y-76244285D02*
X70099580Y-76291904D01*
X70099580Y-76291904D02*
X70147200Y-76339523D01*
X70147200Y-76339523D02*
X70194819Y-76434761D01*
X70194819Y-76434761D02*
X70194819Y-76672856D01*
X70194819Y-76672856D02*
X70147200Y-76768094D01*
X70147200Y-76768094D02*
X70099580Y-76815713D01*
X66463333Y-70404819D02*
X66130000Y-69928628D01*
X65891905Y-70404819D02*
X65891905Y-69404819D01*
X65891905Y-69404819D02*
X66272857Y-69404819D01*
X66272857Y-69404819D02*
X66368095Y-69452438D01*
X66368095Y-69452438D02*
X66415714Y-69500057D01*
X66415714Y-69500057D02*
X66463333Y-69595295D01*
X66463333Y-69595295D02*
X66463333Y-69738152D01*
X66463333Y-69738152D02*
X66415714Y-69833390D01*
X66415714Y-69833390D02*
X66368095Y-69881009D01*
X66368095Y-69881009D02*
X66272857Y-69928628D01*
X66272857Y-69928628D02*
X65891905Y-69928628D01*
X66796667Y-69404819D02*
X67463333Y-69404819D01*
X67463333Y-69404819D02*
X67034762Y-70404819D01*
X55773333Y-83319580D02*
X55725714Y-83367200D01*
X55725714Y-83367200D02*
X55582857Y-83414819D01*
X55582857Y-83414819D02*
X55487619Y-83414819D01*
X55487619Y-83414819D02*
X55344762Y-83367200D01*
X55344762Y-83367200D02*
X55249524Y-83271961D01*
X55249524Y-83271961D02*
X55201905Y-83176723D01*
X55201905Y-83176723D02*
X55154286Y-82986247D01*
X55154286Y-82986247D02*
X55154286Y-82843390D01*
X55154286Y-82843390D02*
X55201905Y-82652914D01*
X55201905Y-82652914D02*
X55249524Y-82557676D01*
X55249524Y-82557676D02*
X55344762Y-82462438D01*
X55344762Y-82462438D02*
X55487619Y-82414819D01*
X55487619Y-82414819D02*
X55582857Y-82414819D01*
X55582857Y-82414819D02*
X55725714Y-82462438D01*
X55725714Y-82462438D02*
X55773333Y-82510057D01*
X56106667Y-82414819D02*
X56773333Y-82414819D01*
X56773333Y-82414819D02*
X56344762Y-83414819D01*
X52683333Y-83309580D02*
X52635714Y-83357200D01*
X52635714Y-83357200D02*
X52492857Y-83404819D01*
X52492857Y-83404819D02*
X52397619Y-83404819D01*
X52397619Y-83404819D02*
X52254762Y-83357200D01*
X52254762Y-83357200D02*
X52159524Y-83261961D01*
X52159524Y-83261961D02*
X52111905Y-83166723D01*
X52111905Y-83166723D02*
X52064286Y-82976247D01*
X52064286Y-82976247D02*
X52064286Y-82833390D01*
X52064286Y-82833390D02*
X52111905Y-82642914D01*
X52111905Y-82642914D02*
X52159524Y-82547676D01*
X52159524Y-82547676D02*
X52254762Y-82452438D01*
X52254762Y-82452438D02*
X52397619Y-82404819D01*
X52397619Y-82404819D02*
X52492857Y-82404819D01*
X52492857Y-82404819D02*
X52635714Y-82452438D01*
X52635714Y-82452438D02*
X52683333Y-82500057D01*
X53635714Y-83404819D02*
X53064286Y-83404819D01*
X53350000Y-83404819D02*
X53350000Y-82404819D01*
X53350000Y-82404819D02*
X53254762Y-82547676D01*
X53254762Y-82547676D02*
X53159524Y-82642914D01*
X53159524Y-82642914D02*
X53064286Y-82690533D01*
X46374819Y-77337619D02*
X45898628Y-77670952D01*
X46374819Y-77909047D02*
X45374819Y-77909047D01*
X45374819Y-77909047D02*
X45374819Y-77528095D01*
X45374819Y-77528095D02*
X45422438Y-77432857D01*
X45422438Y-77432857D02*
X45470057Y-77385238D01*
X45470057Y-77385238D02*
X45565295Y-77337619D01*
X45565295Y-77337619D02*
X45708152Y-77337619D01*
X45708152Y-77337619D02*
X45803390Y-77385238D01*
X45803390Y-77385238D02*
X45851009Y-77432857D01*
X45851009Y-77432857D02*
X45898628Y-77528095D01*
X45898628Y-77528095D02*
X45898628Y-77909047D01*
X46327200Y-76956666D02*
X46374819Y-76813809D01*
X46374819Y-76813809D02*
X46374819Y-76575714D01*
X46374819Y-76575714D02*
X46327200Y-76480476D01*
X46327200Y-76480476D02*
X46279580Y-76432857D01*
X46279580Y-76432857D02*
X46184342Y-76385238D01*
X46184342Y-76385238D02*
X46089104Y-76385238D01*
X46089104Y-76385238D02*
X45993866Y-76432857D01*
X45993866Y-76432857D02*
X45946247Y-76480476D01*
X45946247Y-76480476D02*
X45898628Y-76575714D01*
X45898628Y-76575714D02*
X45851009Y-76766190D01*
X45851009Y-76766190D02*
X45803390Y-76861428D01*
X45803390Y-76861428D02*
X45755771Y-76909047D01*
X45755771Y-76909047D02*
X45660533Y-76956666D01*
X45660533Y-76956666D02*
X45565295Y-76956666D01*
X45565295Y-76956666D02*
X45470057Y-76909047D01*
X45470057Y-76909047D02*
X45422438Y-76861428D01*
X45422438Y-76861428D02*
X45374819Y-76766190D01*
X45374819Y-76766190D02*
X45374819Y-76528095D01*
X45374819Y-76528095D02*
X45422438Y-76385238D01*
X45374819Y-76099523D02*
X45374819Y-75528095D01*
X46374819Y-75813809D02*
X45374819Y-75813809D01*
X47036666Y-84001009D02*
X47179523Y-84048628D01*
X47179523Y-84048628D02*
X47227142Y-84096247D01*
X47227142Y-84096247D02*
X47274761Y-84191485D01*
X47274761Y-84191485D02*
X47274761Y-84334342D01*
X47274761Y-84334342D02*
X47227142Y-84429580D01*
X47227142Y-84429580D02*
X47179523Y-84477200D01*
X47179523Y-84477200D02*
X47084285Y-84524819D01*
X47084285Y-84524819D02*
X46703333Y-84524819D01*
X46703333Y-84524819D02*
X46703333Y-83524819D01*
X46703333Y-83524819D02*
X47036666Y-83524819D01*
X47036666Y-83524819D02*
X47131904Y-83572438D01*
X47131904Y-83572438D02*
X47179523Y-83620057D01*
X47179523Y-83620057D02*
X47227142Y-83715295D01*
X47227142Y-83715295D02*
X47227142Y-83810533D01*
X47227142Y-83810533D02*
X47179523Y-83905771D01*
X47179523Y-83905771D02*
X47131904Y-83953390D01*
X47131904Y-83953390D02*
X47036666Y-84001009D01*
X47036666Y-84001009D02*
X46703333Y-84001009D01*
X47893809Y-83524819D02*
X48084285Y-83524819D01*
X48084285Y-83524819D02*
X48179523Y-83572438D01*
X48179523Y-83572438D02*
X48274761Y-83667676D01*
X48274761Y-83667676D02*
X48322380Y-83858152D01*
X48322380Y-83858152D02*
X48322380Y-84191485D01*
X48322380Y-84191485D02*
X48274761Y-84381961D01*
X48274761Y-84381961D02*
X48179523Y-84477200D01*
X48179523Y-84477200D02*
X48084285Y-84524819D01*
X48084285Y-84524819D02*
X47893809Y-84524819D01*
X47893809Y-84524819D02*
X47798571Y-84477200D01*
X47798571Y-84477200D02*
X47703333Y-84381961D01*
X47703333Y-84381961D02*
X47655714Y-84191485D01*
X47655714Y-84191485D02*
X47655714Y-83858152D01*
X47655714Y-83858152D02*
X47703333Y-83667676D01*
X47703333Y-83667676D02*
X47798571Y-83572438D01*
X47798571Y-83572438D02*
X47893809Y-83524819D01*
X48941428Y-83524819D02*
X49131904Y-83524819D01*
X49131904Y-83524819D02*
X49227142Y-83572438D01*
X49227142Y-83572438D02*
X49322380Y-83667676D01*
X49322380Y-83667676D02*
X49369999Y-83858152D01*
X49369999Y-83858152D02*
X49369999Y-84191485D01*
X49369999Y-84191485D02*
X49322380Y-84381961D01*
X49322380Y-84381961D02*
X49227142Y-84477200D01*
X49227142Y-84477200D02*
X49131904Y-84524819D01*
X49131904Y-84524819D02*
X48941428Y-84524819D01*
X48941428Y-84524819D02*
X48846190Y-84477200D01*
X48846190Y-84477200D02*
X48750952Y-84381961D01*
X48750952Y-84381961D02*
X48703333Y-84191485D01*
X48703333Y-84191485D02*
X48703333Y-83858152D01*
X48703333Y-83858152D02*
X48750952Y-83667676D01*
X48750952Y-83667676D02*
X48846190Y-83572438D01*
X48846190Y-83572438D02*
X48941428Y-83524819D01*
X49655714Y-83524819D02*
X50227142Y-83524819D01*
X49941428Y-84524819D02*
X49941428Y-83524819D01*
X50750952Y-83524819D02*
X50846190Y-83524819D01*
X50846190Y-83524819D02*
X50941428Y-83572438D01*
X50941428Y-83572438D02*
X50989047Y-83620057D01*
X50989047Y-83620057D02*
X51036666Y-83715295D01*
X51036666Y-83715295D02*
X51084285Y-83905771D01*
X51084285Y-83905771D02*
X51084285Y-84143866D01*
X51084285Y-84143866D02*
X51036666Y-84334342D01*
X51036666Y-84334342D02*
X50989047Y-84429580D01*
X50989047Y-84429580D02*
X50941428Y-84477200D01*
X50941428Y-84477200D02*
X50846190Y-84524819D01*
X50846190Y-84524819D02*
X50750952Y-84524819D01*
X50750952Y-84524819D02*
X50655714Y-84477200D01*
X50655714Y-84477200D02*
X50608095Y-84429580D01*
X50608095Y-84429580D02*
X50560476Y-84334342D01*
X50560476Y-84334342D02*
X50512857Y-84143866D01*
X50512857Y-84143866D02*
X50512857Y-83905771D01*
X50512857Y-83905771D02*
X50560476Y-83715295D01*
X50560476Y-83715295D02*
X50608095Y-83620057D01*
X50608095Y-83620057D02*
X50655714Y-83572438D01*
X50655714Y-83572438D02*
X50750952Y-83524819D01*
X55624819Y-54502380D02*
X54624819Y-54502380D01*
X54720057Y-54073809D02*
X54672438Y-54026190D01*
X54672438Y-54026190D02*
X54624819Y-53930952D01*
X54624819Y-53930952D02*
X54624819Y-53692857D01*
X54624819Y-53692857D02*
X54672438Y-53597619D01*
X54672438Y-53597619D02*
X54720057Y-53550000D01*
X54720057Y-53550000D02*
X54815295Y-53502381D01*
X54815295Y-53502381D02*
X54910533Y-53502381D01*
X54910533Y-53502381D02*
X55053390Y-53550000D01*
X55053390Y-53550000D02*
X55624819Y-54121428D01*
X55624819Y-54121428D02*
X55624819Y-53502381D01*
X55529580Y-52502381D02*
X55577200Y-52550000D01*
X55577200Y-52550000D02*
X55624819Y-52692857D01*
X55624819Y-52692857D02*
X55624819Y-52788095D01*
X55624819Y-52788095D02*
X55577200Y-52930952D01*
X55577200Y-52930952D02*
X55481961Y-53026190D01*
X55481961Y-53026190D02*
X55386723Y-53073809D01*
X55386723Y-53073809D02*
X55196247Y-53121428D01*
X55196247Y-53121428D02*
X55053390Y-53121428D01*
X55053390Y-53121428D02*
X54862914Y-53073809D01*
X54862914Y-53073809D02*
X54767676Y-53026190D01*
X54767676Y-53026190D02*
X54672438Y-52930952D01*
X54672438Y-52930952D02*
X54624819Y-52788095D01*
X54624819Y-52788095D02*
X54624819Y-52692857D01*
X54624819Y-52692857D02*
X54672438Y-52550000D01*
X54672438Y-52550000D02*
X54720057Y-52502381D01*
X55624819Y-51550000D02*
X55624819Y-52121428D01*
X55624819Y-51835714D02*
X54624819Y-51835714D01*
X54624819Y-51835714D02*
X54767676Y-51930952D01*
X54767676Y-51930952D02*
X54862914Y-52026190D01*
X54862914Y-52026190D02*
X54910533Y-52121428D01*
X61439048Y-57764819D02*
X61439048Y-56764819D01*
X61439048Y-56764819D02*
X61820000Y-56764819D01*
X61820000Y-56764819D02*
X61915238Y-56812438D01*
X61915238Y-56812438D02*
X61962857Y-56860057D01*
X61962857Y-56860057D02*
X62010476Y-56955295D01*
X62010476Y-56955295D02*
X62010476Y-57098152D01*
X62010476Y-57098152D02*
X61962857Y-57193390D01*
X61962857Y-57193390D02*
X61915238Y-57241009D01*
X61915238Y-57241009D02*
X61820000Y-57288628D01*
X61820000Y-57288628D02*
X61439048Y-57288628D01*
X62343810Y-56764819D02*
X62581905Y-57764819D01*
X62581905Y-57764819D02*
X62772381Y-57050533D01*
X62772381Y-57050533D02*
X62962857Y-57764819D01*
X62962857Y-57764819D02*
X63200953Y-56764819D01*
X63581905Y-57764819D02*
X63581905Y-56764819D01*
X63581905Y-56764819D02*
X63915238Y-57479104D01*
X63915238Y-57479104D02*
X64248571Y-56764819D01*
X64248571Y-56764819D02*
X64248571Y-57764819D01*
X65248571Y-57764819D02*
X64677143Y-57764819D01*
X64962857Y-57764819D02*
X64962857Y-56764819D01*
X64962857Y-56764819D02*
X64867619Y-56907676D01*
X64867619Y-56907676D02*
X64772381Y-57002914D01*
X64772381Y-57002914D02*
X64677143Y-57050533D01*
D12*
X50309999Y-73562616D02*
X50276666Y-73595950D01*
X50276666Y-73595950D02*
X50176666Y-73629283D01*
X50176666Y-73629283D02*
X50109999Y-73629283D01*
X50109999Y-73629283D02*
X50009999Y-73595950D01*
X50009999Y-73595950D02*
X49943333Y-73529283D01*
X49943333Y-73529283D02*
X49909999Y-73462616D01*
X49909999Y-73462616D02*
X49876666Y-73329283D01*
X49876666Y-73329283D02*
X49876666Y-73229283D01*
X49876666Y-73229283D02*
X49909999Y-73095950D01*
X49909999Y-73095950D02*
X49943333Y-73029283D01*
X49943333Y-73029283D02*
X50009999Y-72962616D01*
X50009999Y-72962616D02*
X50109999Y-72929283D01*
X50109999Y-72929283D02*
X50176666Y-72929283D01*
X50176666Y-72929283D02*
X50276666Y-72962616D01*
X50276666Y-72962616D02*
X50309999Y-72995950D01*
X50976666Y-73629283D02*
X50576666Y-73629283D01*
X50776666Y-73629283D02*
X50776666Y-72929283D01*
X50776666Y-72929283D02*
X50709999Y-73029283D01*
X50709999Y-73029283D02*
X50643333Y-73095950D01*
X50643333Y-73095950D02*
X50576666Y-73129283D01*
X51610000Y-72929283D02*
X51276666Y-72929283D01*
X51276666Y-72929283D02*
X51243333Y-73262616D01*
X51243333Y-73262616D02*
X51276666Y-73229283D01*
X51276666Y-73229283D02*
X51343333Y-73195950D01*
X51343333Y-73195950D02*
X51510000Y-73195950D01*
X51510000Y-73195950D02*
X51576666Y-73229283D01*
X51576666Y-73229283D02*
X51610000Y-73262616D01*
X51610000Y-73262616D02*
X51643333Y-73329283D01*
X51643333Y-73329283D02*
X51643333Y-73495950D01*
X51643333Y-73495950D02*
X51610000Y-73562616D01*
X51610000Y-73562616D02*
X51576666Y-73595950D01*
X51576666Y-73595950D02*
X51510000Y-73629283D01*
X51510000Y-73629283D02*
X51343333Y-73629283D01*
X51343333Y-73629283D02*
X51276666Y-73595950D01*
X51276666Y-73595950D02*
X51243333Y-73562616D01*
D11*
X62843333Y-70609580D02*
X62795714Y-70657200D01*
X62795714Y-70657200D02*
X62652857Y-70704819D01*
X62652857Y-70704819D02*
X62557619Y-70704819D01*
X62557619Y-70704819D02*
X62414762Y-70657200D01*
X62414762Y-70657200D02*
X62319524Y-70561961D01*
X62319524Y-70561961D02*
X62271905Y-70466723D01*
X62271905Y-70466723D02*
X62224286Y-70276247D01*
X62224286Y-70276247D02*
X62224286Y-70133390D01*
X62224286Y-70133390D02*
X62271905Y-69942914D01*
X62271905Y-69942914D02*
X62319524Y-69847676D01*
X62319524Y-69847676D02*
X62414762Y-69752438D01*
X62414762Y-69752438D02*
X62557619Y-69704819D01*
X62557619Y-69704819D02*
X62652857Y-69704819D01*
X62652857Y-69704819D02*
X62795714Y-69752438D01*
X62795714Y-69752438D02*
X62843333Y-69800057D01*
X63224286Y-69800057D02*
X63271905Y-69752438D01*
X63271905Y-69752438D02*
X63367143Y-69704819D01*
X63367143Y-69704819D02*
X63605238Y-69704819D01*
X63605238Y-69704819D02*
X63700476Y-69752438D01*
X63700476Y-69752438D02*
X63748095Y-69800057D01*
X63748095Y-69800057D02*
X63795714Y-69895295D01*
X63795714Y-69895295D02*
X63795714Y-69990533D01*
X63795714Y-69990533D02*
X63748095Y-70133390D01*
X63748095Y-70133390D02*
X63176667Y-70704819D01*
X63176667Y-70704819D02*
X63795714Y-70704819D01*
D10*
X45149800Y-73417142D02*
X45197419Y-73274285D01*
X45197419Y-73274285D02*
X45197419Y-73036190D01*
X45197419Y-73036190D02*
X45149800Y-72940952D01*
X45149800Y-72940952D02*
X45102180Y-72893333D01*
X45102180Y-72893333D02*
X45006942Y-72845714D01*
X45006942Y-72845714D02*
X44911704Y-72845714D01*
X44911704Y-72845714D02*
X44816466Y-72893333D01*
X44816466Y-72893333D02*
X44768847Y-72940952D01*
X44768847Y-72940952D02*
X44721228Y-73036190D01*
X44721228Y-73036190D02*
X44673609Y-73226666D01*
X44673609Y-73226666D02*
X44625990Y-73321904D01*
X44625990Y-73321904D02*
X44578371Y-73369523D01*
X44578371Y-73369523D02*
X44483133Y-73417142D01*
X44483133Y-73417142D02*
X44387895Y-73417142D01*
X44387895Y-73417142D02*
X44292657Y-73369523D01*
X44292657Y-73369523D02*
X44245038Y-73321904D01*
X44245038Y-73321904D02*
X44197419Y-73226666D01*
X44197419Y-73226666D02*
X44197419Y-72988571D01*
X44197419Y-72988571D02*
X44245038Y-72845714D01*
X44197419Y-72512380D02*
X45197419Y-72274285D01*
X45197419Y-72274285D02*
X44483133Y-72083809D01*
X44483133Y-72083809D02*
X45197419Y-71893333D01*
X45197419Y-71893333D02*
X44197419Y-71655238D01*
X45197419Y-71274285D02*
X44197419Y-71274285D01*
X44197419Y-71274285D02*
X44197419Y-71036190D01*
X44197419Y-71036190D02*
X44245038Y-70893333D01*
X44245038Y-70893333D02*
X44340276Y-70798095D01*
X44340276Y-70798095D02*
X44435514Y-70750476D01*
X44435514Y-70750476D02*
X44625990Y-70702857D01*
X44625990Y-70702857D02*
X44768847Y-70702857D01*
X44768847Y-70702857D02*
X44959323Y-70750476D01*
X44959323Y-70750476D02*
X45054561Y-70798095D01*
X45054561Y-70798095D02*
X45149800Y-70893333D01*
X45149800Y-70893333D02*
X45197419Y-71036190D01*
X45197419Y-71036190D02*
X45197419Y-71274285D01*
D11*
X45373333Y-59629580D02*
X45325714Y-59677200D01*
X45325714Y-59677200D02*
X45182857Y-59724819D01*
X45182857Y-59724819D02*
X45087619Y-59724819D01*
X45087619Y-59724819D02*
X44944762Y-59677200D01*
X44944762Y-59677200D02*
X44849524Y-59581961D01*
X44849524Y-59581961D02*
X44801905Y-59486723D01*
X44801905Y-59486723D02*
X44754286Y-59296247D01*
X44754286Y-59296247D02*
X44754286Y-59153390D01*
X44754286Y-59153390D02*
X44801905Y-58962914D01*
X44801905Y-58962914D02*
X44849524Y-58867676D01*
X44849524Y-58867676D02*
X44944762Y-58772438D01*
X44944762Y-58772438D02*
X45087619Y-58724819D01*
X45087619Y-58724819D02*
X45182857Y-58724819D01*
X45182857Y-58724819D02*
X45325714Y-58772438D01*
X45325714Y-58772438D02*
X45373333Y-58820057D01*
X45944762Y-59153390D02*
X45849524Y-59105771D01*
X45849524Y-59105771D02*
X45801905Y-59058152D01*
X45801905Y-59058152D02*
X45754286Y-58962914D01*
X45754286Y-58962914D02*
X45754286Y-58915295D01*
X45754286Y-58915295D02*
X45801905Y-58820057D01*
X45801905Y-58820057D02*
X45849524Y-58772438D01*
X45849524Y-58772438D02*
X45944762Y-58724819D01*
X45944762Y-58724819D02*
X46135238Y-58724819D01*
X46135238Y-58724819D02*
X46230476Y-58772438D01*
X46230476Y-58772438D02*
X46278095Y-58820057D01*
X46278095Y-58820057D02*
X46325714Y-58915295D01*
X46325714Y-58915295D02*
X46325714Y-58962914D01*
X46325714Y-58962914D02*
X46278095Y-59058152D01*
X46278095Y-59058152D02*
X46230476Y-59105771D01*
X46230476Y-59105771D02*
X46135238Y-59153390D01*
X46135238Y-59153390D02*
X45944762Y-59153390D01*
X45944762Y-59153390D02*
X45849524Y-59201009D01*
X45849524Y-59201009D02*
X45801905Y-59248628D01*
X45801905Y-59248628D02*
X45754286Y-59343866D01*
X45754286Y-59343866D02*
X45754286Y-59534342D01*
X45754286Y-59534342D02*
X45801905Y-59629580D01*
X45801905Y-59629580D02*
X45849524Y-59677200D01*
X45849524Y-59677200D02*
X45944762Y-59724819D01*
X45944762Y-59724819D02*
X46135238Y-59724819D01*
X46135238Y-59724819D02*
X46230476Y-59677200D01*
X46230476Y-59677200D02*
X46278095Y-59629580D01*
X46278095Y-59629580D02*
X46325714Y-59534342D01*
X46325714Y-59534342D02*
X46325714Y-59343866D01*
X46325714Y-59343866D02*
X46278095Y-59248628D01*
X46278095Y-59248628D02*
X46230476Y-59201009D01*
X46230476Y-59201009D02*
X46135238Y-59153390D01*
D12*
X52443333Y-57392616D02*
X52410000Y-57425950D01*
X52410000Y-57425950D02*
X52310000Y-57459283D01*
X52310000Y-57459283D02*
X52243333Y-57459283D01*
X52243333Y-57459283D02*
X52143333Y-57425950D01*
X52143333Y-57425950D02*
X52076667Y-57359283D01*
X52076667Y-57359283D02*
X52043333Y-57292616D01*
X52043333Y-57292616D02*
X52010000Y-57159283D01*
X52010000Y-57159283D02*
X52010000Y-57059283D01*
X52010000Y-57059283D02*
X52043333Y-56925950D01*
X52043333Y-56925950D02*
X52076667Y-56859283D01*
X52076667Y-56859283D02*
X52143333Y-56792616D01*
X52143333Y-56792616D02*
X52243333Y-56759283D01*
X52243333Y-56759283D02*
X52310000Y-56759283D01*
X52310000Y-56759283D02*
X52410000Y-56792616D01*
X52410000Y-56792616D02*
X52443333Y-56825950D01*
X53043333Y-56992616D02*
X53043333Y-57459283D01*
X52876667Y-56725950D02*
X52710000Y-57225950D01*
X52710000Y-57225950D02*
X53143333Y-57225950D01*
X49262616Y-60580000D02*
X49295950Y-60613333D01*
X49295950Y-60613333D02*
X49329283Y-60713333D01*
X49329283Y-60713333D02*
X49329283Y-60780000D01*
X49329283Y-60780000D02*
X49295950Y-60880000D01*
X49295950Y-60880000D02*
X49229283Y-60946667D01*
X49229283Y-60946667D02*
X49162616Y-60980000D01*
X49162616Y-60980000D02*
X49029283Y-61013333D01*
X49029283Y-61013333D02*
X48929283Y-61013333D01*
X48929283Y-61013333D02*
X48795950Y-60980000D01*
X48795950Y-60980000D02*
X48729283Y-60946667D01*
X48729283Y-60946667D02*
X48662616Y-60880000D01*
X48662616Y-60880000D02*
X48629283Y-60780000D01*
X48629283Y-60780000D02*
X48629283Y-60713333D01*
X48629283Y-60713333D02*
X48662616Y-60613333D01*
X48662616Y-60613333D02*
X48695950Y-60580000D01*
X49329283Y-59913333D02*
X49329283Y-60313333D01*
X49329283Y-60113333D02*
X48629283Y-60113333D01*
X48629283Y-60113333D02*
X48729283Y-60180000D01*
X48729283Y-60180000D02*
X48795950Y-60246667D01*
X48795950Y-60246667D02*
X48829283Y-60313333D01*
X48862616Y-59313333D02*
X49329283Y-59313333D01*
X48595950Y-59480000D02*
X49095950Y-59646666D01*
X49095950Y-59646666D02*
X49095950Y-59213333D01*
D11*
X42958628Y-63146190D02*
X43434819Y-63146190D01*
X42434819Y-63479523D02*
X42958628Y-63146190D01*
X42958628Y-63146190D02*
X42434819Y-62812857D01*
X43434819Y-61955714D02*
X43434819Y-62527142D01*
X43434819Y-62241428D02*
X42434819Y-62241428D01*
X42434819Y-62241428D02*
X42577676Y-62336666D01*
X42577676Y-62336666D02*
X42672914Y-62431904D01*
X42672914Y-62431904D02*
X42720533Y-62527142D01*
X47909580Y-70026666D02*
X47957200Y-70074285D01*
X47957200Y-70074285D02*
X48004819Y-70217142D01*
X48004819Y-70217142D02*
X48004819Y-70312380D01*
X48004819Y-70312380D02*
X47957200Y-70455237D01*
X47957200Y-70455237D02*
X47861961Y-70550475D01*
X47861961Y-70550475D02*
X47766723Y-70598094D01*
X47766723Y-70598094D02*
X47576247Y-70645713D01*
X47576247Y-70645713D02*
X47433390Y-70645713D01*
X47433390Y-70645713D02*
X47242914Y-70598094D01*
X47242914Y-70598094D02*
X47147676Y-70550475D01*
X47147676Y-70550475D02*
X47052438Y-70455237D01*
X47052438Y-70455237D02*
X47004819Y-70312380D01*
X47004819Y-70312380D02*
X47004819Y-70217142D01*
X47004819Y-70217142D02*
X47052438Y-70074285D01*
X47052438Y-70074285D02*
X47100057Y-70026666D01*
X47004819Y-69693332D02*
X47004819Y-69074285D01*
X47004819Y-69074285D02*
X47385771Y-69407618D01*
X47385771Y-69407618D02*
X47385771Y-69264761D01*
X47385771Y-69264761D02*
X47433390Y-69169523D01*
X47433390Y-69169523D02*
X47481009Y-69121904D01*
X47481009Y-69121904D02*
X47576247Y-69074285D01*
X47576247Y-69074285D02*
X47814342Y-69074285D01*
X47814342Y-69074285D02*
X47909580Y-69121904D01*
X47909580Y-69121904D02*
X47957200Y-69169523D01*
X47957200Y-69169523D02*
X48004819Y-69264761D01*
X48004819Y-69264761D02*
X48004819Y-69550475D01*
X48004819Y-69550475D02*
X47957200Y-69645713D01*
X47957200Y-69645713D02*
X47909580Y-69693332D01*
X45093333Y-67369580D02*
X45045714Y-67417200D01*
X45045714Y-67417200D02*
X44902857Y-67464819D01*
X44902857Y-67464819D02*
X44807619Y-67464819D01*
X44807619Y-67464819D02*
X44664762Y-67417200D01*
X44664762Y-67417200D02*
X44569524Y-67321961D01*
X44569524Y-67321961D02*
X44521905Y-67226723D01*
X44521905Y-67226723D02*
X44474286Y-67036247D01*
X44474286Y-67036247D02*
X44474286Y-66893390D01*
X44474286Y-66893390D02*
X44521905Y-66702914D01*
X44521905Y-66702914D02*
X44569524Y-66607676D01*
X44569524Y-66607676D02*
X44664762Y-66512438D01*
X44664762Y-66512438D02*
X44807619Y-66464819D01*
X44807619Y-66464819D02*
X44902857Y-66464819D01*
X44902857Y-66464819D02*
X45045714Y-66512438D01*
X45045714Y-66512438D02*
X45093333Y-66560057D01*
X45569524Y-67464819D02*
X45760000Y-67464819D01*
X45760000Y-67464819D02*
X45855238Y-67417200D01*
X45855238Y-67417200D02*
X45902857Y-67369580D01*
X45902857Y-67369580D02*
X45998095Y-67226723D01*
X45998095Y-67226723D02*
X46045714Y-67036247D01*
X46045714Y-67036247D02*
X46045714Y-66655295D01*
X46045714Y-66655295D02*
X45998095Y-66560057D01*
X45998095Y-66560057D02*
X45950476Y-66512438D01*
X45950476Y-66512438D02*
X45855238Y-66464819D01*
X45855238Y-66464819D02*
X45664762Y-66464819D01*
X45664762Y-66464819D02*
X45569524Y-66512438D01*
X45569524Y-66512438D02*
X45521905Y-66560057D01*
X45521905Y-66560057D02*
X45474286Y-66655295D01*
X45474286Y-66655295D02*
X45474286Y-66893390D01*
X45474286Y-66893390D02*
X45521905Y-66988628D01*
X45521905Y-66988628D02*
X45569524Y-67036247D01*
X45569524Y-67036247D02*
X45664762Y-67083866D01*
X45664762Y-67083866D02*
X45855238Y-67083866D01*
X45855238Y-67083866D02*
X45950476Y-67036247D01*
X45950476Y-67036247D02*
X45998095Y-66988628D01*
X45998095Y-66988628D02*
X46045714Y-66893390D01*
D12*
X49373333Y-58599283D02*
X49140000Y-58265950D01*
X48973333Y-58599283D02*
X48973333Y-57899283D01*
X48973333Y-57899283D02*
X49240000Y-57899283D01*
X49240000Y-57899283D02*
X49306667Y-57932616D01*
X49306667Y-57932616D02*
X49340000Y-57965950D01*
X49340000Y-57965950D02*
X49373333Y-58032616D01*
X49373333Y-58032616D02*
X49373333Y-58132616D01*
X49373333Y-58132616D02*
X49340000Y-58199283D01*
X49340000Y-58199283D02*
X49306667Y-58232616D01*
X49306667Y-58232616D02*
X49240000Y-58265950D01*
X49240000Y-58265950D02*
X48973333Y-58265950D01*
X50040000Y-58599283D02*
X49640000Y-58599283D01*
X49840000Y-58599283D02*
X49840000Y-57899283D01*
X49840000Y-57899283D02*
X49773333Y-57999283D01*
X49773333Y-57999283D02*
X49706667Y-58065950D01*
X49706667Y-58065950D02*
X49640000Y-58099283D01*
X51449283Y-59376666D02*
X51115950Y-59609999D01*
X51449283Y-59776666D02*
X50749283Y-59776666D01*
X50749283Y-59776666D02*
X50749283Y-59509999D01*
X50749283Y-59509999D02*
X50782616Y-59443333D01*
X50782616Y-59443333D02*
X50815950Y-59409999D01*
X50815950Y-59409999D02*
X50882616Y-59376666D01*
X50882616Y-59376666D02*
X50982616Y-59376666D01*
X50982616Y-59376666D02*
X51049283Y-59409999D01*
X51049283Y-59409999D02*
X51082616Y-59443333D01*
X51082616Y-59443333D02*
X51115950Y-59509999D01*
X51115950Y-59509999D02*
X51115950Y-59776666D01*
X50815950Y-59109999D02*
X50782616Y-59076666D01*
X50782616Y-59076666D02*
X50749283Y-59009999D01*
X50749283Y-59009999D02*
X50749283Y-58843333D01*
X50749283Y-58843333D02*
X50782616Y-58776666D01*
X50782616Y-58776666D02*
X50815950Y-58743333D01*
X50815950Y-58743333D02*
X50882616Y-58709999D01*
X50882616Y-58709999D02*
X50949283Y-58709999D01*
X50949283Y-58709999D02*
X51049283Y-58743333D01*
X51049283Y-58743333D02*
X51449283Y-59143333D01*
X51449283Y-59143333D02*
X51449283Y-58709999D01*
D11*
X56124819Y-57616666D02*
X55648628Y-57949999D01*
X56124819Y-58188094D02*
X55124819Y-58188094D01*
X55124819Y-58188094D02*
X55124819Y-57807142D01*
X55124819Y-57807142D02*
X55172438Y-57711904D01*
X55172438Y-57711904D02*
X55220057Y-57664285D01*
X55220057Y-57664285D02*
X55315295Y-57616666D01*
X55315295Y-57616666D02*
X55458152Y-57616666D01*
X55458152Y-57616666D02*
X55553390Y-57664285D01*
X55553390Y-57664285D02*
X55601009Y-57711904D01*
X55601009Y-57711904D02*
X55648628Y-57807142D01*
X55648628Y-57807142D02*
X55648628Y-58188094D01*
X55458152Y-56759523D02*
X56124819Y-56759523D01*
X55077200Y-56997618D02*
X55791485Y-57235713D01*
X55791485Y-57235713D02*
X55791485Y-56616666D01*
X47726905Y-63504819D02*
X47726905Y-62504819D01*
X47726905Y-62504819D02*
X47965000Y-62504819D01*
X47965000Y-62504819D02*
X48107857Y-62552438D01*
X48107857Y-62552438D02*
X48203095Y-62647676D01*
X48203095Y-62647676D02*
X48250714Y-62742914D01*
X48250714Y-62742914D02*
X48298333Y-62933390D01*
X48298333Y-62933390D02*
X48298333Y-63076247D01*
X48298333Y-63076247D02*
X48250714Y-63266723D01*
X48250714Y-63266723D02*
X48203095Y-63361961D01*
X48203095Y-63361961D02*
X48107857Y-63457200D01*
X48107857Y-63457200D02*
X47965000Y-63504819D01*
X47965000Y-63504819D02*
X47726905Y-63504819D01*
X49250714Y-63504819D02*
X48679286Y-63504819D01*
X48965000Y-63504819D02*
X48965000Y-62504819D01*
X48965000Y-62504819D02*
X48869762Y-62647676D01*
X48869762Y-62647676D02*
X48774524Y-62742914D01*
X48774524Y-62742914D02*
X48679286Y-62790533D01*
D13*
X49224792Y-69329999D02*
X49267650Y-69372856D01*
X49267650Y-69372856D02*
X49310507Y-69501428D01*
X49310507Y-69501428D02*
X49310507Y-69587142D01*
X49310507Y-69587142D02*
X49267650Y-69715713D01*
X49267650Y-69715713D02*
X49181935Y-69801428D01*
X49181935Y-69801428D02*
X49096221Y-69844285D01*
X49096221Y-69844285D02*
X48924792Y-69887142D01*
X48924792Y-69887142D02*
X48796221Y-69887142D01*
X48796221Y-69887142D02*
X48624792Y-69844285D01*
X48624792Y-69844285D02*
X48539078Y-69801428D01*
X48539078Y-69801428D02*
X48453364Y-69715713D01*
X48453364Y-69715713D02*
X48410507Y-69587142D01*
X48410507Y-69587142D02*
X48410507Y-69501428D01*
X48410507Y-69501428D02*
X48453364Y-69372856D01*
X48453364Y-69372856D02*
X48496221Y-69329999D01*
X48410507Y-68515713D02*
X48410507Y-68944285D01*
X48410507Y-68944285D02*
X48839078Y-68987142D01*
X48839078Y-68987142D02*
X48796221Y-68944285D01*
X48796221Y-68944285D02*
X48753364Y-68858571D01*
X48753364Y-68858571D02*
X48753364Y-68644285D01*
X48753364Y-68644285D02*
X48796221Y-68558571D01*
X48796221Y-68558571D02*
X48839078Y-68515713D01*
X48839078Y-68515713D02*
X48924792Y-68472856D01*
X48924792Y-68472856D02*
X49139078Y-68472856D01*
X49139078Y-68472856D02*
X49224792Y-68515713D01*
X49224792Y-68515713D02*
X49267650Y-68558571D01*
X49267650Y-68558571D02*
X49310507Y-68644285D01*
X49310507Y-68644285D02*
X49310507Y-68858571D01*
X49310507Y-68858571D02*
X49267650Y-68944285D01*
X49267650Y-68944285D02*
X49224792Y-68987142D01*
D11*
X66419580Y-62382857D02*
X66467200Y-62430476D01*
X66467200Y-62430476D02*
X66514819Y-62573333D01*
X66514819Y-62573333D02*
X66514819Y-62668571D01*
X66514819Y-62668571D02*
X66467200Y-62811428D01*
X66467200Y-62811428D02*
X66371961Y-62906666D01*
X66371961Y-62906666D02*
X66276723Y-62954285D01*
X66276723Y-62954285D02*
X66086247Y-63001904D01*
X66086247Y-63001904D02*
X65943390Y-63001904D01*
X65943390Y-63001904D02*
X65752914Y-62954285D01*
X65752914Y-62954285D02*
X65657676Y-62906666D01*
X65657676Y-62906666D02*
X65562438Y-62811428D01*
X65562438Y-62811428D02*
X65514819Y-62668571D01*
X65514819Y-62668571D02*
X65514819Y-62573333D01*
X65514819Y-62573333D02*
X65562438Y-62430476D01*
X65562438Y-62430476D02*
X65610057Y-62382857D01*
X66514819Y-61430476D02*
X66514819Y-62001904D01*
X66514819Y-61716190D02*
X65514819Y-61716190D01*
X65514819Y-61716190D02*
X65657676Y-61811428D01*
X65657676Y-61811428D02*
X65752914Y-61906666D01*
X65752914Y-61906666D02*
X65800533Y-62001904D01*
X65514819Y-60811428D02*
X65514819Y-60716190D01*
X65514819Y-60716190D02*
X65562438Y-60620952D01*
X65562438Y-60620952D02*
X65610057Y-60573333D01*
X65610057Y-60573333D02*
X65705295Y-60525714D01*
X65705295Y-60525714D02*
X65895771Y-60478095D01*
X65895771Y-60478095D02*
X66133866Y-60478095D01*
X66133866Y-60478095D02*
X66324342Y-60525714D01*
X66324342Y-60525714D02*
X66419580Y-60573333D01*
X66419580Y-60573333D02*
X66467200Y-60620952D01*
X66467200Y-60620952D02*
X66514819Y-60716190D01*
X66514819Y-60716190D02*
X66514819Y-60811428D01*
X66514819Y-60811428D02*
X66467200Y-60906666D01*
X66467200Y-60906666D02*
X66419580Y-60954285D01*
X66419580Y-60954285D02*
X66324342Y-61001904D01*
X66324342Y-61001904D02*
X66133866Y-61049523D01*
X66133866Y-61049523D02*
X65895771Y-61049523D01*
X65895771Y-61049523D02*
X65705295Y-61001904D01*
X65705295Y-61001904D02*
X65610057Y-60954285D01*
X65610057Y-60954285D02*
X65562438Y-60906666D01*
X65562438Y-60906666D02*
X65514819Y-60811428D01*
X65047142Y-73159580D02*
X64999523Y-73207200D01*
X64999523Y-73207200D02*
X64856666Y-73254819D01*
X64856666Y-73254819D02*
X64761428Y-73254819D01*
X64761428Y-73254819D02*
X64618571Y-73207200D01*
X64618571Y-73207200D02*
X64523333Y-73111961D01*
X64523333Y-73111961D02*
X64475714Y-73016723D01*
X64475714Y-73016723D02*
X64428095Y-72826247D01*
X64428095Y-72826247D02*
X64428095Y-72683390D01*
X64428095Y-72683390D02*
X64475714Y-72492914D01*
X64475714Y-72492914D02*
X64523333Y-72397676D01*
X64523333Y-72397676D02*
X64618571Y-72302438D01*
X64618571Y-72302438D02*
X64761428Y-72254819D01*
X64761428Y-72254819D02*
X64856666Y-72254819D01*
X64856666Y-72254819D02*
X64999523Y-72302438D01*
X64999523Y-72302438D02*
X65047142Y-72350057D01*
X65999523Y-73254819D02*
X65428095Y-73254819D01*
X65713809Y-73254819D02*
X65713809Y-72254819D01*
X65713809Y-72254819D02*
X65618571Y-72397676D01*
X65618571Y-72397676D02*
X65523333Y-72492914D01*
X65523333Y-72492914D02*
X65428095Y-72540533D01*
X66380476Y-72350057D02*
X66428095Y-72302438D01*
X66428095Y-72302438D02*
X66523333Y-72254819D01*
X66523333Y-72254819D02*
X66761428Y-72254819D01*
X66761428Y-72254819D02*
X66856666Y-72302438D01*
X66856666Y-72302438D02*
X66904285Y-72350057D01*
X66904285Y-72350057D02*
X66951904Y-72445295D01*
X66951904Y-72445295D02*
X66951904Y-72540533D01*
X66951904Y-72540533D02*
X66904285Y-72683390D01*
X66904285Y-72683390D02*
X66332857Y-73254819D01*
X66332857Y-73254819D02*
X66951904Y-73254819D01*
X66624819Y-64616666D02*
X66148628Y-64949999D01*
X66624819Y-65188094D02*
X65624819Y-65188094D01*
X65624819Y-65188094D02*
X65624819Y-64807142D01*
X65624819Y-64807142D02*
X65672438Y-64711904D01*
X65672438Y-64711904D02*
X65720057Y-64664285D01*
X65720057Y-64664285D02*
X65815295Y-64616666D01*
X65815295Y-64616666D02*
X65958152Y-64616666D01*
X65958152Y-64616666D02*
X66053390Y-64664285D01*
X66053390Y-64664285D02*
X66101009Y-64711904D01*
X66101009Y-64711904D02*
X66148628Y-64807142D01*
X66148628Y-64807142D02*
X66148628Y-65188094D01*
X66053390Y-64045237D02*
X66005771Y-64140475D01*
X66005771Y-64140475D02*
X65958152Y-64188094D01*
X65958152Y-64188094D02*
X65862914Y-64235713D01*
X65862914Y-64235713D02*
X65815295Y-64235713D01*
X65815295Y-64235713D02*
X65720057Y-64188094D01*
X65720057Y-64188094D02*
X65672438Y-64140475D01*
X65672438Y-64140475D02*
X65624819Y-64045237D01*
X65624819Y-64045237D02*
X65624819Y-63854761D01*
X65624819Y-63854761D02*
X65672438Y-63759523D01*
X65672438Y-63759523D02*
X65720057Y-63711904D01*
X65720057Y-63711904D02*
X65815295Y-63664285D01*
X65815295Y-63664285D02*
X65862914Y-63664285D01*
X65862914Y-63664285D02*
X65958152Y-63711904D01*
X65958152Y-63711904D02*
X66005771Y-63759523D01*
X66005771Y-63759523D02*
X66053390Y-63854761D01*
X66053390Y-63854761D02*
X66053390Y-64045237D01*
X66053390Y-64045237D02*
X66101009Y-64140475D01*
X66101009Y-64140475D02*
X66148628Y-64188094D01*
X66148628Y-64188094D02*
X66243866Y-64235713D01*
X66243866Y-64235713D02*
X66434342Y-64235713D01*
X66434342Y-64235713D02*
X66529580Y-64188094D01*
X66529580Y-64188094D02*
X66577200Y-64140475D01*
X66577200Y-64140475D02*
X66624819Y-64045237D01*
X66624819Y-64045237D02*
X66624819Y-63854761D01*
X66624819Y-63854761D02*
X66577200Y-63759523D01*
X66577200Y-63759523D02*
X66529580Y-63711904D01*
X66529580Y-63711904D02*
X66434342Y-63664285D01*
X66434342Y-63664285D02*
X66243866Y-63664285D01*
X66243866Y-63664285D02*
X66148628Y-63711904D01*
X66148628Y-63711904D02*
X66101009Y-63759523D01*
X66101009Y-63759523D02*
X66053390Y-63854761D01*
X58537142Y-74589580D02*
X58489523Y-74637200D01*
X58489523Y-74637200D02*
X58346666Y-74684819D01*
X58346666Y-74684819D02*
X58251428Y-74684819D01*
X58251428Y-74684819D02*
X58108571Y-74637200D01*
X58108571Y-74637200D02*
X58013333Y-74541961D01*
X58013333Y-74541961D02*
X57965714Y-74446723D01*
X57965714Y-74446723D02*
X57918095Y-74256247D01*
X57918095Y-74256247D02*
X57918095Y-74113390D01*
X57918095Y-74113390D02*
X57965714Y-73922914D01*
X57965714Y-73922914D02*
X58013333Y-73827676D01*
X58013333Y-73827676D02*
X58108571Y-73732438D01*
X58108571Y-73732438D02*
X58251428Y-73684819D01*
X58251428Y-73684819D02*
X58346666Y-73684819D01*
X58346666Y-73684819D02*
X58489523Y-73732438D01*
X58489523Y-73732438D02*
X58537142Y-73780057D01*
X59489523Y-74684819D02*
X58918095Y-74684819D01*
X59203809Y-74684819D02*
X59203809Y-73684819D01*
X59203809Y-73684819D02*
X59108571Y-73827676D01*
X59108571Y-73827676D02*
X59013333Y-73922914D01*
X59013333Y-73922914D02*
X58918095Y-73970533D01*
X60060952Y-74113390D02*
X59965714Y-74065771D01*
X59965714Y-74065771D02*
X59918095Y-74018152D01*
X59918095Y-74018152D02*
X59870476Y-73922914D01*
X59870476Y-73922914D02*
X59870476Y-73875295D01*
X59870476Y-73875295D02*
X59918095Y-73780057D01*
X59918095Y-73780057D02*
X59965714Y-73732438D01*
X59965714Y-73732438D02*
X60060952Y-73684819D01*
X60060952Y-73684819D02*
X60251428Y-73684819D01*
X60251428Y-73684819D02*
X60346666Y-73732438D01*
X60346666Y-73732438D02*
X60394285Y-73780057D01*
X60394285Y-73780057D02*
X60441904Y-73875295D01*
X60441904Y-73875295D02*
X60441904Y-73922914D01*
X60441904Y-73922914D02*
X60394285Y-74018152D01*
X60394285Y-74018152D02*
X60346666Y-74065771D01*
X60346666Y-74065771D02*
X60251428Y-74113390D01*
X60251428Y-74113390D02*
X60060952Y-74113390D01*
X60060952Y-74113390D02*
X59965714Y-74161009D01*
X59965714Y-74161009D02*
X59918095Y-74208628D01*
X59918095Y-74208628D02*
X59870476Y-74303866D01*
X59870476Y-74303866D02*
X59870476Y-74494342D01*
X59870476Y-74494342D02*
X59918095Y-74589580D01*
X59918095Y-74589580D02*
X59965714Y-74637200D01*
X59965714Y-74637200D02*
X60060952Y-74684819D01*
X60060952Y-74684819D02*
X60251428Y-74684819D01*
X60251428Y-74684819D02*
X60346666Y-74637200D01*
X60346666Y-74637200D02*
X60394285Y-74589580D01*
X60394285Y-74589580D02*
X60441904Y-74494342D01*
X60441904Y-74494342D02*
X60441904Y-74303866D01*
X60441904Y-74303866D02*
X60394285Y-74208628D01*
X60394285Y-74208628D02*
X60346666Y-74161009D01*
X60346666Y-74161009D02*
X60251428Y-74113390D01*
X63789580Y-59966666D02*
X63837200Y-60014285D01*
X63837200Y-60014285D02*
X63884819Y-60157142D01*
X63884819Y-60157142D02*
X63884819Y-60252380D01*
X63884819Y-60252380D02*
X63837200Y-60395237D01*
X63837200Y-60395237D02*
X63741961Y-60490475D01*
X63741961Y-60490475D02*
X63646723Y-60538094D01*
X63646723Y-60538094D02*
X63456247Y-60585713D01*
X63456247Y-60585713D02*
X63313390Y-60585713D01*
X63313390Y-60585713D02*
X63122914Y-60538094D01*
X63122914Y-60538094D02*
X63027676Y-60490475D01*
X63027676Y-60490475D02*
X62932438Y-60395237D01*
X62932438Y-60395237D02*
X62884819Y-60252380D01*
X62884819Y-60252380D02*
X62884819Y-60157142D01*
X62884819Y-60157142D02*
X62932438Y-60014285D01*
X62932438Y-60014285D02*
X62980057Y-59966666D01*
X62884819Y-59109523D02*
X62884819Y-59299999D01*
X62884819Y-59299999D02*
X62932438Y-59395237D01*
X62932438Y-59395237D02*
X62980057Y-59442856D01*
X62980057Y-59442856D02*
X63122914Y-59538094D01*
X63122914Y-59538094D02*
X63313390Y-59585713D01*
X63313390Y-59585713D02*
X63694342Y-59585713D01*
X63694342Y-59585713D02*
X63789580Y-59538094D01*
X63789580Y-59538094D02*
X63837200Y-59490475D01*
X63837200Y-59490475D02*
X63884819Y-59395237D01*
X63884819Y-59395237D02*
X63884819Y-59204761D01*
X63884819Y-59204761D02*
X63837200Y-59109523D01*
X63837200Y-59109523D02*
X63789580Y-59061904D01*
X63789580Y-59061904D02*
X63694342Y-59014285D01*
X63694342Y-59014285D02*
X63456247Y-59014285D01*
X63456247Y-59014285D02*
X63361009Y-59061904D01*
X63361009Y-59061904D02*
X63313390Y-59109523D01*
X63313390Y-59109523D02*
X63265771Y-59204761D01*
X63265771Y-59204761D02*
X63265771Y-59395237D01*
X63265771Y-59395237D02*
X63313390Y-59490475D01*
X63313390Y-59490475D02*
X63361009Y-59538094D01*
X63361009Y-59538094D02*
X63456247Y-59585713D01*
X48304819Y-58586666D02*
X47828628Y-58919999D01*
X48304819Y-59158094D02*
X47304819Y-59158094D01*
X47304819Y-59158094D02*
X47304819Y-58777142D01*
X47304819Y-58777142D02*
X47352438Y-58681904D01*
X47352438Y-58681904D02*
X47400057Y-58634285D01*
X47400057Y-58634285D02*
X47495295Y-58586666D01*
X47495295Y-58586666D02*
X47638152Y-58586666D01*
X47638152Y-58586666D02*
X47733390Y-58634285D01*
X47733390Y-58634285D02*
X47781009Y-58681904D01*
X47781009Y-58681904D02*
X47828628Y-58777142D01*
X47828628Y-58777142D02*
X47828628Y-59158094D01*
X47304819Y-57729523D02*
X47304819Y-57919999D01*
X47304819Y-57919999D02*
X47352438Y-58015237D01*
X47352438Y-58015237D02*
X47400057Y-58062856D01*
X47400057Y-58062856D02*
X47542914Y-58158094D01*
X47542914Y-58158094D02*
X47733390Y-58205713D01*
X47733390Y-58205713D02*
X48114342Y-58205713D01*
X48114342Y-58205713D02*
X48209580Y-58158094D01*
X48209580Y-58158094D02*
X48257200Y-58110475D01*
X48257200Y-58110475D02*
X48304819Y-58015237D01*
X48304819Y-58015237D02*
X48304819Y-57824761D01*
X48304819Y-57824761D02*
X48257200Y-57729523D01*
X48257200Y-57729523D02*
X48209580Y-57681904D01*
X48209580Y-57681904D02*
X48114342Y-57634285D01*
X48114342Y-57634285D02*
X47876247Y-57634285D01*
X47876247Y-57634285D02*
X47781009Y-57681904D01*
X47781009Y-57681904D02*
X47733390Y-57729523D01*
X47733390Y-57729523D02*
X47685771Y-57824761D01*
X47685771Y-57824761D02*
X47685771Y-58015237D01*
X47685771Y-58015237D02*
X47733390Y-58110475D01*
X47733390Y-58110475D02*
X47781009Y-58158094D01*
X47781009Y-58158094D02*
X47876247Y-58205713D01*
X55578095Y-61144819D02*
X55578095Y-61954342D01*
X55578095Y-61954342D02*
X55625714Y-62049580D01*
X55625714Y-62049580D02*
X55673333Y-62097200D01*
X55673333Y-62097200D02*
X55768571Y-62144819D01*
X55768571Y-62144819D02*
X55959047Y-62144819D01*
X55959047Y-62144819D02*
X56054285Y-62097200D01*
X56054285Y-62097200D02*
X56101904Y-62049580D01*
X56101904Y-62049580D02*
X56149523Y-61954342D01*
X56149523Y-61954342D02*
X56149523Y-61144819D01*
X57054285Y-61478152D02*
X57054285Y-62144819D01*
X56816190Y-61097200D02*
X56578095Y-61811485D01*
X56578095Y-61811485D02*
X57197142Y-61811485D01*
D14*
G04 #@! TO.C,J1*
X72470000Y-72040000D02*
X70770000Y-72040000D01*
X72470000Y-62700000D02*
X70770000Y-62700000D01*
G04 #@! TO.C,R3*
X50383641Y-78880000D02*
X50076359Y-78880000D01*
X50383641Y-79640000D02*
X50076359Y-79640000D01*
D10*
G04 #@! TO.C,U3*
X52540000Y-80987500D02*
X52540000Y-80767500D01*
X52540000Y-80987500D02*
X53260000Y-80987500D01*
X52740000Y-78287500D02*
X53260000Y-78287500D01*
X55020000Y-78287500D02*
X55740000Y-78287500D01*
X55740000Y-78287500D02*
X55740000Y-78507500D01*
X55740000Y-80767500D02*
X55740000Y-80987500D01*
X55740000Y-80987500D02*
X55020000Y-80987500D01*
X52540000Y-78287500D02*
X52180000Y-78287500D01*
X52540000Y-77927500D01*
X52540000Y-78287500D01*
G36*
X52540000Y-78287500D02*
G01*
X52180000Y-78287500D01*
X52540000Y-77927500D01*
X52540000Y-78287500D01*
G37*
D14*
G04 #@! TO.C,U1*
X66230000Y-65640000D02*
X66230000Y-67050000D01*
X63910000Y-65640000D02*
X63910000Y-67050000D01*
X66230000Y-67050000D02*
X65570000Y-67050000D01*
X64570000Y-67050000D02*
X63910000Y-67050000D01*
X66540000Y-65510000D02*
X66210000Y-65270000D01*
X66540000Y-65030000D01*
X66540000Y-65510000D01*
G36*
X66540000Y-65510000D02*
G01*
X66210000Y-65270000D01*
X66540000Y-65030000D01*
X66540000Y-65510000D01*
G37*
G04 #@! TO.C,C17*
X61809420Y-84360000D02*
X62090580Y-84360000D01*
X61809420Y-83340000D02*
X62090580Y-83340000D01*
G04 #@! TO.C,U2*
X64900000Y-82132500D02*
X64420000Y-82132500D01*
X64660000Y-81802500D01*
X64900000Y-82132500D01*
G36*
X64900000Y-82132500D02*
G01*
X64420000Y-82132500D01*
X64660000Y-81802500D01*
X64900000Y-82132500D01*
G37*
X63380000Y-81902500D02*
X59620000Y-81902500D01*
X63380000Y-75082500D02*
X59620000Y-75082500D01*
X59620000Y-81902500D02*
X59620000Y-80642500D01*
X59620000Y-75082500D02*
X59620000Y-76342500D01*
G04 #@! TO.C,C16*
X61912164Y-82970000D02*
X62127836Y-82970000D01*
X61912164Y-82250000D02*
X62127836Y-82250000D01*
G04 #@! TO.C,C13*
X62947836Y-74490000D02*
X62732164Y-74490000D01*
X62947836Y-73770000D02*
X62732164Y-73770000D01*
D10*
G04 #@! TO.C,D2*
X66237500Y-80790000D02*
G75*
G02*
X66137500Y-80790000I-50000J0D01*
G01*
X66137500Y-80790000D02*
G75*
G02*
X66237500Y-80790000I50000J0D01*
G01*
D14*
G04 #@! TO.C,R5*
X69280000Y-79056359D02*
X69280000Y-79363641D01*
X68520000Y-79056359D02*
X68520000Y-79363641D01*
G04 #@! TO.C,R7*
X66626359Y-69010000D02*
X66933641Y-69010000D01*
X66626359Y-68250000D02*
X66933641Y-68250000D01*
G04 #@! TO.C,C7*
X55267836Y-82140000D02*
X55052164Y-82140000D01*
X55267836Y-81420000D02*
X55052164Y-81420000D01*
G04 #@! TO.C,C1*
X53102164Y-82150000D02*
X53317836Y-82150000D01*
X53102164Y-81430000D02*
X53317836Y-81430000D01*
G04 #@! TO.C,RST*
X50600000Y-78300000D02*
X50600000Y-78000000D01*
X50600000Y-75500000D02*
X50600000Y-75800000D01*
X47300000Y-78300000D02*
X50600000Y-78300000D01*
X47300000Y-78000000D02*
X47300000Y-78300000D01*
X47300000Y-75800000D02*
X47300000Y-75500000D01*
X47300000Y-75500000D02*
X50600000Y-75500000D01*
G04 #@! TO.C,BOOT0*
X47270000Y-80220000D02*
X47270000Y-80520000D01*
X47270000Y-83020000D02*
X47270000Y-82720000D01*
X50570000Y-80220000D02*
X47270000Y-80220000D01*
X50570000Y-80520000D02*
X50570000Y-80220000D01*
X50570000Y-82720000D02*
X50570000Y-83020000D01*
X50570000Y-83020000D02*
X47270000Y-83020000D01*
G04 #@! TO.C,I2C1*
X53580000Y-55075000D02*
X52530000Y-55075000D01*
X53580000Y-52575000D02*
X53580000Y-55075000D01*
X52530000Y-55075000D02*
X52530000Y-56065000D01*
X52410000Y-50605000D02*
X48530000Y-50605000D01*
X47360000Y-55075000D02*
X48410000Y-55075000D01*
X47360000Y-52575000D02*
X47360000Y-55075000D01*
G04 #@! TO.C,PWM1*
X67430000Y-55115000D02*
X66380000Y-55115000D01*
X67430000Y-52615000D02*
X67430000Y-55115000D01*
X66380000Y-55115000D02*
X66380000Y-56105000D01*
X66260000Y-50645000D02*
X60380000Y-50645000D01*
X59210000Y-55115000D02*
X60260000Y-55115000D01*
X59210000Y-52615000D02*
X59210000Y-55115000D01*
G04 #@! TO.C,C15*
X52907836Y-72180000D02*
X52692164Y-72180000D01*
X52907836Y-72900000D02*
X52692164Y-72900000D01*
G04 #@! TO.C,C2*
X61132164Y-70860000D02*
X61347836Y-70860000D01*
X61132164Y-71580000D02*
X61347836Y-71580000D01*
G04 #@! TO.C,C8*
X45432164Y-60070000D02*
X45647836Y-60070000D01*
X45432164Y-60790000D02*
X45647836Y-60790000D01*
G04 #@! TO.C,C4*
X52482164Y-57640000D02*
X52697836Y-57640000D01*
X52482164Y-58360000D02*
X52697836Y-58360000D01*
G04 #@! TO.C,C14*
X49540000Y-59972164D02*
X49540000Y-60187836D01*
X50260000Y-59972164D02*
X50260000Y-60187836D01*
G04 #@! TO.C,Y1*
X43930000Y-61080000D02*
X43930000Y-65080000D01*
X47230000Y-61080000D02*
X43930000Y-61080000D01*
G04 #@! TO.C,C3*
X47050000Y-67129420D02*
X47050000Y-67410580D01*
X48070000Y-67129420D02*
X48070000Y-67410580D01*
G04 #@! TO.C,C9*
X45302164Y-65440000D02*
X45517836Y-65440000D01*
X45302164Y-66160000D02*
X45517836Y-66160000D01*
G04 #@! TO.C,R1*
X49643641Y-56730000D02*
X49336359Y-56730000D01*
X49643641Y-57490000D02*
X49336359Y-57490000D01*
G04 #@! TO.C,R2*
X50570000Y-57406359D02*
X50570000Y-57713641D01*
X51330000Y-57406359D02*
X51330000Y-57713641D01*
G04 #@! TO.C,R4*
X53980000Y-57653641D02*
X53980000Y-57346359D01*
X54740000Y-57653641D02*
X54740000Y-57346359D01*
D10*
G04 #@! TO.C,D1*
X49605000Y-61880000D02*
G75*
G02*
X49505000Y-61880000I-50000J0D01*
G01*
X49505000Y-61880000D02*
G75*
G02*
X49605000Y-61880000I50000J0D01*
G01*
D14*
G04 #@! TO.C,C5*
X48470000Y-67202164D02*
X48470000Y-67417836D01*
X49190000Y-67202164D02*
X49190000Y-67417836D01*
G04 #@! TO.C,C10*
X64120000Y-61599420D02*
X64120000Y-61880580D01*
X65140000Y-61599420D02*
X65140000Y-61880580D01*
G04 #@! TO.C,C12*
X62940580Y-72260000D02*
X62659420Y-72260000D01*
X62940580Y-73280000D02*
X62659420Y-73280000D01*
G04 #@! TO.C,R8*
X66860000Y-64956359D02*
X66860000Y-65263641D01*
X67620000Y-64956359D02*
X67620000Y-65263641D01*
G04 #@! TO.C,C18*
X59149420Y-72330000D02*
X59430580Y-72330000D01*
X59149420Y-73350000D02*
X59430580Y-73350000D01*
G04 #@! TO.C,C6*
X62970000Y-61682164D02*
X62970000Y-61897836D01*
X63690000Y-61682164D02*
X63690000Y-61897836D01*
G04 #@! TO.C,R6*
X47630000Y-60196359D02*
X47630000Y-60503641D01*
X48390000Y-60196359D02*
X48390000Y-60503641D01*
G04 #@! TO.C,U4*
X51000000Y-60170000D02*
X51000000Y-61120000D01*
X51000000Y-70390000D02*
X51000000Y-69440000D01*
X51950000Y-60170000D02*
X51000000Y-60170000D01*
X51950000Y-70390000D02*
X51000000Y-70390000D01*
X60270000Y-60170000D02*
X61220000Y-60170000D01*
X60270000Y-70390000D02*
X61220000Y-70390000D01*
X61220000Y-60170000D02*
X61220000Y-61120000D01*
X61220000Y-70390000D02*
X61220000Y-69440000D01*
X50385000Y-61120000D02*
X50045000Y-60650000D01*
X50725000Y-60650000D01*
X50385000Y-61120000D01*
G36*
X50385000Y-61120000D02*
G01*
X50045000Y-60650000D01*
X50725000Y-60650000D01*
X50385000Y-61120000D01*
G37*
G04 #@! TD*
%LPC*%
D15*
G04 #@! TO.C,J1*
X73645000Y-63050000D03*
D16*
X69465000Y-63050000D03*
D15*
X73645000Y-71690000D03*
D16*
X69465000Y-71690000D03*
D17*
X68890000Y-70570000D03*
X68890000Y-69770000D03*
D18*
X68890000Y-69120000D03*
X68890000Y-68120000D03*
X68890000Y-66620000D03*
X68890000Y-65620000D03*
D17*
X68890000Y-64970000D03*
X68890000Y-64170000D03*
X68890000Y-64170000D03*
X68890000Y-64970000D03*
D18*
X68890000Y-66120000D03*
X68890000Y-67120000D03*
X68890000Y-67620000D03*
X68890000Y-68620000D03*
D17*
X68890000Y-69770000D03*
X68890000Y-70570000D03*
D19*
X69965000Y-64480000D03*
X69965000Y-70260000D03*
G04 #@! TD*
D20*
G04 #@! TO.C,H4*
X43340000Y-79615000D03*
X44665825Y-80164175D03*
X42014175Y-80164175D03*
X45215000Y-81490000D03*
D21*
X43340000Y-81490000D03*
D20*
X41465000Y-81490000D03*
X44665825Y-82815825D03*
X42014175Y-82815825D03*
X43340000Y-83365000D03*
G04 #@! TD*
G04 #@! TO.C,H3*
X72820000Y-83285000D03*
X71494175Y-82735825D03*
X74145825Y-82735825D03*
X70945000Y-81410000D03*
D21*
X72820000Y-81410000D03*
D20*
X74695000Y-81410000D03*
X71494175Y-80084175D03*
X74145825Y-80084175D03*
X72820000Y-79535000D03*
G04 #@! TD*
G04 #@! TO.C,H2*
X43410000Y-55295000D03*
X42084175Y-54745825D03*
X44735825Y-54745825D03*
X41535000Y-53420000D03*
D21*
X43410000Y-53420000D03*
D20*
X45285000Y-53420000D03*
X42084175Y-52094175D03*
X44735825Y-52094175D03*
X43410000Y-51545000D03*
G04 #@! TD*
G04 #@! TO.C,H1*
X74635000Y-53470000D03*
X74085825Y-54795825D03*
X74085825Y-52144175D03*
X72760000Y-55345000D03*
D21*
X72760000Y-53470000D03*
D20*
X72760000Y-51595000D03*
X71434175Y-54795825D03*
X71434175Y-52144175D03*
X70885000Y-53470000D03*
G04 #@! TD*
D22*
G04 #@! TO.C,R3*
X49720000Y-79260000D03*
X50740000Y-79260000D03*
G04 #@! TD*
D23*
G04 #@! TO.C,U3*
X52877500Y-78887500D03*
X52877500Y-79387500D03*
X52877500Y-79887500D03*
X52877500Y-80387500D03*
D24*
X53640000Y-80650000D03*
X54140000Y-80650000D03*
X54640000Y-80650000D03*
D23*
X55402500Y-80387500D03*
X55402500Y-79887500D03*
X55402500Y-79387500D03*
X55402500Y-78887500D03*
D24*
X54640000Y-78625000D03*
X54140000Y-78625000D03*
X53640000Y-78625000D03*
G04 #@! TD*
D25*
G04 #@! TO.C,U1*
X65720000Y-65320000D03*
X64420000Y-65320000D03*
X65070000Y-67320000D03*
G04 #@! TD*
D26*
G04 #@! TO.C,C17*
X62725000Y-83850000D03*
X61175000Y-83850000D03*
G04 #@! TD*
D27*
G04 #@! TO.C,U2*
X64680000Y-76192500D03*
D28*
X58380000Y-78492500D03*
D27*
X64680000Y-78492500D03*
X64680000Y-80792500D03*
G04 #@! TD*
D29*
G04 #@! TO.C,C16*
X62500000Y-82610000D03*
X61540000Y-82610000D03*
G04 #@! TD*
D30*
G04 #@! TO.C,C13*
X62360000Y-74130000D03*
X63320000Y-74130000D03*
G04 #@! TD*
D31*
G04 #@! TO.C,D2*
X67762500Y-80790000D03*
X66792500Y-80790000D03*
G04 #@! TD*
D32*
G04 #@! TO.C,R5*
X68900000Y-79720000D03*
X68900000Y-78700000D03*
G04 #@! TD*
D33*
G04 #@! TO.C,R7*
X67290000Y-68630000D03*
X66270000Y-68630000D03*
G04 #@! TD*
D30*
G04 #@! TO.C,C7*
X54680000Y-81780000D03*
X55640000Y-81780000D03*
G04 #@! TD*
D29*
G04 #@! TO.C,C1*
X53690000Y-81790000D03*
X52730000Y-81790000D03*
G04 #@! TD*
D34*
G04 #@! TO.C,RST*
X50650000Y-76900000D03*
X47250000Y-76900000D03*
G04 #@! TD*
G04 #@! TO.C,BOOT0*
X47220000Y-81620000D03*
X50620000Y-81620000D03*
G04 #@! TD*
D35*
G04 #@! TO.C,I2C1*
X47670000Y-51415000D03*
X53270000Y-51415000D03*
D36*
X48970000Y-55290000D03*
X49970000Y-55290000D03*
X50970000Y-55290000D03*
X51970000Y-55290000D03*
G04 #@! TD*
D35*
G04 #@! TO.C,PWM1*
X59520000Y-51455000D03*
X67120000Y-51455000D03*
D36*
X60820000Y-55330000D03*
X61820000Y-55330000D03*
X62820000Y-55330000D03*
X63820000Y-55330000D03*
X64820000Y-55330000D03*
X65820000Y-55330000D03*
G04 #@! TD*
D30*
G04 #@! TO.C,C15*
X53280000Y-72540000D03*
X52320000Y-72540000D03*
G04 #@! TD*
D29*
G04 #@! TO.C,C2*
X60760000Y-71220000D03*
X61720000Y-71220000D03*
G04 #@! TD*
D37*
G04 #@! TO.C,SWD*
X42020000Y-76600000D03*
X42020000Y-75100000D03*
X42020000Y-73600000D03*
X42020000Y-72100000D03*
X42020000Y-70600000D03*
X42020000Y-69100000D03*
X42020000Y-67600000D03*
X42020000Y-66100000D03*
G04 #@! TD*
D29*
G04 #@! TO.C,C8*
X45060000Y-60430000D03*
X46020000Y-60430000D03*
G04 #@! TD*
G04 #@! TO.C,C4*
X52110000Y-58000000D03*
X53070000Y-58000000D03*
G04 #@! TD*
D38*
G04 #@! TO.C,C14*
X49900000Y-59600000D03*
X49900000Y-60560000D03*
G04 #@! TD*
D39*
G04 #@! TO.C,Y1*
X44730000Y-61980000D03*
X44730000Y-64180000D03*
X46430000Y-64180000D03*
X46430000Y-61980000D03*
G04 #@! TD*
D40*
G04 #@! TO.C,C3*
X47560000Y-66495000D03*
X47560000Y-68045000D03*
G04 #@! TD*
D29*
G04 #@! TO.C,C9*
X44930000Y-65800000D03*
X45890000Y-65800000D03*
G04 #@! TD*
D22*
G04 #@! TO.C,R1*
X50000000Y-57110000D03*
X48980000Y-57110000D03*
G04 #@! TD*
D32*
G04 #@! TO.C,R2*
X50950000Y-57050000D03*
X50950000Y-58070000D03*
G04 #@! TD*
D41*
G04 #@! TO.C,R4*
X54360000Y-58010000D03*
X54360000Y-56990000D03*
G04 #@! TD*
D42*
G04 #@! TO.C,D1*
X48950000Y-61880000D03*
X47980000Y-61880000D03*
G04 #@! TD*
D38*
G04 #@! TO.C,C5*
X48830000Y-66830000D03*
X48830000Y-67790000D03*
G04 #@! TD*
D40*
G04 #@! TO.C,C10*
X64630000Y-60965000D03*
X64630000Y-62515000D03*
G04 #@! TD*
D43*
G04 #@! TO.C,C12*
X63575000Y-72770000D03*
X62025000Y-72770000D03*
G04 #@! TD*
D32*
G04 #@! TO.C,R8*
X67240000Y-64600000D03*
X67240000Y-65620000D03*
G04 #@! TD*
D26*
G04 #@! TO.C,C18*
X58515000Y-72840000D03*
X60065000Y-72840000D03*
G04 #@! TD*
D38*
G04 #@! TO.C,C6*
X63330000Y-61310000D03*
X63330000Y-62270000D03*
G04 #@! TD*
D32*
G04 #@! TO.C,R6*
X48010000Y-59840000D03*
X48010000Y-60860000D03*
G04 #@! TD*
D44*
G04 #@! TO.C,U4*
X50435000Y-61530000D03*
X50435000Y-62030000D03*
X50435000Y-62530000D03*
X50435000Y-63030000D03*
X50435000Y-63530000D03*
X50435000Y-64030000D03*
X50435000Y-64530000D03*
X50435000Y-65030000D03*
X50435000Y-65530000D03*
X50435000Y-66030000D03*
X50435000Y-66530000D03*
X50435000Y-67030000D03*
X50435000Y-67530000D03*
X50435000Y-68030000D03*
X50435000Y-68530000D03*
X50435000Y-69030000D03*
D45*
X52360000Y-70955000D03*
X52860000Y-70955000D03*
X53360000Y-70955000D03*
X53860000Y-70955000D03*
X54360000Y-70955000D03*
X54860000Y-70955000D03*
X55360000Y-70955000D03*
X55860000Y-70955000D03*
X56360000Y-70955000D03*
X56860000Y-70955000D03*
X57360000Y-70955000D03*
X57860000Y-70955000D03*
X58360000Y-70955000D03*
X58860000Y-70955000D03*
X59360000Y-70955000D03*
X59860000Y-70955000D03*
D44*
X61785000Y-69030000D03*
X61785000Y-68530000D03*
X61785000Y-68030000D03*
X61785000Y-67530000D03*
X61785000Y-67030000D03*
X61785000Y-66530000D03*
X61785000Y-66030000D03*
X61785000Y-65530000D03*
X61785000Y-65030000D03*
X61785000Y-64530000D03*
X61785000Y-64030000D03*
X61785000Y-63530000D03*
X61785000Y-63030000D03*
X61785000Y-62530000D03*
X61785000Y-62030000D03*
X61785000Y-61530000D03*
D45*
X59860000Y-59605000D03*
X59360000Y-59605000D03*
X58860000Y-59605000D03*
X58360000Y-59605000D03*
X57860000Y-59605000D03*
X57360000Y-59605000D03*
X56860000Y-59605000D03*
X56360000Y-59605000D03*
X55860000Y-59605000D03*
X55360000Y-59605000D03*
X54860000Y-59605000D03*
X54360000Y-59605000D03*
X53860000Y-59605000D03*
X53360000Y-59605000D03*
X52860000Y-59605000D03*
X52360000Y-59605000D03*
G04 #@! TD*
%LPD*%
M02*
