M48
; DRILL file {KiCad 9.0.1} date 2025-04-29T03:14:40+0600
; FORMAT={-:-/ absolute / metric / decimal}
; #@! TF.CreationDate,2025-04-29T03:14:40+06:00
; #@! TF.GenerationSoftware,Kicad,Pcbnew,9.0.1
; #@! TF.FileFunction,Plated,1,2,PTH
FMAT,2
METRIC
; #@! TA.AperFunction,Plated,PTH,ViaDrill
T1C0.300
; #@! TA.AperFunction,Plated,PTH,ComponentDrill
T2C0.500
; #@! TA.AperFunction,Plated,PTH,ComponentDrill
T3C0.600
; #@! TA.AperFunction,Plated,PTH,ComponentDrill
T4C2.500
%
G90
G05
T1
X43.6Y-72.07
X44.15Y-65.8
X44.43Y-58.97
X44.6Y-77.39
X45.679Y-68.169
X46.38Y-67.37
X46.75Y-60.43
X46.75Y-73.22
X46.81Y-58.12
X46.95Y-74.23
X47.65Y-74.95
X47.9Y-65.42
X48.53Y-74.56
X48.82Y-81.64
X49.19Y-58.89
X49.81Y-70.54
X49.86Y-74.58
X50.45Y-72.02
X51.33Y-59.0
X51.705Y-66.181
X52.08Y-57.05
X52.31Y-65.22
X52.33Y-73.42
X52.4Y-77.49
X53.0Y-61.23
X53.0Y-69.63
X53.06Y-57.41
X53.49Y-56.96
X53.68Y-74.63
X53.69Y-82.56
X53.756Y-73.706
X53.76Y-65.59
X54.214Y-69.264
X54.24Y-76.736
X54.67Y-82.58
X54.86Y-56.04
X54.86Y-76.23
X54.96Y-61.23
X55.14Y-63.67
X55.46Y-77.35
X57.77Y-75.44
X58.55Y-65.94
X59.43Y-65.13
X59.47Y-69.45
X60.18Y-64.31
X61.04Y-72.82
X61.52Y-74.13
X61.86Y-57.4
X62.56Y-71.22
X62.85Y-57.34
X63.37Y-64.59
X63.83Y-57.21
X64.43Y-83.4
X64.75Y-57.31
X65.415Y-68.385
X65.67Y-82.94
X65.68Y-62.52
X65.83Y-57.47
X66.58Y-82.3
X66.82Y-61.58
X67.82Y-70.58
T2
X41.465Y-81.49
X41.535Y-53.42
X42.014Y-80.164
X42.014Y-82.816
X42.084Y-52.094
X42.084Y-54.746
X43.34Y-79.615
X43.34Y-83.365
X43.41Y-51.545
X43.41Y-55.295
X44.666Y-80.164
X44.666Y-82.816
X44.736Y-52.094
X44.736Y-54.746
X45.215Y-81.49
X45.285Y-53.42
X70.885Y-53.47
X70.945Y-81.41
X71.434Y-52.144
X71.434Y-54.796
X71.494Y-80.084
X71.494Y-82.736
X72.76Y-51.595
X72.76Y-55.345
X72.82Y-79.535
X72.82Y-83.285
X74.086Y-52.144
X74.086Y-54.796
X74.146Y-80.084
X74.146Y-82.736
X74.635Y-53.47
X74.695Y-81.41
T4
X43.34Y-81.49
X43.41Y-53.42
X72.76Y-53.47
X72.82Y-81.41
T3
G00X68.915Y-63.05
M15
G01X70.015Y-63.05
M16
G05
G00X68.915Y-71.69
M15
G01X70.015Y-71.69
M16
G05
G00X73.245Y-63.05
M15
G01X74.045Y-63.05
M16
G05
G00X73.245Y-71.69
M15
G01X74.045Y-71.69
M16
G05
M30
