G04 #@! TF.GenerationSoftware,KiCad,Pcbnew,9.0.1*
G04 #@! TF.CreationDate,2025-04-29T03:14:40+06:00*
G04 #@! TF.ProjectId,stm32f401,73746d33-3266-4343-9031-2e6b69636164,rev?*
G04 #@! TF.SameCoordinates,Original*
G04 #@! TF.FileFunction,Legend,Bot*
G04 #@! TF.FilePolarity,Positive*
%FSLAX46Y46*%
G04 Gerber Fmt 4.6, Leading zero omitted, Abs format (unit mm)*
G04 Created by KiCad (PCBNEW 9.0.1) date 2025-04-29 03:14:40*
%MOMM*%
%LPD*%
G01*
G04 APERTURE LIST*
%ADD10C,0.158750*%
%ADD11C,0.100000*%
%ADD12O,1.800000X1.000000*%
%ADD13O,2.100000X1.000000*%
%ADD14C,0.650000*%
%ADD15C,0.800000*%
%ADD16C,5.000000*%
G04 APERTURE END LIST*
D10*
X44974964Y-64914271D02*
X45398298Y-64309509D01*
X45700679Y-64914271D02*
X45700679Y-63644271D01*
X45700679Y-63644271D02*
X45216869Y-63644271D01*
X45216869Y-63644271D02*
X45095917Y-63704747D01*
X45095917Y-63704747D02*
X45035440Y-63765223D01*
X45035440Y-63765223D02*
X44974964Y-63886175D01*
X44974964Y-63886175D02*
X44974964Y-64067604D01*
X44974964Y-64067604D02*
X45035440Y-64188556D01*
X45035440Y-64188556D02*
X45095917Y-64249033D01*
X45095917Y-64249033D02*
X45216869Y-64309509D01*
X45216869Y-64309509D02*
X45700679Y-64309509D01*
X44551631Y-63644271D02*
X43704964Y-64914271D01*
X43704964Y-63644271D02*
X44551631Y-64914271D01*
X45882107Y-65369271D02*
X45156393Y-65369271D01*
X45519250Y-66639271D02*
X45519250Y-65369271D01*
X44854012Y-65369271D02*
X44007345Y-66639271D01*
X44007345Y-65369271D02*
X44854012Y-66639271D01*
X45761155Y-68433795D02*
X45579726Y-68494271D01*
X45579726Y-68494271D02*
X45277345Y-68494271D01*
X45277345Y-68494271D02*
X45156393Y-68433795D01*
X45156393Y-68433795D02*
X45095917Y-68373318D01*
X45095917Y-68373318D02*
X45035440Y-68252366D01*
X45035440Y-68252366D02*
X45035440Y-68131414D01*
X45035440Y-68131414D02*
X45095917Y-68010461D01*
X45095917Y-68010461D02*
X45156393Y-67949985D01*
X45156393Y-67949985D02*
X45277345Y-67889509D01*
X45277345Y-67889509D02*
X45519250Y-67829033D01*
X45519250Y-67829033D02*
X45640202Y-67768556D01*
X45640202Y-67768556D02*
X45700679Y-67708080D01*
X45700679Y-67708080D02*
X45761155Y-67587128D01*
X45761155Y-67587128D02*
X45761155Y-67466175D01*
X45761155Y-67466175D02*
X45700679Y-67345223D01*
X45700679Y-67345223D02*
X45640202Y-67284747D01*
X45640202Y-67284747D02*
X45519250Y-67224271D01*
X45519250Y-67224271D02*
X45216869Y-67224271D01*
X45216869Y-67224271D02*
X45035440Y-67284747D01*
X44612107Y-67224271D02*
X44309726Y-68494271D01*
X44309726Y-68494271D02*
X44067821Y-67587128D01*
X44067821Y-67587128D02*
X43825916Y-68494271D01*
X43825916Y-68494271D02*
X43523536Y-67224271D01*
X42797821Y-67224271D02*
X42555916Y-67224271D01*
X42555916Y-67224271D02*
X42434964Y-67284747D01*
X42434964Y-67284747D02*
X42314011Y-67405699D01*
X42314011Y-67405699D02*
X42253535Y-67647604D01*
X42253535Y-67647604D02*
X42253535Y-68070937D01*
X42253535Y-68070937D02*
X42314011Y-68312842D01*
X42314011Y-68312842D02*
X42434964Y-68433795D01*
X42434964Y-68433795D02*
X42555916Y-68494271D01*
X42555916Y-68494271D02*
X42797821Y-68494271D01*
X42797821Y-68494271D02*
X42918773Y-68433795D01*
X42918773Y-68433795D02*
X43039726Y-68312842D01*
X43039726Y-68312842D02*
X43100202Y-68070937D01*
X43100202Y-68070937D02*
X43100202Y-67647604D01*
X43100202Y-67647604D02*
X43039726Y-67405699D01*
X43039726Y-67405699D02*
X42918773Y-67284747D01*
X42918773Y-67284747D02*
X42797821Y-67224271D01*
X45700679Y-70339271D02*
X45700679Y-69069271D01*
X45700679Y-69069271D02*
X44974964Y-70339271D01*
X44974964Y-70339271D02*
X44974964Y-69069271D01*
X43644488Y-70339271D02*
X44067822Y-69734509D01*
X44370203Y-70339271D02*
X44370203Y-69069271D01*
X44370203Y-69069271D02*
X43886393Y-69069271D01*
X43886393Y-69069271D02*
X43765441Y-69129747D01*
X43765441Y-69129747D02*
X43704964Y-69190223D01*
X43704964Y-69190223D02*
X43644488Y-69311175D01*
X43644488Y-69311175D02*
X43644488Y-69492604D01*
X43644488Y-69492604D02*
X43704964Y-69613556D01*
X43704964Y-69613556D02*
X43765441Y-69674033D01*
X43765441Y-69674033D02*
X43886393Y-69734509D01*
X43886393Y-69734509D02*
X44370203Y-69734509D01*
X43160679Y-70278795D02*
X42979250Y-70339271D01*
X42979250Y-70339271D02*
X42676869Y-70339271D01*
X42676869Y-70339271D02*
X42555917Y-70278795D01*
X42555917Y-70278795D02*
X42495441Y-70218318D01*
X42495441Y-70218318D02*
X42434964Y-70097366D01*
X42434964Y-70097366D02*
X42434964Y-69976414D01*
X42434964Y-69976414D02*
X42495441Y-69855461D01*
X42495441Y-69855461D02*
X42555917Y-69794985D01*
X42555917Y-69794985D02*
X42676869Y-69734509D01*
X42676869Y-69734509D02*
X42918774Y-69674033D01*
X42918774Y-69674033D02*
X43039726Y-69613556D01*
X43039726Y-69613556D02*
X43100203Y-69553080D01*
X43100203Y-69553080D02*
X43160679Y-69432128D01*
X43160679Y-69432128D02*
X43160679Y-69311175D01*
X43160679Y-69311175D02*
X43100203Y-69190223D01*
X43100203Y-69190223D02*
X43039726Y-69129747D01*
X43039726Y-69129747D02*
X42918774Y-69069271D01*
X42918774Y-69069271D02*
X42616393Y-69069271D01*
X42616393Y-69069271D02*
X42434964Y-69129747D01*
X42072107Y-69069271D02*
X41346393Y-69069271D01*
X41709250Y-70339271D02*
X41709250Y-69069271D01*
X44597618Y-70999747D02*
X44718571Y-70939271D01*
X44718571Y-70939271D02*
X44899999Y-70939271D01*
X44899999Y-70939271D02*
X45081428Y-70999747D01*
X45081428Y-70999747D02*
X45202380Y-71120699D01*
X45202380Y-71120699D02*
X45262857Y-71241652D01*
X45262857Y-71241652D02*
X45323333Y-71483556D01*
X45323333Y-71483556D02*
X45323333Y-71664985D01*
X45323333Y-71664985D02*
X45262857Y-71906890D01*
X45262857Y-71906890D02*
X45202380Y-72027842D01*
X45202380Y-72027842D02*
X45081428Y-72148795D01*
X45081428Y-72148795D02*
X44899999Y-72209271D01*
X44899999Y-72209271D02*
X44779047Y-72209271D01*
X44779047Y-72209271D02*
X44597618Y-72148795D01*
X44597618Y-72148795D02*
X44537142Y-72088318D01*
X44537142Y-72088318D02*
X44537142Y-71664985D01*
X44537142Y-71664985D02*
X44779047Y-71664985D01*
X43992857Y-72209271D02*
X43992857Y-70939271D01*
X43992857Y-70939271D02*
X43267142Y-72209271D01*
X43267142Y-72209271D02*
X43267142Y-70939271D01*
X42662381Y-72209271D02*
X42662381Y-70939271D01*
X42662381Y-70939271D02*
X42360000Y-70939271D01*
X42360000Y-70939271D02*
X42178571Y-70999747D01*
X42178571Y-70999747D02*
X42057619Y-71120699D01*
X42057619Y-71120699D02*
X41997142Y-71241652D01*
X41997142Y-71241652D02*
X41936666Y-71483556D01*
X41936666Y-71483556D02*
X41936666Y-71664985D01*
X41936666Y-71664985D02*
X41997142Y-71906890D01*
X41997142Y-71906890D02*
X42057619Y-72027842D01*
X42057619Y-72027842D02*
X42178571Y-72148795D01*
X42178571Y-72148795D02*
X42360000Y-72209271D01*
X42360000Y-72209271D02*
X42662381Y-72209271D01*
X46502619Y-74083795D02*
X46321190Y-74144271D01*
X46321190Y-74144271D02*
X46018809Y-74144271D01*
X46018809Y-74144271D02*
X45897857Y-74083795D01*
X45897857Y-74083795D02*
X45837381Y-74023318D01*
X45837381Y-74023318D02*
X45776904Y-73902366D01*
X45776904Y-73902366D02*
X45776904Y-73781414D01*
X45776904Y-73781414D02*
X45837381Y-73660461D01*
X45837381Y-73660461D02*
X45897857Y-73599985D01*
X45897857Y-73599985D02*
X46018809Y-73539509D01*
X46018809Y-73539509D02*
X46260714Y-73479033D01*
X46260714Y-73479033D02*
X46381666Y-73418556D01*
X46381666Y-73418556D02*
X46442143Y-73358080D01*
X46442143Y-73358080D02*
X46502619Y-73237128D01*
X46502619Y-73237128D02*
X46502619Y-73116175D01*
X46502619Y-73116175D02*
X46442143Y-72995223D01*
X46442143Y-72995223D02*
X46381666Y-72934747D01*
X46381666Y-72934747D02*
X46260714Y-72874271D01*
X46260714Y-72874271D02*
X45958333Y-72874271D01*
X45958333Y-72874271D02*
X45776904Y-72934747D01*
X45353571Y-72874271D02*
X45051190Y-74144271D01*
X45051190Y-74144271D02*
X44809285Y-73237128D01*
X44809285Y-73237128D02*
X44567380Y-74144271D01*
X44567380Y-74144271D02*
X44265000Y-72874271D01*
X43055475Y-74023318D02*
X43115951Y-74083795D01*
X43115951Y-74083795D02*
X43297380Y-74144271D01*
X43297380Y-74144271D02*
X43418332Y-74144271D01*
X43418332Y-74144271D02*
X43599761Y-74083795D01*
X43599761Y-74083795D02*
X43720713Y-73962842D01*
X43720713Y-73962842D02*
X43781190Y-73841890D01*
X43781190Y-73841890D02*
X43841666Y-73599985D01*
X43841666Y-73599985D02*
X43841666Y-73418556D01*
X43841666Y-73418556D02*
X43781190Y-73176652D01*
X43781190Y-73176652D02*
X43720713Y-73055699D01*
X43720713Y-73055699D02*
X43599761Y-72934747D01*
X43599761Y-72934747D02*
X43418332Y-72874271D01*
X43418332Y-72874271D02*
X43297380Y-72874271D01*
X43297380Y-72874271D02*
X43115951Y-72934747D01*
X43115951Y-72934747D02*
X43055475Y-72995223D01*
X41906428Y-74144271D02*
X42511190Y-74144271D01*
X42511190Y-74144271D02*
X42511190Y-72874271D01*
X41483095Y-74144271D02*
X41483095Y-72874271D01*
X40757380Y-74144271D02*
X41301666Y-73418556D01*
X40757380Y-72874271D02*
X41483095Y-73599985D01*
X46321190Y-76108795D02*
X46139761Y-76169271D01*
X46139761Y-76169271D02*
X45837380Y-76169271D01*
X45837380Y-76169271D02*
X45716428Y-76108795D01*
X45716428Y-76108795D02*
X45655952Y-76048318D01*
X45655952Y-76048318D02*
X45595475Y-75927366D01*
X45595475Y-75927366D02*
X45595475Y-75806414D01*
X45595475Y-75806414D02*
X45655952Y-75685461D01*
X45655952Y-75685461D02*
X45716428Y-75624985D01*
X45716428Y-75624985D02*
X45837380Y-75564509D01*
X45837380Y-75564509D02*
X46079285Y-75504033D01*
X46079285Y-75504033D02*
X46200237Y-75443556D01*
X46200237Y-75443556D02*
X46260714Y-75383080D01*
X46260714Y-75383080D02*
X46321190Y-75262128D01*
X46321190Y-75262128D02*
X46321190Y-75141175D01*
X46321190Y-75141175D02*
X46260714Y-75020223D01*
X46260714Y-75020223D02*
X46200237Y-74959747D01*
X46200237Y-74959747D02*
X46079285Y-74899271D01*
X46079285Y-74899271D02*
X45776904Y-74899271D01*
X45776904Y-74899271D02*
X45595475Y-74959747D01*
X45172142Y-74899271D02*
X44869761Y-76169271D01*
X44869761Y-76169271D02*
X44627856Y-75262128D01*
X44627856Y-75262128D02*
X44385951Y-76169271D01*
X44385951Y-76169271D02*
X44083571Y-74899271D01*
X43599761Y-76169271D02*
X43599761Y-74899271D01*
X43599761Y-74899271D02*
X43297380Y-74899271D01*
X43297380Y-74899271D02*
X43115951Y-74959747D01*
X43115951Y-74959747D02*
X42994999Y-75080699D01*
X42994999Y-75080699D02*
X42934522Y-75201652D01*
X42934522Y-75201652D02*
X42874046Y-75443556D01*
X42874046Y-75443556D02*
X42874046Y-75624985D01*
X42874046Y-75624985D02*
X42934522Y-75866890D01*
X42934522Y-75866890D02*
X42994999Y-75987842D01*
X42994999Y-75987842D02*
X43115951Y-76108795D01*
X43115951Y-76108795D02*
X43297380Y-76169271D01*
X43297380Y-76169271D02*
X43599761Y-76169271D01*
X42329761Y-76169271D02*
X42329761Y-74899271D01*
X41483094Y-74899271D02*
X41241189Y-74899271D01*
X41241189Y-74899271D02*
X41120237Y-74959747D01*
X41120237Y-74959747D02*
X40999284Y-75080699D01*
X40999284Y-75080699D02*
X40938808Y-75322604D01*
X40938808Y-75322604D02*
X40938808Y-75745937D01*
X40938808Y-75745937D02*
X40999284Y-75987842D01*
X40999284Y-75987842D02*
X41120237Y-76108795D01*
X41120237Y-76108795D02*
X41241189Y-76169271D01*
X41241189Y-76169271D02*
X41483094Y-76169271D01*
X41483094Y-76169271D02*
X41604046Y-76108795D01*
X41604046Y-76108795D02*
X41724999Y-75987842D01*
X41724999Y-75987842D02*
X41785475Y-75745937D01*
X41785475Y-75745937D02*
X41785475Y-75322604D01*
X41785475Y-75322604D02*
X41724999Y-75080699D01*
X41724999Y-75080699D02*
X41604046Y-74959747D01*
X41604046Y-74959747D02*
X41483094Y-74899271D01*
X45821631Y-77004271D02*
X45035440Y-77004271D01*
X45035440Y-77004271D02*
X45458774Y-77488080D01*
X45458774Y-77488080D02*
X45277345Y-77488080D01*
X45277345Y-77488080D02*
X45156393Y-77548556D01*
X45156393Y-77548556D02*
X45095917Y-77609033D01*
X45095917Y-77609033D02*
X45035440Y-77729985D01*
X45035440Y-77729985D02*
X45035440Y-78032366D01*
X45035440Y-78032366D02*
X45095917Y-78153318D01*
X45095917Y-78153318D02*
X45156393Y-78213795D01*
X45156393Y-78213795D02*
X45277345Y-78274271D01*
X45277345Y-78274271D02*
X45640202Y-78274271D01*
X45640202Y-78274271D02*
X45761155Y-78213795D01*
X45761155Y-78213795D02*
X45821631Y-78153318D01*
X44672583Y-77004271D02*
X44249250Y-78274271D01*
X44249250Y-78274271D02*
X43825916Y-77004271D01*
X43523536Y-77004271D02*
X42737345Y-77004271D01*
X42737345Y-77004271D02*
X43160679Y-77488080D01*
X43160679Y-77488080D02*
X42979250Y-77488080D01*
X42979250Y-77488080D02*
X42858298Y-77548556D01*
X42858298Y-77548556D02*
X42797822Y-77609033D01*
X42797822Y-77609033D02*
X42737345Y-77729985D01*
X42737345Y-77729985D02*
X42737345Y-78032366D01*
X42737345Y-78032366D02*
X42797822Y-78153318D01*
X42797822Y-78153318D02*
X42858298Y-78213795D01*
X42858298Y-78213795D02*
X42979250Y-78274271D01*
X42979250Y-78274271D02*
X43342107Y-78274271D01*
X43342107Y-78274271D02*
X43463060Y-78213795D01*
X43463060Y-78213795D02*
X43523536Y-78153318D01*
D11*
X47110000Y-65160000D02*
X40150000Y-65160000D01*
X47110000Y-67060000D02*
X40150000Y-67060000D01*
X47110000Y-68870000D02*
X40150000Y-68870000D01*
X47110000Y-70750000D02*
X40150000Y-70750000D01*
X47110000Y-72610000D02*
X40150000Y-72610000D01*
X47110000Y-74620000D02*
X40150000Y-74620000D01*
X47110000Y-76660000D02*
X40150000Y-76660000D01*
X40150000Y-63510000D02*
X47110000Y-63510000D01*
X47110000Y-63510000D02*
X47110000Y-78830000D01*
X47110000Y-78830000D02*
X40150000Y-78830000D01*
X40150000Y-78830000D02*
X40150000Y-63510000D01*
%LPC*%
D12*
G04 #@! TO.C,J1*
X73645000Y-63050000D03*
D13*
X69465000Y-63050000D03*
D12*
X73645000Y-71690000D03*
D13*
X69465000Y-71690000D03*
D14*
X69965000Y-64480000D03*
X69965000Y-70260000D03*
G04 #@! TD*
D15*
G04 #@! TO.C,H4*
X43340000Y-79615000D03*
X44665825Y-80164175D03*
X42014175Y-80164175D03*
X45215000Y-81490000D03*
D16*
X43340000Y-81490000D03*
D15*
X41465000Y-81490000D03*
X44665825Y-82815825D03*
X42014175Y-82815825D03*
X43340000Y-83365000D03*
G04 #@! TD*
G04 #@! TO.C,H3*
X72820000Y-83285000D03*
X71494175Y-82735825D03*
X74145825Y-82735825D03*
X70945000Y-81410000D03*
D16*
X72820000Y-81410000D03*
D15*
X74695000Y-81410000D03*
X71494175Y-80084175D03*
X74145825Y-80084175D03*
X72820000Y-79535000D03*
G04 #@! TD*
G04 #@! TO.C,H2*
X43410000Y-55295000D03*
X42084175Y-54745825D03*
X44735825Y-54745825D03*
X41535000Y-53420000D03*
D16*
X43410000Y-53420000D03*
D15*
X45285000Y-53420000D03*
X42084175Y-52094175D03*
X44735825Y-52094175D03*
X43410000Y-51545000D03*
G04 #@! TD*
G04 #@! TO.C,H1*
X74635000Y-53470000D03*
X74085825Y-54795825D03*
X74085825Y-52144175D03*
X72760000Y-55345000D03*
D16*
X72760000Y-53470000D03*
D15*
X72760000Y-51595000D03*
X71434175Y-54795825D03*
X71434175Y-52144175D03*
X70885000Y-53470000D03*
G04 #@! TD*
%LPD*%
M02*
